<?xml version="1.0" standalone="no"?>
<!DOCTYPE svg PUBLIC "-//W3C//DTD SVG 20010904//EN"
 "http://www.w3.org/TR/2001/REC-SVG-20010904/DTD/svg10.dtd">
<svg version="1.0" xmlns="http://www.w3.org/2000/svg"
 width="640.000000pt" height="640.000000pt" viewBox="0 0 640.000000 640.000000"
 preserveAspectRatio="xMidYMid meet">
<metadata>
Created by potrace 1.11, written by Peter Selinger 2001-2013
</metadata>
<g transform="translate(0.000000,640.000000) scale(0.100000,-0.100000)"
fill="#000000" stroke="none">
<path d="M3150 6003 c-59 -23 -138 -238 -204 -553 -19 -91 -37 -183 -40 -205
-3 -22 -8 -51 -11 -65 -10 -49 -14 -76 -19 -110 -3 -19 -14 -100 -26 -180 -32
-224 -33 -231 -44 -330 -4 -30 -13 -107 -21 -170 -8 -63 -17 -135 -19 -160 -3
-25 -8 -63 -10 -85 -7 -59 -15 -141 -21 -220 -3 -38 -8 -86 -10 -105 -9 -65
-15 -125 -20 -190 -3 -36 -7 -85 -9 -110 -3 -25 -7 -74 -10 -110 -17 -209 -19
-221 -30 -217 -6 2 -123 46 -261 96 -137 51 -266 99 -285 106 -49 20 -310 109
-395 136 -38 12 -79 25 -90 30 -72 30 -402 121 -555 154 -110 23 -249 30 -294
15 -42 -13 -62 -45 -52 -83 22 -91 309 -304 681 -507 33 -18 101 -55 150 -82
91 -51 735 -370 768 -382 15 -5 -14 -30 -133 -116 -399 -290 -532 -425 -525
-533 4 -72 79 -119 176 -110 54 5 151 35 244 75 60 26 257 128 305 158 73 46
204 121 213 123 7 1 11 -2 11 -8 -1 -5 -5 -68 -9 -140 -3 -71 -8 -159 -10
-195 -23 -428 -23 -965 0 -1150 8 -61 15 -114 19 -130 1 -8 6 -33 11 -55 12
-63 59 -159 90 -183 56 -44 122 -19 183 72 23 33 51 84 63 111 45 105 112 327
144 480 22 103 57 277 61 305 3 19 7 42 9 50 2 8 7 35 10 60 3 25 10 68 15 95
8 44 22 142 35 240 2 17 9 66 15 110 6 44 13 94 15 110 7 53 19 159 19 178 0
9 2 17 4 17 4 0 151 -61 215 -88 150 -66 236 -100 442 -173 604 -216 1081
-325 1420 -323 66 0 134 3 150 6 197 38 215 104 61 230 -133 109 -473 290
-871 463 -16 8 -55 24 -85 38 -30 13 -100 43 -155 67 -55 23 -114 48 -130 56
-17 7 -139 56 -270 109 -400 161 -509 206 -527 216 -10 5 -25 9 -34 9 -8 0
-14 4 -12 9 2 5 86 69 188 142 158 112 385 283 455 340 167 139 221 186 298
263 177 177 225 298 137 343 -67 35 -280 -37 -520 -175 -199 -113 -223 -128
-501 -303 -86 -55 -159 -99 -162 -99 -3 0 -4 8 -3 18 2 9 7 78 11 152 3 74 8
160 10 190 20 298 28 1259 12 1470 -11 152 -17 221 -22 255 -2 17 -7 55 -10
85 -9 82 -41 229 -64 294 -47 134 -107 193 -171 169z"/>
</g>
</svg>
