<svg xmlns="http://www.w3.org/2000/svg" viewBox="0 0 563.2 700">
  <title>Illustration de design system</title>
  <path d="M465.2 327c-3.7 0-7.3.2-11 0a33.4 33.4 0 0 1-18.1-6.7 46 46 0 0 1-12.2-14.7c-3.2-5.7-4.3-12-5.9-18.2-1-4.1.3-8.1 1.6-12a85.9 85.9 0 0 1 10.2-21c1.4-2.1 3.4-3.7 5.1-5.4l1.9-1.5A35.7 35.7 0 0 1 471 238c.7.2 1.6.7 2.2.5 4.7-1.3 8.3 1.5 12.2 3 5 2 9 5.4 12 9.7.5.7 1 1.3 1.3 2 1.6 4.8 4.2 9 7 13a26 26 0 0 1 4.3 19.5c-1.4 9.7-5 18.6-11 26.2-2.8 3.8-7 6.6-10.8 9.6-1.9 1.5-4 2.8-6.2 4-5.4 2.7-11.2 2-17 1.6zM271.3 241.8c1.3-4.3 4.9-5 8.1-5 6.8 0 13.2 1.8 18 7.2a85.1 85.1 0 0 1 22.2 48.6c.3 3-.3 6.3-1.1 9.2a44.2 44.2 0 0 1-8 14.6c-1.9 2.4-4.6 4.2-7.1 6-3.2 2.4-6.4 4.6-9.8 6.6-2.7 1.5-5.6 2.9-8.6 3.6-7.6 2-15.3 1.8-23 .3a66 66 0 0 1-20.4-8.8c-5-3-7.2-8.1-9.4-13.2-.3-.9-.4-1.8-.8-2.6-4.2-7.6-3.5-15.8-2.5-23.8a57.2 57.2 0 0 1 16.6-30c3.4-3.4 7-6.4 11.4-8.2 4.6-1.9 9-4.5 14.4-4.5zm33.7 45c-10.7 2-40 16.7-44.1 21.9 14.5-7.7 30-13.4 44-21.9zm-50.1 5.5c0 .2 0 .5.2.7.7 0 1.5 0 2.2-.3l16.9-7.3c5.5-2.4 10.9-5.1 16.4-7.5 3.3-1.4 4.4-.8 6.3 2.4 1-.4 2-.7 2.9-1.2l2.4-1.6c-2.3-5-2.7-5.2-7-3.3l-11.9 5.3-26.9 11.8c-.5.2-1 .7-1.5 1zM253 311a36 36 0 0 0 3.4-10.8l-10.3 7.3 7 3.5zm30.6-55.1l-.1-1.2-5-2.3c-1.4-.7-2.8-.2-3.1 1.2-.5 2.6-2.4 3.1-4.4 3.8-1.3.4-2.7.6-3.4 2.8l3.2-1.2c2.4-1 4.5-2.3 7.4-1.6 1.6.4 3.6-1 5.4-1.5zm-.2 50.5l.2.9c3.6-.7 7.3-.8 10.6-2 2.4-1 4.7-3 5.5-6.6l-16.3 7.7zm-21-26.5l-.2-.6c-2.4.8-5 1.6-7.3 2.5-1 .4-2.2 1.1-.5 2.7l8-4.6zm19-18.9c-3.7.8-6.6 1-8.8 3.5 3.9 1.6 5.8-1.1 8.7-3.5zm-39.3 31.6c2.8-.5 4.8-1.3 5.7-4.5-2.3 1.2-5 1.1-5.7 4.5zm55-23.6l-.4-1-5.4 2.6.3.7 5.5-2.3zm-13.8-8.8l.3.7 5-1.8-.3-.8-5 1.9zm-12.8 15.6l-.4-.8-4.5 2.3.4.7 4.5-2.2zM289 263l.4.7c1.3 0 2.2-.5 2.6-2.3l-3 1.6zM249.7 279c-1.5-1.3-2.3-.8-2.8.5l.3.8 2.5-1.3zm17.7-13l.2 1.1 2.5-.8-.1-.7-2.6.5zm-10.9 5.9c0-.3-.2-.6-.3-.8l-1.4.7.2.6 1.5-.5zM423.4 117.3c-3 0-3.2-.2-1.8-3.6.3-.8.3-1.8.2-2.6L419.2 99c-.2-1.3-.2-2.7 0-4l1.7-9.2c1.4-7.3 4-13.9 8.6-20 4.2-5.6 9-10.7 14.5-15a37.7 37.7 0 0 1 24.3-8.5c3 0 5.8 1.3 8.7 2 1 .2 2 .3 3 0 3.7-1 6.9-1.1 10.6 1.5 4.4 3.2 8.3 7 12.3 10.7a25 25 0 0 1 5.5 10.2c2.5 7.3 4.5 14.7 6.5 22.1.5 1.6.6 3.4.8 5 .2 2.6.6 5.3.4 7.8-.5 5.3.2 10.7-2.7 15.5-.8 1.2-1 2.7-1.5 4a21 21 0 0 1-6 8.6c-4 3.3-7.7 6.9-11.7 10.1-1.2 1.1-2.9 1.8-4.4 2.4l-17 5.9c-3.1 1.1-6.4.8-9.6.2-6.7-1.2-13.3-3-19.3-6.2a30 30 0 0 1-10.2-10c-3.3-5-6.7-9.7-10.3-14.7zm64-51.7c-1.6 1-3.4 1.8-5 3-5 3.3-9.8 6.8-14.7 10.2-4.5 3.2-9.2 6.1-13.5 9.5-6.6 5-13.7 9.5-19.3 16.5l2.5 5.3 2.8-1.4 30.6-20c4.9-3 9.7-6.2 14.5-9.4 1-.7 2-1.7 2.3-2.8 1-2.6 2.5-4 5-4 2 0 3.3 1.7 2.7 3.5-.3 1-.9 2-1.6 2.6l-8.6 6.1-10.4 7c-4.8 3.1-9.5 6.4-14.4 9.5-6 3.8-12.3 7.4-18.4 11.2-.7.4-1.3 1.1-2 1.8l2.9 3.4 30.8-20.3c8.4-5.6 17.6-10.1 24.7-17.4-1-6.6-4.2-11.5-11-14.3zm-33.4 60l3.1 1.2c2.6 1 5 1.3 6.9-1.5.6-.9 1.7-1.6 2.7-2.2 8.6-5.7 17.2-11.5 26-17 2.7-1.7 5.2-4.3 8.8-4.1 1.3-7 .6-12.7-1.7-17-4.3 3-8.6 6.2-13 9-5.9 3.8-11.9 7.2-17.7 10.9-5.3 3.5-10.4 7.3-15.7 10.9-2.5 1.6-5 3.1-7 5.9l2.8 2.1c8.9-6 17.6-12 26.1-18 4.5-3.2 9-6.4 12.9-10.3 2.8-2.7 5.9-4.2 9.4-5.3 2-.6 2.9.4 3.1 2-3.3 2.2-6.5 4.2-9.5 6.4-1.6 1.1-2.8 2.8-4.3 4l-21.4 14.6-11.5 8.4zm27.3-64c-8.4 4.8-16.1 9.5-23.5 14.6-7.6 5.2-15.3 10.3-21.3 17.4l-1.7-1.8c.6 2.7-2.4 5.3-.4 8 1.3-1.5 2.4-3 3.7-4.1 3.4-2.9 6.8-5.7 10.4-8.3 6.3-4.6 12.7-9 19.1-13.5 3.3-2.4 6.8-4.5 10-7 1.6-1 3.6-2 3.7-5.3zm-9 .3a17 17 0 0 0-14.6 3.5c-4.8 3.5-9.2 7.6-13.8 11.4a34.1 34.1 0 0 0-7.7 10.2c-.3.5 0 1.2 0 2.4 11.1-10.9 23.8-18.9 36.2-27.5zm-1.9 63.4l.5.9c6.3-2.4 13-3.4 18.5-7.8 3.2-2.6 6-5.6 7.6-9.7l-26.6 16.6zM109.6 328.9c-1.4.5-3 .9-4.5 1.6-8.2 4-16.7 6.8-26 5.8a61 61 0 0 1-23.5-6c-2.9-1.5-5.5-3.4-7.2-6.3-2.5-4.2-5.5-8-7.7-12.3a36.7 36.7 0 0 1-2.2-20c.7-9 3.2-17.3 8.6-24.5 3.3-4.5 7-8.8 10.5-13.2.2-.2.3-.4.6-.5 6.4-3.2 12-8 19.4-9.3 5.1-1 10.1-.3 15 .8 2.5.6 5 1 7.2 2.1 3 1.5 6.2 3.1 8.5 5.4 4.2 4.1 8.5 8.4 11.6 13.3 3.1 5 5.3 10.8 7.2 16.5a58 58 0 0 1 2.3 18.2c0 3.6-.5 7-3.1 9.8a7 7 0 0 0-1.5 2.3c-2.3 6.3-7.5 9.8-12.8 13.3-.9.6-1.4 1.8-2.4 3zm-3.5-37.3c8-4.7 8.6-6.6 4.2-13.8-2.3 1.8-4.6 3.5-6.7 5.4-.5.4-.9 1.7-.6 2.3.8 2.1 2 4.1 3.1 6.1zm-15.5 5l4.3 6.1 7-6.5c-1.6-2.2-2-5-4-5.6-2.6 2-4.8 3.9-7.3 6zm-2.3 1.8l-6.4 6 6 5.2 4.8-5-4.4-6.2zm-30 13.1l5.6-6.8c-4-5.2-6.3-5-9.7 1.2l4.1 5.6zm13.2-34.2c-7.4 4-7.5 4.3-3.2 9.9l5.5-4.9c1.1-1 1-2.1.2-3.1-.7-.8-1.6-1.3-2.5-1.9zm1.6 18l7.3-6.4-3.1-4.3-7.9 6.5 3.7 4.3zm8.7 21.2l4-4.8-4-3.3c-2.3-2-2.8-1.9-5.6.5 1.2 2.7 2.8 5.1 5.6 7.6zm21.6-16c-1.7 1.4-3 2.4-4.2 3.6-2.5 2.5-2.4 2.8.3 6.5l6.3-3.6-2.4-6.5zM80 282l3.3 4.3 6.5-5.4-3.6-4.3-6.2 5.4zm17-17l-4 5.6 3.2 4.6 5.4-5.3-4.7-5zm-14.1 9.3c-1-1.2-1.5-2-2.2-2.6-2-2-2.6-2-4.3-.8-1.9 1.3-2.2 2.9-1 5l2.3 2.9 5.2-4.5zm-4 27.2l6.7-5.8c-2.2-3.8-3-4-5.6-1.3l-3.9 4 2.9 3.1zm9.5-8.3l5.3-5.5c.7-.8 1.4-1.9.2-2.7-.7-.5-2-.7-2.7-.3a11 11 0 0 0-5.4 5l2.6 3.5zm19.9-18.4c-1.5-1.1-2.8-2.9-4.7-1.3-1.7 1.4-3 3.2-4.4 4.9-.2.3-.1 1 0 1.4.3.3 1 .7 1.4.5a135 135 0 0 0 7.2-4c.3-.3.3-1 .5-1.5zm2.8 24.8c3.2-3.7 3.7-5 2.7-8.2-1.6 1.5-3.2 3-5 4.4l2.3 3.8zm-45.5 8l-4.3 4.6c3.2 2 4.7 1.8 6.2-.5 1.3-2-.3-2.7-2-4zm-.3-17.2l-2.8-5c-3.4 2.3-3.4 3 0 6.4l2.8-1.4zm-11.4 4.4l-.8.3c-.1 2-1.2 4 0 6.8l3.8-4.3-3-2.8zm43.3 17.8l-2.6-4.3c-1.5 1.8-3.7 2.4-3.3 5.5l6-1.2zM71.3 298c-1.6-1.5-2.5-2.5-3.5-3.2-.6-.4-1.4-.3-2.1-.4 0 .8-.3 1.8 0 2.4.7 1 1.7 2 3.3 3.5l2.3-2.3zm-7.6-23.3c2.5 1.4 3.8.3 4.8-1s1.1-2.6-.3-4.2l-4.5 5.2zm24-4.6c-4.1-5.1-4.1-5.1-6-3.6 2.4 3.8 3.5 4.6 6 3.6zm-11.4 33.8c-2.3-3-2.3-3-5-.7l2.2 2.7 2.8-2zm-3.4 8c-.2 4.2.4 4.8 4.2 4.4-.8-2-2.1-3.5-4.2-4.4zm33.5-12.3l1 5.3c2.8-2.8 2.8-2.9-1-5.3zm-14.8-35.8c-1.8.2-3-1.8-4.5-.3l2.4 3.4 2.1-3zm-34 30l.7-.7c-1-.7-1-2.6-3.3-2.3l2.6 3zm35-15.9l.7-.7c-.5-1.2-1.2-2-3.7-2.4l3 3.1zm-20.1-10l.3.6 1.7-1-.3-.6-1.7 1zm-12.2 13.4l-.7-.5-1.4 2c.2 0 .4.2.6.4l1.5-2zM283.3 145.3c-6.6 0-12.9-1.6-19.3-2.9-8.7-1.6-16.2-5.9-22.8-11.3-4.1-3.3-6.8-8.1-8.2-13.2-1.4-5-2.7-10-2.8-15-.2-7.9-1-16 2.5-23.5 1.7-3.7 3.6-7.3 6-10.5 4-5.2 7.7-10.6 13.3-14.3 2.3-1.5 4.6-3 7.1-4.1 2.8-1.4 5.8-1.6 8.8-.8 3.1.8 6.1.6 9.2-.3 3.4-1 6.9-1.7 10.3-2.2 3-.5 6 .4 8.8 1.6 4.7 2 9.4 4.1 14.2 5.8 2.4.8 4.2 2.1 5.5 4 3 4.8 6 9.5 8.9 14.4 1.5 2.5 3 5.2 4 8 .8 2.9 1 6 1.4 8.9l.5 4.2c.1.8.3 1.6.2 2.3a785 785 0 0 1-5.2 18.4c-2.1 7-7 12-12.2 16.5a126 126 0 0 1-7.6 6.1c-6.7 5-14.1 8-22.6 7.9zM287 122l.2 1c1.2-.2 2.5-.1 3.6-.5a34 34 0 0 0 15.3-11.2 52.3 52.3 0 0 0 9.6-22.6c.4-1.7-.2-3.8-.7-5.6-.5-1.5-1.4-2.8-2-4.3-2.4-5-6-8.4-11.7-9.4-1.5-.3-3.2-.8-4.4-1.6-3.8-2.7-7.7-2-11.7-.9-2.6.8-5.2 2.7-8 .4-.2-.2-.7 0-1.1 0-2.9.3-5.8.2-8.5 1-2.8.8-5.9 1.4-8 3.7-4.3 4.4-8.8 8.5-11.8 14l-1.8 3.5c.8-.1 1 0 1.2-.2 3.6-3 7.1-6.2 10.8-9.2 1.4-1.1 3-2 4.5-3 1-.7 2.1-.7 2.6.4.3.6 0 1.7-.3 2.4-.5.7-1.3 1.2-2 1.8L246 94.6c-2.7 2-2.8 2.4-1.4 5.3L263 86.7c.6-.4 1.1-1 1.7-1 .7-.1 1.8 0 2.3.6.3.3.1 1.6-.3 2-1 1-2.2 1.8-3.4 2.7-5.3 3.8-10.6 7.5-15.8 11.5-3.3 2.5-3.3 4.9-.7 8.7.2 0 .5 0 .7-.2 6.1-5 14-7 20.4-11.5 1.2-.8 2.5-1.3 3.4.2 1.1 1.6-.2 2.4-1.4 3a244 244 0 0 1-10.4 5.3 31.6 31.6 0 0 0-10.1 6.8c4.7 4.2 5 4 9.2.3 4.8-4.2 9.7-8.4 15.5-11.3 1.7-.8 3.3-2 5-3.1l8-5.4c2 2.6 2.1 3.3.6 4.4l-4.9 3.2c-5.1 3.3-10.4 6.4-15.4 10-3.1 2.1-6.6 4-8.8 7.3 3.7 2.5 6.8 2.6 10.2-.2 3.4-2.9 7.1-5.3 10.7-7.9l16-11.2c1.5-1 2.7-2.2 4.1-3 1.2-.7 2.7-.5 3.4.9.6 1.2-.2 2-1.4 2.7-2.3 1.4-4.5 3-6.7 4.7l-5.5 4.2-3.7 2.2c-4 2.5-8 5-11.8 7.6-1.2.8-2.1 1.8-3.9 3.2 3.2.6 5.5 1.2 7.8 1.4.9 0 2-.6 2.7-1.2 3-2.8 5.6-5.8 8.6-8.5 1.7-1.4 3.6-2.7 5.6-3.6 2.1-1 3.1-.2 3.4 2.3l-11 8.3zM130.4 87.5c.4 9.8-2.3 19-6.5 27.5a44.4 44.4 0 0 1-17.6 18.6c-8.1 4.8-17.2 6-26 8.4-9.8 2.7-18.3-1-26.4-6.4-5.2-3.5-9.7-8-13.6-12.8-1.9-2.2-3.5-5-4.5-7.7-1.5-4-2.5-8.2-3.5-12.4-.4-1.8-.4-3.6.7-5.3.6-.8.6-2 .7-3a54 54 0 0 1 5.8-18.2l.8-1.8a31.3 31.3 0 0 1 11.8-15.2A91.7 91.7 0 0 1 70 48.8c2-.9 3.8-1.4 6-1.2 1.5.2 3.2-.3 4.6-.8 5.3-2 10.2-1 15.1 1.2 1.2.5 2.5 1 3.7 1 5.2 0 9.2 2.7 13 5.6 3.5 2.7 7.1 5.2 9.8 9 6 8.4 8.4 14.6 8.2 23.9zM84 64.5c-1.3.7-2.4 1.7-3.7 2.1a52.4 52.4 0 0 0-25.4 17.5 35.5 35.5 0 0 0-7 19.3c-.3 3.4 0 6.4 3.3 8.5 1 .6 1.9 1.5 2.6 2.4 3.1 4 7.7 5.6 12 7.8 1.2.6 2.8.5 4.2.4a86 86 0 0 0 19.5-3.5c6-1.8 11.7-4.4 15.7-9.7 2.2-3 5.3-5.8 6.6-9.1 2-5.2 3-10.8 4.2-16.2.6-2.6-.3-4.9-1.8-7a22.1 22.1 0 0 0-12.5-8.3c-1-.3-2.3-.4-3.3-1C93.7 65.6 89 64.3 84 66l-.2-1.5zM337.6 387.3l6 2.3 2.9 5.9c.2.4.7.8.8 1.3.4 2.8.9 5.6 1 8.4.4 10 .4 19.9 1 29.7 1.3 19.5 2 39 1 58.5-.3 4.2.3 8.4.5 12.6v1.6c.2 5.6-3.6 8.4-8.6 6a14.7 14.7 0 0 1-6.3-5.5 24.2 24.2 0 0 1-2-9.5c-.4-4.3-.1-8.6-.1-13v-14.8l-4.6 4c-6.3 6.2-13.3 5.2-19.4.5a30.4 30.4 0 0 1-7.3-7.6c-.5-.9-1.3-1.6-2-2.4-.5.2-1 .3-1.1.6-1 2.7-2.4 5.3-2.7 8-.6 4.6-2.6 7.3-7.5 7.7-3.4-2.3-5-6-6.7-9.6-3-6.4-.8-12 2.6-17.4a116 116 0 0 0 11.3-23.2c1-3 3.8-4.3 6-5.7 2.6-1.6 5.2.5 8 2 6.9-5 14.4-5.4 22.4-.6.1-1.4.4-2.2.4-3l.1-28.8c0-2.1.2-4.1 2.5-5.4.7-.3 1-1.4 1.8-2.6zm-6.7 60c-4.3-5.5-7.8-6.7-12.3-4.4-1.2.6-2.2 1.8-3.4 2.5-4.1 2.7-4.2 6.8-3.4 10.9.6 3.2 5.2 5.2 7.7 3.4 4.6-3.4 8.1-7.7 11.4-12.5zM447.3 461.3l-2-.4c-4.6-1.1-7.1-4.2-8.4-8.6v-.4c-3.2-3.2-.6-6 .5-8.7l9.5-1.4-1-10c-.4-3.6-1-7.2-1.3-10.8l-1-18.9c0-1.6.2-3 1-4.4 3.6-5.4 7.1-10.8 12.6-14.4 4.1-2.8 11-2.4 14.4 1.2 2.5 2.6 4.8 5.4 6.4 8.5 4 7.9 7.3 16 8.3 25.1.4 3.4-.3 6.7.3 10 0 .6-.5 1.5-1 2-3 2.4-6.8 1.6-9-1.6a32.8 32.8 0 0 1-6-15.1c-.5-3.9-1.8-7.7-3-11.4-.5-2-1.5-3.7-4.2-3.7-.4.5-.7 1.2-1.2 1.7-4.1 3.5-4.2 8.4-3.9 13 .7 9.1 2 18.2 3 27.7h17.5c1 2.4 1.6 4.6 2.6 6.6.5 1 1.6 1.6 2.3 2.2v5.4c0 1.8-.6 3-2.5 3.4l-6.1 1-11.5 1.5c0 2.2-.2 4.3 0 6.3.9 9.5.6 19-.4 28.6a9.6 9.6 0 0 1-4.4 7.5l-5 3.8c-6.2 4.7-19.3.8-21.9-6.7-1-2.9-1.8-6-2.2-9-.4-3.3 1.6-6 3.6-8.3 2.3-2.6 6.8-.8 7.5 2.7l.1 2c.5 1.4 1.5 2 3 2 1.8-.2 4.3-2.7 4.2-4.6l-.3-22.4c0-.3-.2-.7-.5-1.4zM67.3 467.8c11.6-1.9 17.5-9.3 21.6-18.4.9-2 1-4.3 1.8-6.4 1-3 1.5-2.6 4.6-2.5 4.2.2 6.2 3.2 8.6 5.7 1.2 1.3 1.5 3.5 2 5.4.8 2.2 1.6 4.5 2 6.8a30 30 0 0 0 8.7 15.8c3.4 3.8 5 8.2 5.8 13 .4 2.6-1.3 4.4-4 4.7-.7 0-1.5.6-2.2.5-1.1 0-2.6 0-3.3-.7-2-1.9-3.9-4-5.3-6.2-2-3.1-3.8-6.2-6.4-8.8-1.5-1.4-2.5-3.3-4-5.4-1 1.4-2 2.5-3 3.7a18.7 18.7 0 0 1-9.4 6.7c-2.6.8-5 2.3-7.6 3.2-3 1-6.1 2-9.3 2.8-3.6.7-6.8-.5-9-3.6-2.1-3.2-4-6.7-6-10-.4-.8-.5-1.8-.6-2.7a43 43 0 0 1 7.7-29.3c1.4-2 2.6-4.3 3.8-6.4a33 33 0 0 1 17.4-14c2.3-1 6.2.5 6.4 3.8 0 .5 0 1 .3 1.5 3.4 5.3-.4 8.6-3.3 12.2-2.7 3.4-6.1 6.3-8.2 10.4-2 4-4.8 7.4-6.9 11.3-1 2-1.4 4.4-2.2 6.9zM169.4 454.5c-1.9-1-3.7-.7-5.4-.2a22.4 22.4 0 0 0-11.4 8c-2.1 2.8-2.1 2.8-6 4.6-3.4-1.7-5.7-5-8.4-7.7-.5-.5-.6-1.4-.7-2.2-.4-3.6-1-7.3-1-11a944.6 944.6 0 0 1 1.9-46.1c.2-3.5.7-7 1-10.4 3.8-1.3 6.3.1 8.5 2.7 3.8 4.4 4.2 10 4.5 15.2.4 6-.4 12-.6 18l-.6 12.3c1.2 0 2.2 0 3-.2 5.7-2.2 11.3-1 17 .1 2.2.4 4.6.7 6.4 2.5 7.6 7.4 12.5 16.2 6 27.4l-2.9 6c-.2.5-.3 1-.7 1.4-3.7 3-6.2 7.2-10.8 9.2a20.2 20.2 0 0 1-11 2 8.6 8.6 0 0 1-7-7c-.3-1.4-1-2.8-1.6-4.2l2.2-5.8c3.6.5 7.7-.4 10.4-3.1 3-3.2 6.2-6.7 7.2-11.5zM385.5 453c-.6 6 2.4 9.9 7.3 10.8 3 .6 5.7 0 8.5-.5 1.8-.4 3.6-.8 5.4-.7 3.3 0 4.8 1.7 5 5.1l.4 1.9c1 3.3.3 5.1-2.3 7.2-1.2 1-2 2.4-3.2 3.4a10 10 0 0 1-3.9 2.4c-2.9.6-6 1.2-8.9 1-2.4-.1-4.8-1.1-7-2.3a37.5 37.5 0 0 1-16-17.7c-1.2-3-1.5-6.4-2-9.6-1-8.3.6-16.3 4-23.7 2.9-5.8 8-9.4 14-12 4.7-2 9.3-2.7 14.1-1 3.7 1.2 6.9 3.1 9.5 6 .4.5.8 1 1 1.7l3 12.2c.4 2 .5 4.1-.9 6-.4.6-.8 1.6-.6 2.1 1.3 2.6-.5 3.4-2.2 4-4.6 1.5-9.2 3-14.2 3-3.6 0-7.3.4-11 .7zM231.8 442.4c-5.3 3.1-8.5 10.9-8.9 21 1.4 0 2.8.3 4 0 3.4-1 7-1.8 10-3.5 3-1.6 5.9-.2 8.8-.6.6 0 2.2 1.7 2.2 2.6 0 1.4.5 2.1 1.4 3 3.3 2.8 2.9 9.3-.7 11.6-3.7 2.4-7.6 4-12 4.8-5 .9-9.9 2-14.9 3-5 .8-8.3-2-11.1-5.6-.5-.5-.7-1.2-1.2-1.6-3.7-3.7-3.9-8.4-3.9-13.1 0-6.4 1.5-12.4 4-18.2 1.8-4 3.1-8 5-11.8 4.3-8.1 11.3-10.6 20.2-7.9 2.8.9 4.7 1.8 5.2 4.8 5.2 5.6 2.3 11.6.8 17.5-.3 1.2-1.4 1.6-2.5 1-2-1-4.2-2-5-4.3-.3-.9-.8-1.6-1.4-2.7z"/>
  <path d="M289.1 551.4c-3 4.3-7.7 7.5-8.6 13.3-.1.6-.8 1.5-1.4 1.6-.5.1-1.4-.4-1.9-1-1.6-1.8-1.6-4.5.4-7.2 2.8-3.9 5.9-7.6 9-11.3l4.5-5.3c1.6-1.8 2.4-4.3 4.9-5.4.7-.4 1-1.5 1.5-2.3 2-4.2 5.6-6.5 10-7.6 3.2-.9 6.1.5 8.6 2.7l2.6 2.6c0-12.2-.8-23.8 1.4-35.2 2.3-.4 3.7.5 4.2 2.3.5 1.4 1 3.2.6 4.6-2.8 10.2-1.6 20.5-1.4 30.8.2 5.9 0 11.7.2 17.6.4 9 1 18 1.6 27 .2 2.4 1.3 4.6 1.8 6.9.4 1.6.6 3.3.5 5 0 .6-1 1.6-1.6 1.8-.6.1-1.9-.4-2.1-1-1-2.4-2.2-4.8-2.6-7.4-.9-5.1-1.3-10.3-1.8-15.5-.3-3.2-.2-6.5-1.4-9.8-.6.4-1.3.6-1.4 1-1.7 3.7-5.1 5.6-8 8-2.1 1.7-5 2.9-7.8 3.4-4.5 1-10.3-3.8-10.7-8.6-.2-2.6-.1-5.2-.2-7.9l-.1-2.9-.8-.2zm6.3 3.3c-.7 3.2 1.3 4.8 3.3 6.7 1.8 1.7 3.5 2.2 5.6 1a26 26 0 0 0 14.3-20.2c.6-4.3-3.3-9.5-7.2-10.7-3-1-7.1 1-9.6 4.6-3.9 5.6-5.8 12-6.4 18.6zM84.6 559c-2.4 1.8-4.4 3.4-6.4 4.7-2.1 1.4-4.3 3-6.7 4-4.4 1.8-8.7-1.2-9.8-6-1.6-7.2 2-12.6 5.6-18 2.2-3 4.6-6 6.3-9.3 1.8-3.3 4.5-5.4 7-7.9l2.6-2.3c1-1 2-2.2 3.7-1.5 2 .8 4.2 1.6 4.8 4.1.8 3.3-.4 5.5-3.7 6.8l-5.8 2.3c-1.4.5-2 1.5-2.6 2.7-1.6 2.8-3.6 5.4-5.4 8.1a304 304 0 0 0-6.4 10.8c-.4.6-.2 1.5-.4 2.9 1.8-.4 3.4-.5 4.6-1.2 4.2-2.2 8.4-4.5 11.4-8.2 1.3-1.6 2.3-3.4 3.2-5.3 1-2.4 1.7-5 2.6-7.4 0-.3 0-.5.2-.8 1-2.3 2.8-3.5 4.4-3 2 1 3.6 4.2 2.8 6.3L91.4 555c-1 3.2 0 4.3 3.1 3.6 3.3-.8 6.5-2 9.8-2.9l12-3 3-1 2.6-.6c0 2.8-1.8 3.7-3.6 4.6l-10 4.6-13 6.2c-2.1 1-6.4-.6-8-3.3-.8-1.2-1.6-2.3-2.7-4.2zM455.8 552.3l2.8 10.4c1.8 6 2.4 12.1.7 18.2-1.5 5-4.2 9-9.2 11-1.7.7-3 .4-4.4-.5a19 19 0 0 1-6-7.7c-3.5-6.8-2-13.9-1-20.9.1-1 .9-2 1.5-3.4 3.5 2.9 4 6.2 3.4 9.8-.1 1.1-.5 2.3-.9 3.4-1.6 3.8-.6 7.5 1 11 1.6 3.6 4.2 4 7 1.1 3.6-3.6 5.3-7.9 4.7-13.1-.6-6-2.7-13.8-5.3-18-5.9.6-11.7 1.6-16.9 5.6-.7-1-1.4-1.7-1.8-2.6-1-2.2-.4-4 1.8-4.9 2.6-1.1 5.4-2 8.2-2.8l8-2c0-6.5-.3-12.6-.4-18.7 0-2 0-4 .4-5.9 1-7 7.8-10.1 14-6.8 5.4 2.8 11 13 9.6 20.3-.3 1.4-1 2.7-2.5 2.4-.7-.2-1.7-1.7-1.7-2.6.3-4.2-.5-8-3-11.6-1.4-1.9-2.8-3.7-5.4-4.2-3.5-.7-6.2.7-7.2 4.2-1.3 4.6-.6 9.2.5 13.6.5 2.2 1.3 4.2.5 6.4-.1.5.3 1.2.6 2.2 3.2-.2 6.3-.1 9.4-.6 3.2-.5 5.3 1 7.4 2.9.6.5.8 1.9.8 2.9 0 1.5-1.5 2.5-2.6 1.5-2.1-1.9-4.5-1.3-6.7-1.3-2.3 0-4.7.4-7.3.7zM163.4 568.8c-.3-1.1-.2-2.1-.6-2.8-2-3-2-3.1.8-4.8 3.4-2 6-5 7.8-8.4 2.6-4.9 5.3-9.7 7.8-14.6 1.3-2.6 1.1-3-.2-6a44.5 44.5 0 0 0-19.2 14.2c-1.7 2.4-1.9 5.4-1.6 8.3 0 1 .3 2.1 0 3-.1.6-1 1.4-1.6 1.4-.6.1-1.6-.4-1.8-.9-.7-1.7-1.5-3.4-1.6-5.2-.4-7 .6-13.8 1.8-20.6a93.4 93.4 0 0 0 1.6-28.5c-.3-2.5-1-5.1.3-7.8 3.7.6 4.1 4 4.4 6.3.6 5.2.7 10.7.4 16-.3 5-1.3 10-2 15.1l-.2 3.6c1.1-.5 2-.8 2.6-1.2l13-8a6.4 6.4 0 0 1 9 3.2c.8 1.9 1 4.1.8 6.1-.3 4.2-2.1 8-4 11.8l-6.2 11.8c-.8 1.6-1.7 3-3.7 3.7-1.9.7-3.5 2.2-5.3 3.3-.6.4-1.4.6-2.3 1zM454.6 637.7l-5-6c-2.5-2.6-5.2-5-6.9-8.4a10 10 0 0 1 .5-9.8c2.5-4.4 6.5-7 11.2-8.7 2.5-1 4.7 0 6.4 2.4 2.8 3.7 3.6 7.9 2.7 12.3-.7 3.7-1.8 7.3-3 10.9-.1.5-1.1 1.2-1.7 1.1-.7 0-1.9-.8-2-1.3-.2-1.7-.2-3.4.2-5 .6-2.6 1.7-5 2.3-7.5.4-1.6.5-3.4.3-5a3.1 3.1 0 0 0-4.6-2.6 18 18 0 0 0-8.6 8.9c-.8 1.9.1 3.5 1.5 5 2.8 3 6 5.9 8.3 9.3 2.5 3.7 5.2 5.1 9.5 4 1.2-.3 2.6 0 3.9.1 1.6.1 3 .7 3.6 2.5-2.1 2.2-2.1 2.2-11 4 .4 3.3 1.3 6.6 1.3 9.9-.1 5-.7 9.9-1.5 14.8-.3 2-1.5 3.9-2.5 5.7-1 2-2.2 2.2-4 .7a24.7 24.7 0 0 1-7-10c-1-2.4-1.8-5.1-2-7.8-.4-3.2 1-4 4-3 3.9 1.4 5.5 3.7 4.8 7.5l-4.2-2c.5 3.8 2.2 6.5 4 9.2 2.6-1 2.4-3.2 2.7-4.8 1-5.5 1.6-11.1.5-16.7-.4-2-1-3.3-3.3-3-.7.2-1.7 0-2.3-.4-.9-.8-2-1.8-2.2-2.9-.5-1.5.9-2.2 2.2-2.6l1.9-.8zM418.4 566.8c-2.1 1.2-4.2 2.4-6.4 3.4-6.7 3.3-13.5 6.3-20.8 8.1-3 .8-6 2.3-9 .3a14.8 14.8 0 0 1-7.1-9.5 57.3 57.3 0 0 1 .1-23c1-5 3.3-9.7 5.4-14.3 2.6-5.3 11.7-6.6 16.6-2.8 2.7 2 4.5 4.8 5.8 7.8.4 1 .3 2.3.2 3.5 0 2.7-.3 5.5-.4 8.2-.1 2.3-1.6 3.6-3.9 3-5-1.6-10.2-1.7-15.4-1.5-3.1.1-3.9.7-4.3 3.5-.7 4.7-1 9.3.2 14 1.1 4.2 3.5 6.1 7.8 5.2 6-1.4 12-3.3 18.1-4.9 3.8-1 7.7-1.7 11.5-2.5.4-.1.9.3 1.3.5l.3 1zM380.9 544l15.3 1c1.5 0 2.3-1 2.8-2.5 1.4-4-.1-7.5-4.4-9.6-3-1.4-8.3-.3-9.9 2.5-1.4 2.4-2.3 5.1-3.8 8.6zM420.8 160.2l-.8-2c-.9-3.3.5-5.1 3.9-5 5.6 0 11.2.3 16.9.4l18.8.4 26.6.8h2c3.2.2 6.3.8 9.6.5 7.4-.7 14.9-.7 22.3-.8 2.4 0 4.8.4 7.4.6l.4 4.4c-1.9 1.3-3.9 1.4-6 1.4l-10.9.3h-3c-2.8 0-5.5.3-8.2.2-4.3-.1-8.6-.5-13-.7-2.1-.2-4.3-.1-6.5-.1l-9 .2-13.3-.2c-6.5-.2-13-.5-19.6-.5l-17.6.1zM60.5 351.6c5-.2 10-.2 14.8-.6 4.3-.3 8.5-1.2 12.8-1.7l12.4-1 5.5-.7c3.5-.6 7-1.3 10.6-1.8 2-.3 4 .2 5.8 0 2.4-.2 4.8-1 7.2-1.2 3-.4 6-.6 9-.8 2-.1 2.7 1.2 3 2.9.1 1.7-1.5 3.7-3.3 3.7l-6.1-.3-2.7.1c-5.8.9-11.7 1.6-17.4 2.7-3.8.6-7.4 1.5-11.3.9-1-.2-2 .2-3 .3l-8.5 1.3c-2.8.4-5.6-.4-8.3 1.4-1 .7-2.8.4-4.2.5-.8 0-1.8-.3-2.3 0-3.6 3.1-7.9.9-11.8 1.5-3.4.6-7 0-10 2.3-1.4 1-2.8.5-4-.7-1.5-1.7-1-3.7-.7-5.6.4-1.9 1.9-2.3 3.6-2.5 3-.3 6-.8 8.9-1.2v.5zM330.8 154.7c-4.5 0-9-.2-13.6 0-2.6 0-5.2.5-7.8.5-9 .2-17.8 0-26.7.3-4.8 0-9.6.7-14.5 1a862.7 862.7 0 0 1-26.4 1.3h-9.6c-1.8 0-3.8-2-3.7-3.5 0-2 1.9-3.1 4.3-3 6.6.5 13.2 1.3 19.8 1.3 4.6 0 9-1.1 13.7-1.4 10.2-.7 20.5-1.7 30.9-1 5 .2 10.1-.6 15.2-.7l23.5-.4c2 0 3 1.6 1.9 3.4-.5.6-1 1.4-1.7 1.6-1.7.5-3.5.7-5.3 1v-.4zM141.6 152.4c-3 0-6.1-.2-9.2 0-6.4.3-12.8.8-19.1 1.2l-12.5 1-11.7 1c-2.8.3-5.7.2-8.5.5-3.1.3-6.2 1.1-9.3 1.4-2.1.2-4.3-.2-6.5-.1-5 0-10 .1-14.9.4-3.4.2-7 .5-10.4 1-2.3.3-3 .1-3.5-1.7-.7-2 .2-4.5 2-5 1.3-.2 2.7-.1 4.2-.2l10.5-.1c1.3 0 2.6-.3 3.9-.2 6.8.5 13.5-.1 20.3-.6l20.6-1c2.5-.2 4.9-1 7.4-1.1l30.9-2.2c.6 0 1.3.2 2 .1 4.6-.5 5.3.5 3.8 5.6zM234.8 523c-2.7 0-4.4 1.5-5.7 3.3a71 71 0 0 0-13.2 34c-.3 1.6 0 3.3 0 5 5.3 0 9.5-1.7 13.7-3.5l14.2-6.4 2.2-1.4c1.1-.5 2.1-1.9 3.8-.6-.7 2.2-1.7 4.2-3.8 5.5-8.1 4.7-16 10-25 13-3.7 1.2-7-.2-8.5-3.9a18 18 0 0 1-1.1-8.8c.5-5.2 2-10.2 3.4-15.3 2.2-8.3 7.2-15 11.8-21.9 1.4-2 3.6-3.7 5.7-5.3 1.7-1.4 2.9-1 4.3.7 2.7 3.4 2.8 7.2 1.3 11.1-1 2.8-2.3 5.5-3.3 8.3-.5 1.3-1 2.2-2.5 2-1.6-.4-2.3-1.7-2-3 .8-2.5 1.8-4.9 3-7.1a11 11 0 0 0 1.7-5.7zM329.8 339c-3 .8-5.5 1.7-8 2.1-1.8.3-3.7.5-5.4 0-4.5-1.3-9-.7-13.5-.4-8.7.5-17.4 1.8-26 2-5.8 0-11.4 1.3-17 1.5l-18 .9c-2.6.1-5.2.3-7.8.8-2.7.5-4 .1-4.3-1.7-.3-1.6 1.5-3.8 3.4-4.1a58 58 0 0 1 5.5-.5c7.7-.3 15.4 0 23-1.4 2.6-.5 5.2-.2 7.9-.2h3.9l16.7-1c1 0 2-.2 3-.5 4.8-1.1 9.6-1.3 14.5-.7.9 0 1.8 0 2.6-.2 2.6-.4 5.1-1.2 7.7 0 .5.3 1.3 0 1.9 0 2.2-.4 4.3-.9 6.5-1.1 4-.4 4.8 1 3.4 4.5zM489.2 336.4l-15.6.6h-16.9c-3.4 0-7 .6-10.4 1h-1.6c-5.2.3-10.4.3-15.6.7-1.7.1-3.5 1-5.1 1.6-2.3.9-3.1.5-3.5-2-.4-3.2.7-4.6 4-4.9 6.6-.5 13.2-1.3 19.9-1.5 7.7-.2 15.5.2 23.3.3 2.9 0 5.7-.1 8.6-.3l12.4-.8 12.1-.5 8.2-.7c.8 0 1.7-.3 2.3 0 .9.4 2.1 1.1 2.2 1.8 0 1-.7 2.1-1.4 2.9-.5.5-1.5.6-2.2.5-4.5-.6-8.8 1-13.3 1.1l-7.4.4v-.2zM392.2 642.5l7.1-1.5c.7-.1 1.3-.6 1.9-.5 1 .3 2 .9 3 1.3-.5.8-.9 1.8-1.6 2.3-4.3 2.8-8.8 4.7-14 3.6-3.2-.7-6.8-4.6-7.1-7.8a18 18 0 0 1 1.1-10 34 34 0 0 1 7.1-10.6c3.5-3.2 6.5-2.4 8 2 .3 1.1.3 2.3.5 3.5.3 1.2.5 2.5 1 3.7 1 2.4.7 4.1-2 5.2-2.6 1.2-5.3 2-8 2.9-1.6.4-2.8.7-2.7 2.6 0 1.9 1 3 2.8 3.2l2.9.1zm-3-13.1c2.6.3 2.6.3 2.5-2.3l-2.6 2.3zM161.5 644.5c-4.6-1.7-4.5-2.5-2-9.1-4.6-2.7-5.1-6.9-4.7-11.8.6-6.9 1.4-13.8.5-20.7-.3-1.8-1-3.6-2-5.3.2-1 .2-2.1.6-3 .4-.8 1.2-1.7 1.8-1.8.7 0 1.8.8 2.1 1.5.9 2.3 1.8 4.7 2 7 .5 4.9.5 9.7.6 14.6v5.7l1 .2c5.4-.9 9.3 3.2 7.3 8.3-1.9 5-4.7 9.5-7.2 14.4zm-.7-11l2.9-5.6c-2.3 1-4 2.3-2.9 5.7zM316.3 639.4l-4.7 5.3c-1.6 1.7-3 2-4.6.6-1.6-1.3-1.7-2.8-.4-4.3a178.2 178.2 0 0 1 10.4-11c3.4-3 7.7-5 10.8-8.7 1.8-2 5.3-1 7 1.5 4.3 6.1 3.3 13.2-2.3 17.3-2 1.5-4 3-6.4 4-4.6 2.2-6 1.6-8.6-2.8l-1.2-1.9zm8.9-4.8c6.3-.2 8.5-3.1 6.2-7.4-3.4 1.1-4.8 4-6.2 7.4zM504 172c-.7 2.4-2.2 3-4.5 3-4.5-.4-9.1-.7-13.7-.6-5.2 0-10.4.3-15.6.6l-12.6.5c-3.5.2-7 .2-10.5.6-1.5.2-2.8 1-4.6 1.8-1.9-.8-1.6-2.8-1.2-4.5.5-1.7 1.4-3.1 3.5-3.1l9.5-.1c2.4 0 4.9-.4 7.3-.5l5 .2c4.2-.1 8.4-.4 12.6-.4 5.8 0 11.6.4 17.4.6h3.9c1.7-.2 2.8.4 3.5 2zM84.7 621.5c3.1.2 4 .7 4.3 3 .6 5.3 2.3 10.1 6 14-2 2.5-2.8 2.7-4.2.8-2-2.7-3.8-5.5-6-8.8-1.3 1.1-2.5 2-3.7 3.2-1.4 1.4-2.5 3-4 4.2-1 .7-2.8 1.1-4 .9-1.7-.4-2.2-2-2-3.8.1-3.8 1-7.5 3.6-10.4l4.7-5.2.8-.9c1.1-1 2.5-1.3 3.6-.4.6.6.5 2 .9 3.4z"/>
  <path d="M342 650.1c-2.9 1-4-.8-4.5-2.4-1-2.9-1.8-5.9-1.9-8.8-.2-10.2 0-20.4 0-30.6v-9c0-1.4-.2-3 0-4.3.2-1 .8-2.6 1.5-2.8 1.5-.4 2.3 1 2.6 2.3.3 2.6.8 5.2.8 7.8l-.1 30.2c0 4.9-.2 9.7 1.4 14.4.3 1 .2 2 .3 3.2zM223.2 640.2c1.4-.5 2.9-.8 4.3-1.4 1.3-.5 2.5-1.5 3.8-1.9.9-.2 2.3 0 2.7.5.5.6.2 2.2-.3 2.7a15.4 15.4 0 0 1-8.7 4.9c-3.1.4-6.8-2.7-7.2-6.2-.1-1.3 0-2.7.3-3.9a44.5 44.5 0 0 1 8.2-15.4c1.1-1.4 2.4-2.6 4.4-1.7 1.8.9 2.2 2.6 1.8 4.3-.6 2.8-1.3 5.6-2.2 8.3-.4 1.3-1.4 2.2-3 1.4-1.3-.7-2.2-.1-2.6 1-.9 2.1-1.6 4.3-2.3 6.5l.8.9zM306.1 164.3c.5.9 1.1 1.7 1.4 2.7.5 1.7-1 3.4-2.8 3.3-2.6-.1-5.2-.6-7.8-.6h-23.8c-1.8 0-3.6.4-5.4.7-1.1-1-2.3-2-1.4-3.9.9-1.7 2.5-2.1 4.3-2.2l23.4-.4c2.3 0 4.7.3 7 .4h5.1zM110.2 361c.9 4.5.2 5.3-3.7 5.4-2.6.1-5.2.6-7.8.9-3 .3-6 .3-8.9.7l-10.2 2-1.4.4c-2.8-3.8-1.7-6.5 2.7-7l1.2-.2c8.8 0 17.6-1.3 26.4-2.2h1.7zM262.6 358.2c-1.5-1.8-2.3-3.4-.8-5.4a3.7 3.7 0 0 1 3.3-1.7l12.9-.3c2.3 0 4.6.4 7 .4 1.7 0 3.6 0 5.3-.3 1.7-.3 3.4-1.4 4.4.8.6 1.3-1.4 4.2-3.2 4.4-2.8.4-5.6.4-8.5.4-3.3 0-6.6 0-10-.2-3.3-.2-6.4.4-9.4 1.8-.3.2-.7 0-1 0zM474 349.7h-14.4c-2.2.2-4.3.9-6.5 1.3-2.4.5-3.7-.4-4-2.8-.3-2.1.8-3.7 3-3.7 3.4-.2 6.7 0 10 0 5.5 0 11 0 16.4-.2 1 0 2.3-.3 3 0 1 .6 1.6 1.7 2 2.7 0 .3-1.1 1.5-1.8 1.6-2.7.5-5.4.8-7.7 1.1zM97.2 163.7c1.3.8 2.3 1.7 1.7 3.5-.6 1.8-2 2.3-3.7 2.2l-17.9-.5-7.4.3c-2 .1-3.2-.6-3.3-2.3-.2-1.8 1-2.9 3.2-2.9 7.9-.1 15.8-.5 23.7.4 1 .2 2.2-.4 3.7-.7zM489.4 70.6C484 74.8 479.1 80 472.2 82l-.5-.7L482 72c.7-.7 1.2-1.7 2-2.4 2-1.8 3.8-1.5 5.3 1zM269 94.3c2.6-1.3 3.7-4 6.5-5.1 1.3-.5 2.2-2.4 3.3-3.7 1-1.2 2.2-2.3 4-1.8.5 0 1.2.6 1.4 1a2 2 0 0 1-.5 1.7A50.2 50.2 0 0 1 271 95c-.5.2-1 .1-1.5.2l-.3-.8z"/>
</svg>
