<svg xmlns="http://www.w3.org/2000/svg" viewBox="0 0 514 608">
  <title>Illustration de licorne</title>
  <path d="M334.5 133c2.7 2.2 5.3 3.3 8.4 3.4 6.1 0 12.3.3 18.5.4 3 0 3.5-.2 4-3.3 1-4.7 1.5-9.4 2.9-14 2.6-8.7 5.6-17.3 8.7-26 .8-2 .6-3.5-.9-5-2.7-3-9.1-8.4-11.7-9.6-1.2 1.5-2.4 3.2-5 2.4-6.3-2-6.1-4-4.2-8.6.8-2 2-3.9 3.4-5.5 1.6-1.8 3.8-2 6-1.2 2.4.8 3.3 2.4 3 4.7-.6 3.4 1.2 5.6 3.5 7.6l10.2 8.4c3.9-.8 6.8.4 9 4.3a98 98 0 0 1 5.1 10.3c2.7 6.4 5.2 12.8 7.7 19.3 1.3 3.6 2.3 7.3 3.6 11l1.7 4.2c4.1 0 8 .2 12 0 9.2-.6 18.3.4 27.4.7 2.5 0 5.1 0 7.7.3 1.8.2 3.7.7 5.5 1.1 1.4.4 2.7 1 4 1.3 3 .8 5 2.5 6.3 5.2 2.6 5.3 3.4 11 3.9 16.8l1.1 18.5c.2 3.5 0 7.1.2 10.7.5 12.5 1.1 24.9 1.4 37.3.1 7.4 0 14.7-.6 22-.8 9.5-.8 19-.5 28.5l.5 13.9-.2 1.5c-.3 1.8-1 3.7-.8 5.5a3585.6 3585.6 0 0 0 4.2 46.3c.7 7.6 1.6 15 2.4 22.6.2 2.7.1 5.4.2 8.1l.3 11.6v11.9c-.2 4.5-.5 9 .2 13.4.8 5.6.8 11.3.9 17 0 6 .2 12 1.8 18 .5 2 .1 4.3 0 6.4 0 1.8-.2 3.6 1.2 5.1.6.7.8 1.9.8 2.9 0 9.3.4 18.7 0 28.1-.2 6.4-.6 12.9-2.6 19-1.3 3.8-3.1 7.3-4.4 11a98 98 0 0 1-9.2 18c-3 5-7 9.2-10.7 13.5-3.4 3.8-7.6 6.8-10.5 11-.6.9-1.5 1.8-2.4 2-5.2.8-8.3 5.6-13.4 6.7-4.8 1.1-9.4 3.5-14.2 4.9-2.8.8-6 .5-8.6 1.4-6.2 2.1-12.6 2.7-18.9 3.9l-2.3.2c-12.6.2-25.2-.3-37.5-3.7-9.5-2.7-18.7-6.1-27.3-11.4a76.5 76.5 0 0 1-22.3-21.4 42 42 0 0 1-7.1-17.7c-1.2-7.4-2.8-14.7-3.6-22-.8-8-.9-16.2-1.4-24.3l-.9-13-.4-13.5-.8-18.4v-5.4c.1-8.4.3-16.7.2-25 0-4.5-.6-9-.8-13.5 0-2.3.4-4.6.3-6.8-.3-4.9-1.2-9.7-1.1-14.5 0-6.8-1.3-13.3-2-19.9a7 7 0 0 0-2.1-4.3c-3.5-3.5-6.9-7-10.2-10.6-2-2-3.9-4.3-6.3-7-.3 1.4-.6 2.2-.6 3l.5 11.5v8.4c-.1 5 1 10 1.1 14.9.4 8.4 1.5 16.8.5 25.3-.5 3.7.2 7.6.2 11.4 0 3.2 0 6.4-.3 9.6-.3 6.7-.7 13.3-1.2 20-.4 4.6-1.5 9-3.8 13.2-1.3 2.5-2 5.3-2.9 8a64.8 64.8 0 0 1-6.3 13.5c-2.4 3.8-4 8-6.1 12a86.2 86.2 0 0 1-17.3 23.4c-1.5 1.4-3.7 2-5.2 3.2-7.7 6.4-16.4 11-25.2 15.6-5.4 2.7-10.5 6-15.9 8.7A112 112 0 0 1 164 539l-14.9 3.3h-1.9c-7.5-.9-15-1.5-22.6-2.7-4.2-.6-8.4-2-12.6-3.2a93.3 93.3 0 0 1-32.5-17 137.5 137.5 0 0 1-23-22.7 139.7 139.7 0 0 1-19.3-34.1 100.5 100.5 0 0 1-5.5-45.5c1.1-5.3 3-10.6 4.5-15.9 1.9-6.3 5.4-11.9 8.6-17.5.8-1.4 1.3-2.8 2-4.2.9-1.6 1.6-3.3 2.6-4.7 6.2-8.5 12.2-17.2 18.8-25.4 6.1-7.4 12.5-14.7 20.6-20.1l2.9-2.6c6.6-8.4 13.1-16.8 18-26.3 2.2-4.2 4-8.6 6.4-12.7 3.3-5.8 3.4-12.4 4.7-18.6.5-2.7-.4-5-2.5-7.3a79.4 79.4 0 0 1-8.7-11.6c-1.9-3-2.1-6.5-1.2-10a33 33 0 0 0 1.1-9.6c-.3-6.4 3.6-9.5 8.7-11.3 2.4-.9 6.2.8 7.6 3 2.6 4.2 3 4.5 7 5.7 1-4-.6-7.5-1.5-11.2-.7-3-1.7-5.9-2-8.9-.7-6-1.3-12.1-2.4-18.2-.9-4.5-1-9.1-1.3-13.7l-.7-10.4c-.1-3.6-.3-7.3-.2-10.9 0-1.3 1-2.6 1.6-4.2l-5.3-6c-3.7-3.7-7.8-7.3-11.3-11.3-7.6-8.5-16-16.2-23-25.2-5.1-6.6-10.9-12.7-16-19.4-3-4-5-8.6-7.2-13-.3-.7-.3-1.6-.2-2.3.6-4.5 1-8.9 5-12.2 1.4-1.2 2.9-2 4.6-2 2-.1 4.2 0 6.1.5 4.8 1.4 9.7 2.3 14 5.1 1 .7 2.2.8 3.3 1.2 6.4 2.8 13 5.5 19.3 8.5 5 2.4 10 5.3 15 7.8 2 1 4.3 1.7 6.5 2.4 10.4 3.5 20.2 8.7 30.1 13.3 1.3.6 2.5 1.4 3.8 1.7.7.3 1.9.1 2.5-.3 2.1-1.6 4-3.4 6.1-5.2l-.9-1.7a32.3 32.3 0 0 1-4.7-17.2c-.1-1.7.3-3.5.5-5.3l1-8.4c1-8.4 4.6-15.2 11.4-20.2 3.8-2.8 7.8-5.3 11.8-8 3-2 6.6-1.8 9.7-1 3 .7 5.9 2.7 6.3 6.5l1.5 14.1c.2 1.5 1 2.9 1 4.4.2 2.1 0 4.3 0 6.5 0 2.6-.4 5.2.3 7.6 1 3.4 1.1 6.8 1.2 10.2 0 1.5.5 3 .8 4.2L243 85c1.3-3.8 4.2-7.5 5.1-12.3.4-2 2.1-4 3-6 1.4-2.8 2.7-5.8 4-8.7 4-9.4 8-18.7 14.3-26.8 2.4-3.2 6.7-3.8 10.2-3 5.2 1 10.5 2.3 14.6 6.4 4 4 6.5 8.8 8.6 14 1.7 4.3 2.3 8.6 1.3 13.2-.5 2-.1 4.4-.6 6.5-1 4.5-2 9.1-4.9 13.1-1.7 2.3-2.4 5.4-3.8 8-2.8 5.1-7 9-12 12l-1.7.7 16.2 8.3-.1-4c-.4-3.9 1.3-6.1 5.2-7.1a33 33 0 0 1 29.8 7.4c3.4 2.7 4.7 6.6 5.3 10.7.7 5.4-.3 10.5-2.9 15.5zM347 384.5c-1.4-3.6-3.7-4.2-6.1-1.6-3 .3-3.4.2-3.3-2.5 0-2.3-.8-3.4-2.8-4.4-1.8-.8-3.3-2.4-4.6-3.9-2-2.2-3.6-4.6-5.3-7-1.5.5-2.6 1-4.2 1.4 1 1.3 1.6 2.4 2.5 3.3l14.1 14c2 2 4.2 4 5.9 6.2a35 35 0 0 1 7.9 25.8c-.2 2.8-.1 5.7.5 8.4.7 2.8 2.3 5.4 3.1 8.2 1.3 4.4 4.4 7.6 7.8 10.2 1.8 1.3 4.2 2.3 6.3 2.6 7.7.8 14.1-2 19.2-7.8 6.2-7.2 8.5-16 10.6-25 .7-3 1-6.3 1.5-9.4.2-1.4.6-3.1-1.9-3.6v4.4c-2.1 1.2-2.6-1.4-4.4-1.6l-3.6 3.3 4.5 7.1c-1 1.4-2 1.4-3 .4-1-1-2.2-2.2-3.4-3-3.5-2.4-7-4.7-11.5-1.7v1.1c.5 1.4.5 2.7-1 3.3-1.4.6-1.9-.8-2.6-1.7l-2.8-3.5c-.7 2.2 0 4.6-2.4 4.5-2.6-.1-1.7-2.7-2.3-4-3.7-1-8.6 1.6-10-4.4 1.6-1.1 3.2-2.2 4.9-3 2.7-1.6 3.4-4.2 3.8-6.9.3-2.2-1.2-3.8-3.6-4.5-2.6-.8-3.1-1.7-3-5-2.8-.3-5.7-1.7-8.6.4-.5.3-1.5 0-2.2 0zM137.4 265.4l-1.9-1c-.3 3.7-.5 7-1 10.3-1 7.3-2.8 14.4-6.2 21-3.5 6.5-7.2 13-11.2 19.3-3.6 5.6-7.7 10.9-11.6 16.2-.7.9-1.3 1.7-2.2 2.3-4.7 3-7.4 7.6-10.1 12.4a30 30 0 0 1-8.7 10 24.9 24.9 0 0 0-4.8 5c-2 2.5-3.8 5.4-5.8 8a171 171 0 0 0-19.5 30.5 159 159 0 0 0-7.5 19.3c-1.3 4.1-2 8.4-1.8 12.8.2 4.2 0 8.5 1.1 12.5 2 7.3 4.7 14.4 7.3 21.5 2.3 6.1 5.5 12 9.6 17 6.1 7.7 12.8 15 20.7 20.8 4.9 3.7 9.9 7.5 15.3 10.3 9 4.6 18.5 7.6 28.6 8.8 5.5.7 11 1.5 16.5 1.5a83.4 83.4 0 0 0 32.4-9 306.5 306.5 0 0 0 33-18.4c2.8-1.7 5.2-4.2 8.1-5.6 6-3 9.7-8.1 13-13.4 3.7-5.8 6.3-12.3 10-18.2a84.9 84.9 0 0 0 11.8-39c.2-10.8 1-21.6.2-32.4-.7-9.5-.7-19-1-28.5l-.5-18c-.2-4.4-.6-8.8-.7-13.1l.2-14.2v-11.6c0-3-.4-6.1-.6-9.2l-.4-7c0-.8-.4-1.9 0-2.6.4-.9 1.3-1.8 2.2-2 1.3-.5 2.7 0 3 1.7a51 51 0 0 1 .3 14c-.2 2 .6 3.3 2.4 3.9 3 1 5 3 7 5.3.8 1 1.6 2.3 2.7 3.2 7.3 6.1 13.4 13.4 19.5 20.7l1.8 1.8a3 3 0 0 0 0-2.3c-4.2-9-5.8-18.5-5.7-28.3 0-4 .5-8 .7-12l.5-13-.2-5.4v-14.6c-1.3-.7-2.7-1.7-4.3-2.4a8.6 8.6 0 0 0-5.3-.4c.2 1.7 1.4 3.5-.6 4.6l.2 1-2.5 1.6 5.5 6.9c2-1.2 3.4-.6 4.5 1 .4 2.2-1.8 3.1-2.3 4.7-.5 1.6-.3 3.5-.4 6-1.9-1-3.2-2-4.8-3l.8 3.3c-1.7-.6-3.1-.7-3.5-1.4-1.7-2.6-4.4-2.6-6.7-2.8-6.1-.6-11.8-2.2-17-5.3l-1.2-.4-2.4 1.6-2.9-2.3 1.5 3.8-2.3 1.2c2.2 3-2 4-2 6.3.5 1.6 2.7 2.9 1.1 4.7-1.4 0-3.2-.5-3.6 0-1.4 1.9-2.3 4-3.7 6.8 1.3-.3 1.8-.6 2.2-.5a8 8 0 0 1 2.3.6c.1 0 0 1.2-.2 1.3-.6.4-1.3.5-2 .5-1.3-.1-2.5-.5-3.7-.7-2.3-.3-3.1.5-3.2 3 0 .8-.3 1.7-.5 2.6h-.8l-2-3.5-.6 4.5-3.5-1-2 2c-2-.9-4-1.7-5.8 0l1.3 4.1c-2.4-1.3-3.8-2.7-5.8-2-.3 0-.7-.3-1-.4-3.9-1.4-7.6-2.8-11.5-4a27.7 27.7 0 0 1-12.5-8A56.2 56.2 0 0 1 171 272c-.6-1.6-1.5-3.3 0-5.4 1.3.3 2.8.5 4.2 1 4.8 1.7 9.2.4 13.4-1.5a5.8 5.8 0 0 0 2.8-3c1.3-4 2.6-7.9 3.4-11.9 2-9.4.3-18.9 0-28.4l-.5-5c-.2-2.1-.3-4.3-.3-6.4l-.7-23.4c-2.3.8-4.2-.3-6.2 1.2-1.5 1.1-4 1-6 1.5-.4.1-.7.7-1 1-2 2.2-6 2.4-7.3-.2-1-1.9-2.9-2-4-3.2-.2-.2-1.1.4-1.9.7 3 2.6 3.3 4.3 1 7-1.1 1.2-.9 2.3-.8 3.6l2.8.6h-.1l.1 2c-1-.2-1.5-.5-2.1-.4-1.3 0-2 1-1.2 2 1 1 2.6 1.9 3 3.1.4 1.2-.5 2.8-1 4.1l-.2.5-2.6.7.6 8.5c.1 1 .8 2.4.4 3-2 3.4 2 6.5 0 9.8l.5 1c1.6 3 1.2 3.5-2.8 4v4.4c-.1 1.1 0 2.4-.6 3.3a11.7 11.7 0 0 0-1.1 6.7c.3 4-2.3 8.4-6 10.2l-8.6 4.4c-1.1-.3-2.6-1-4-1s-2.8 1-4 1.4l-3-2.5zm98.6-127l-6 2.2c-1.5.4-3.2.5-4.7 1-3.6 1.6-7 3.5-10.2 6a21.7 21.7 0 0 0-6.7 7.5c-1.9 3.8-4.5 7.3-5.8 11.3a70.4 70.4 0 0 0-3.1 23c0 5 .4 10 .6 14.9.2 5.4 0 10.8.4 16.2.5 6.7 1.5 13.4 2 20.2.3 4.2.4 8.5-.2 12.6-.9 5.5-4 10.2-6.7 15a5 5 0 0 1-2.3 1.9c-4.1 1.8-8.2 3.6-13 2.8-.4 0-.9.3-1.4.4a17 17 0 0 0 3 8.2c1.3 1.5 2.7 3 3.8 4.7 1.8 2.6 4.2 4.1 6.8 5.6 5.9 3.2 12.1 3.1 18.4 2.9 8-.3 13.8-4.5 18.1-10.8 2.7-4 4.9-8.2 5.3-13.1.2-2.4 1.3-4.7 1.4-7.1.4-6.8.9-13.5 1-20.3 0-9.5.9-19-.8-28.5-.1-.7.3-2.2.7-2.3 1-.2 2.5-.2 3.2.4 1.7 1.5 3.3 3.3 2.6 6-.3 1-.3 2-.3 3 .1 4.4.8 8.8.3 13-.5 4.8.8 9.4.4 14 0 1.7 0 3.4.4 5 1.7 9.5 8.5 14.8 17.7 17 2.4.5 5 .7 8.1 1.2l-2.7-6.7c-.7-2-1.5-4.1-1.7-6.3a984.3 984.3 0 0 1-2.2-41.9 74.5 74.5 0 0 1 2.3-21.7c.3-1.5 1.2-2.5 3-2.5s2.6 1.3 2.7 2.7c.2 2.6.1 5.1.1 7.6v5c.1 6.7.4 13.3-.3 20-.4 4.3 0 8.7.3 13 0 .9.8 1.8 1.5 2.4 1 1 2.4 1.9 3.5 2.9 3.8 3.8 8 6.3 14 4l-.4-3.3c-.7-4.4-1.6-8.6-2.1-13-.6-4.7-.7-9.5-1-14.2-.4-3.7.2-7.1 3.5-9.8l4.2 1.5-.8 6.9a26 26 0 0 0 0 3.8l.7 10.3c0 1.7-.6 3.7 0 5.3 2 5.3 1.5 11 3 16.2.5 1.6-.1 2.5-1.5 3-.7.3-1.5.4-2.3.5-1.9.3-2.9 1-2.5 3.4.4 2.9.3 5.9.4 8.8.1 3.8.4 7.6.2 11.4-.3 5.5-2.2 10.9-.4 16.4v.8c-.8 4.7-.5 9.3-.2 14a38 38 0 0 0 3.8 15.8c2.6 5 5.7 9.4 10.4 12.4s9.6 5.6 15 7.5c4.6 1.5 8 0 12.3-1.4l-1.3-2a20 20 0 0 1-4.6-8.3c-.8-3-1.7-5.9-2.4-8.9-1.2-4.6-2.7-9.1-3.4-13.8-1.5-10.5-2.3-21-2-31.6.1-9 .6-18.2 1-27.3.1-2.6.5-5.1.9-7.7.4-2 2-3 4-2.5 2.1.4 2.6 1.5 2 4-.3 1.1-.3 2.3-.3 3.4 0 2 .2 4.1-.1 6.1-.4 3-.9 6-1 9-.4 5.6-.6 11-.2 16.5.5 6.7.6 13.3 1.2 20 .4 6.2 1.4 12.4 1.8 18.6.2 4.4 2.3 8.2 3.8 12 1.6 4.2 2.7 8.9 7.4 11.3 2.2 1.1 1.7 3.2-.8 4-3 1.2-6 2-9 3.1-1 .4-1.8 1-3 1.9.8 2 1.4 4.2 2.5 6 1.4 2.4 3.1 4.7 4.8 7 3 4.2 6.7 7.4 12.2 7.7 1.3 0 2.6.4 3.8.7 6.5 2 13.2 2 19.9 1.7 1.1 0 2.3-.7 3.5-1.1l-.5-1.9c-2-6-4.2-11.9-6-18a49 49 0 0 1-1.7-16.3c.4-8 .3-16 .5-24A634 634 0 0 1 367 276c0-.5 0-1.1.2-1.5.5-1 1.2-2.5 2-2.6 1 0 2.2.9 3 1.7a4 4 0 0 1 1 2.8c-.8 8.3-1.2 16.6-1.2 24.9 0 4.3-.8 8.7-1.1 13-.3 3.7-.8 7.4-.6 11 .3 7.6 1 15 1.6 22.6.6 7.2 1.8 14.2 3.7 21.2.8 3 1.7 5.3 4.7 6.8 2.1 1 2.2 2.4 1 4.5-1 1.5-2 2.5-4 2.6-2.6.3-5.2 1-8.8 1.7 3.4 6 1.6 11.7-.1 17.5 1 .3 1.6.5 2.1.5a32.6 32.6 0 0 0 24.1-10.2c3.3-3.1 4.5-7.4 5.6-11.6 3.1-11 2.9-22.1 2.1-33.3l-.2-5.8v-8.9c-.5-9-1.4-18-.3-27l1.6-13c1.2-6.8 2.3-13.6 4-20.3.7-3.2 1.5-6.2 1.6-9.5l.2-35-.1-2.3c-.6-3.7-1-7.5-1.8-11-1-4-1.9-7.9-3.7-11.4-2.7-5-4.2-10-3.3-15.8V185c-.1-.9-.3-1.8-.6-2.6l-3.2-7c-1-1.9-1.6-4-4.5-5l-1.2 1.9a9 9 0 0 1-7.2 3.9c-.5 0-1 0-1.5.2-4.1 2-7.8.7-11.3-1.5a128 128 0 0 1-9.6-6.4c-5.6-4.2-11.2-8.5-16.6-13-3-2.6-6.3-4.7-10-6.2-3.6-1.4-7-3.2-10.3-5.3a29.4 29.4 0 0 1-5.9-5.5c-1.3-1.5-1.5-3.4 0-5.2a16 16 0 0 0 2-3.8c1.3-3.4 2-8.2-2.6-11.2-1.2-.8-2.2-1.9-3.4-2.7-.6-.4-1.5-.5-3-1 .8 4.3-.7 7.2-3.6 9.6-.4.4-.5 1.2-.8 1.7-1.2 2.7-2.2 3.4-5.2 2.7-3-.7-5.9-1.7-8.6-3.2-5.4-3-10.6-6.3-16-9.4-5.7-3.3-12-5.5-17.4-9.5a38 38 0 0 0-18.9-6.2c-7.5-.7-15-1.2-22.6-1.3-6.3 0-12.7.4-18.6 2.7-2.2.8-4.1 2-6.2 2.9-2 1-4 1.6-5.9 2.7-2.4 1.4-4.7 3-6.9 4.9-1.8 1.5-3.2 3.5-5.1 5.6 4.2 2.9 8 5.6 11.9 8 7.3 4.3 14.8 8.4 21.2 14.1 1.3 1 2.8 2.1 5 1.2 4-1.8 8-3.4 12.1-4.8 3.4-1.2 6.7-1 10.2 2.1zM384.7 160l1-.6c1.3.5 2.8 1 4 1.7a41 41 0 0 1 17 21.2c1.2 2.9 1.6 5.8 1.3 9-.4 3.4-.1 7 1.5 10.1 4 7.6 6.1 15.7 5.4 24.3-.2 2.4-1 4.8.8 7 .3.6 0 1.6 0 2.3l.3 3.8c.2 4.7 1.7 9.4.7 14.2-.4 2-.2 4-.2 6 .2 5.5-.7 10.8-1.9 16-1 4.8-3.2 9.4-2.5 14.5.1.9-.2 1.8-.3 2.7-.3 4.2-.4 8.4-1 12.6-.8 4.6 0 9.6-3 13.7-.3.5-.2 1.3-.2 1.9v16.8c0 3.1.2 6.2.4 9.2.3 3.5.8 6.9.9 10.3 0 3.5-.8 7-.4 10.4.7 5.7-.6 11.1-1.3 16.6-1 6.4-2.7 12.6-3.4 18.9-.8 7.1-1.3 14.1-3.9 21-1.7 4.5-3.1 8.9-5.7 12.9-3.2 4.8-7 9-12.8 10.4-3.9.9-7.8 1.5-11.7 2A17.9 17.9 0 0 1 357 443c-6.7-7.8-11.4-16.2-11-27 .2-4-.4-8-1.1-11.9-1.3-7-6-12.1-10.7-17-8.2-8.7-16.6-17-25-25.5-1.2-1.3-2.6-2.3-4.3-3.7l1.5 22.3c.4 7.5 1.2 15 1.2 22.6 0 15.4.2 30.8 1 46.1.2 5.7-.4 11.3-.3 17 .2 7.3.7 14.6 1.1 21.9.1 2.1.6 4.3.7 6.5a136 136 0 0 0 4 30.1c1 4.1 2.2 8.4 4.5 11.8 6.4 9.8 15.3 17 26 21.7a80.3 80.3 0 0 0 24 7c6.9.7 13.8 1.7 20.7.5 6-1 11.9-2.2 17.7-3.6 5.9-1.4 12-2.4 17.2-5.6 5.6-3.4 11-7 16.7-10.4a44.1 44.1 0 0 0 14.5-16A216 216 0 0 0 462 518c2.7-5 5.7-10 6.7-15.6.8-4.6 1.3-9.4 1.4-14.1.3-8 .2-16 .2-24 0-7 1-14.1-1.3-21-.2-.6-.1-1.3-.2-2l-1.8-33v-4V381 377c-.5-7.8-.7-15.7-1.4-23.5-.8-8.7-2-17.3-3-26-.7-6.4-1-12.8-1.8-19.2-2.1-16.5-2-33.1-1.8-49.7.1-10.7 1.7-21.3 1-32-.3-5.7-.5-11.5-1-17.3-.4-6.3-1.2-12.5-1.5-18.8-.5-9.4-.7-18.7-1.1-28.1 0-2.5-.1-5-.5-7.3-.4-2.9-1.5-3.8-4.3-4-5.4-.2-10.8-.6-16.2-.6h-29.6c-6.8 0-13.6.3-20.4.2-9.5 0-19-.3-28.4-.4-3 0-6 .2-9.3.4.5.9.6 1.3.9 1.5 5.2 4 10.3 8.1 15.7 11.8a29 29 0 0 0 15.6 6c2.1 0 3.8-.2 5-1.9 1.3-1.6 1.9-3.3.4-5.3-.5-.6-.4-1.8-.6-2.7zm-264.2-49.6c.1-4.7 3.3-9.3 6.8-9.4-.2 4.2-2.2 7.7-4.4 11-.7 1.2-1.4 2.5-2.5 3.1a7.7 7.7 0 0 0-3.9 5.9c6.9 7.4 14 15 21.2 23 1.4-1 2.9-1.8 3.9-2.8 1.5-1.7 3.7-3.5 4-5.5.3-2.4 1.2-4 2.5-5.8 2-2.8 4.4-5.4 6.9-8.3 1.1.3 2.2 1 1.6 2.6-.6 1.5-1.2 3.2-2.4 4.3-3 2.8-4.5 6.5-6 10-.6 1-1.2 2.5-2 2.8-3.3 1-3.9 4.3-6.1 6.2l12.1 12.8c1 1 2.2.4 3.1-.2 2.4-1.6 4.1-3.9 5.6-6.3 1.5-2.6 3.2-5 5-7.3.4-.5 1.7-.9 2.3-.7 1.1.5 1.2 1.6.5 2.6l-.3.7c-2.2 3.1-4.3 6.4-6.7 9.3-1.7 2.2-4 4-6.1 6 1 1.4 2 2.9 3.2 4.1 2 2.2 4.2 4.2 6.3 6.3.7.7 1.8 1.5 1.9 2.4.3 3.3 2.8 4.7 5.2 6.1 5.5 3.4 8.5 3 13.4-1.4 2.4-2.1 4.2-5.4 8.3-4.7a68.7 68.7 0 0 1 13-31.1c-1.1-1.3-2.1-2.7-3.4-3.6-4.2-3.2-8.3-6.5-12.8-9.3-13.7-8.7-27.5-17.1-41.3-25.7-3.3-2-4.5-1.3-5.6 2.6-.6 2.3-1.2 5-2.8 6.5-2.7 2.8-4.7 6.1-7.4 8.9-1.7 1.7-3.1 1.6-5-.8 7.2-5.1 10.3-13 14-20.7-2.3-1.4-4.5-3-6.9-4.2-1.3-.7-2.9-1.6-4.3-1.5-3.7.2-6.6-1.6-9.7-3l-7.7-3.7c-1-.6-2.1-1.1-3.5 0-1.3 1-2.5.4-2.9-1.5-.1-.6-.6-1.4-1-1.6L83.2 78.3c-.3-.2-.7 0-1.6.2.2 1 0 2.2.5 2.8 3 3.4 6.3 6.8 9.4 10.1l3.7 4 15.6 18.5c2 2.3 2.6 2.2 5 .2l4.6-3.6zm2.7 129.4c-1 1.8-.5 3.4.5 4.8l7 9.1c3.9 5.2 9.4 6.7 15.5 6.8 5.6 0 7.5-1.1 9.4-6a68.3 68.3 0 0 0 4.9-20.1c.5-9.1.6-18.2.8-27.3 0-1.7-.4-3.3-.6-5-.2-1.5-.5-3-.3-4.5.4-3.6 1.3-7 1.5-10.7.3-6.9-2.6-12.4-8.7-15.8-3.1-1.8-5.7-3.9-7.5-7-1-1.7-2.6-3-4.4-5-.6 2.3-1.3 3.8-1.3 5.2-.1 2.7 0 5.4.3 8.1l1.6 14.6 3.8 26.3c.7 5.2 1.5 10.4 1.8 15.7a12 12 0 0 1-5.3 10.5c-4 2.7-9 4-14 2.5-1.7-.5-3.3-1.4-5-2.2zm135.3-139.5c2.3-3 5.2-4.8 8.4-6 5.7-2.4 10.8-5.3 13.6-11.2a274 274 0 0 1 5.4-11.1 17 17 0 0 0 1.7-9.8c-.3-2.7-.8-5.6-1.7-8.2-1.4-4.1-3.2-8.2-7.9-10-.6.6-1.4 1.2-1.8 2-.7 1.4-1.2 3-1.9 4.5l-7.9 16.6-3 5.8a120 120 0 0 0-5 14.8c-1 3.6-3.3 6.9-5.2 10.6l5.3 2zM370.9 136h31.7c-4.5-11.7-8.9-22.7-13-33.9-1.3-3.3-3.8-4.9-7-6.9-4.1 13.8-9.2 26.8-11.7 40.8zM205.3 94.3l-3.8-23.8c-.3-2.1-.2-4.3-.4-6.5-.2-3.4-.2-7-.8-10.3-.6-3.6-2.6-4-5.3-1.5-2.9 2.7-4.3 6.3-5.2 10-.7 2.9-1 5.8-1.6 8.7-1.6 9.6 1 17.8 8.7 24 .5.4 1.2.7 1.7.7l6.7-1.3zm96 250.8l-.6.7c.7 1 1.1 2.3 2 3.2 3.8 4 7.8 7.8 11.6 11.7 1.2 1.3 2.4 1.7 4 1.3l4.5-1.2-3.3-5.5c-1 2.3-2.5 2.8-4.2 1.6-2.2-1.6.6-2.8.7-4.7-1.8-.6-3.7-1.3-5.6-1.8-2.2-.5-4.3-.8-5.7-3.2-.6-1-2.2-1.4-3.4-2zM192.7 187c1.2-2 1.2-3.3.2-5.4-1 2-1.8 3.4-.2 5.4zm78.5 66.5l1.1-1.3c-.3-.2-.7-.8-1-.7-.3 0-.7.5-.9.9 0 .2.4.6.8 1.1zm88.1-177.1c.3 0 .5.2.8.3l.6-1.5-.6-.2-.8 1.4z"/>
  <path d="M138.6 406.6c2-1.5 3.4-2.9 5.1-3.9 1.2-.8 2.7-1.7 4-1.7 2.4 0 4.6.8 6.9 1.2 3.2.7 4.8 3 5.3 5.9 1.3 6.8 2.4 13.8.8 20.6-2.1 9.3-1.7 18.6-1.4 28 0 1.6.4 3.2.8 4.8 1.4 6 .4 11.8 0 17.6-.5 4.7-3 8.5-6.1 11.8-2.3 2.3-5.4 2-8.3.6-3.3-1.5-5-4.5-6.8-7.6a42 42 0 0 1-4.4-20.5c0-11.4.5-22.8.7-34.3 0-7.9 1.8-15.5 3.4-22.5zm12.6 80.9l-.8-.7-1.4-.7c-4.7-1.4-5.6-2.5-5.4-7.3 0-4 .4-8 .6-12.1.1-1.5 0-2.9.2-4.3.6-5-.4-10 .1-14.9.5-4.4.4-8.7.3-13-.1-3.1.1-6.2.4-9.3.4-3.3 1-6.6 1.3-9.9.2-3 1-5.8 3.1-8 .9-.9 1.4-1.8.4-3.3a12 12 0 0 0-8.2 7.7c-1 2.7-1.8 5.7-2 8.6-.6 9.3-1 18.7-1.3 28-.1 1.6.3 3.1.2 4.7-.8 9.2-.3 18.3 2.6 27.2 1 3.3 3 6 5.5 8.2 1.9 1.6 2.2 1.5 4.4-.9zm-.7-17c-.2 3.8 0 4 3.9 4.6l-4-4.6zm1-11c-1.8 2.2-1.6 2.6 2.7 5.3l-2.6-5.4zm4.3-38.6l1-.2-.6-2-.7.2.3 2zM68.7 450.7c.8-8.9 1.3-17.6 2.3-26.3.8-6 2.4-12 3.6-18 .4-1.8 3.2-3.8 5-3.5 2.3.5 4.7.9 6.6 2 1.3.8 2.7 2.7 2.8 4.3.2 3.4 1 7-.6 10.5-.7 1.5-.3 3.5-.3 5.2l-.3 30c0 3.3 0 6.5-1.2 9.8-.8 2.5-2.2 4.3-4 5.8-2.5 2-6.6 1.4-8.6-1.3a17.7 17.7 0 0 1-2.8-5.8c-1.1-4.2-1.7-8.5-2.5-12.7zm15.2-43.4c-4-1-4.6-.7-5.2 2-.2 1-.3 2.1-.7 3-3 7.2-4.2 14.7-4.3 22.5 0 3.2-.3 6.4-.4 9.6-.2 3.6-.8 7.2-.5 10.7.4 3.6 1.6 7.3 2.7 10.8.7 2.3 2 2.7 4.9 1.4-1.2-.8-2.3-1.3-3-2.2a8.6 8.6 0 0 1-1.8-4c-.2-4-.4-7.8.2-11.6 1.5-8.5 1.6-17 2.2-25.6 0-1 0-2.2.5-3 1-1.4.8-2.8.7-4.4-.3-3 0-5.8 3.1-7.5.5-.3.9-.9 1.6-1.7zM226.8 388c2.2 1.2 5 2 4.4 5.8 4 1.1 5.6 4.2 6.6 7.7.2.6-.3 1.3-.5 2-.6-.3-1.5-.4-1.9-.9-.8-1-1.3-2.5-2-3.6l-6.7-9.3-.6-1.2.7-.5zM147 332.6c1.3 0 2.7-.1 3.9.3 1.8.5 3.5 1.5 5.7 2.5-.5.5-1 1.4-1.5 1.3-2 0-4 .4-5.6-1.6-.6-.8-1.8-1.2-2.7-1.8l.2-.7zM244.2 431.9c-2-2.1-2.6-6.7-1.1-9 1.9 2 2.4 6.6 1 9zM196.8 349.3c4.2.2 6.8 3 6.6 6.8-3.3-1.2-3.8-4.8-6.6-6.8zM215.6 370.2c3.3 1 5 3.3 6.8 5.6.2.3 0 1.3-.3 1.4-.5.2-1.5.2-1.7 0-1.7-2.3-3.2-4.7-4.8-7zM115.7 339.5l8.2-2.9c1.2.8 1 2 .1 2.4-2 .9-4.2 1.3-6.4 1.8-.3 0-.9-.6-1.9-1.3zM179.6 193.7c1.6.2 2.9.2 4 .5.7.2 1.1 1 1.6 1.4-.7.6-1.3 1.8-2 1.8-2 .1-3.2-1.2-3.6-3.7zM170.5 339.3c-5 .9-5 .9-7-2.6 4.6.2 5.7.6 7 2.6zM184.5 343.4c2.3-.2 4.7-.5 6 2.6a9 9 0 0 1-6-2.6zM247 271l5.1 4.8c-3.8.2-5-.8-5.2-4.7zM107.3 338.4l5.3-.6c.4 2.2-1.4 2.1-3 3.6l-2.3-3zM239 291.9c-2.5-1.2-2.7-2.7-2.3-4.8 2.7.7 2.6 2.4 2.2 4.8zM246.6 439.4c-3-.3-3.2-.7-1.8-3.2 1.6.5 1.8 1.8 1.8 3.2zM127.7 337.3c.8-1.1 1.4-2.4 3-1.4.2.2 0 1.5-.3 2-1 1.3-1.8.4-2.7-.6zM103.6 342c-2 1.3-2 1.3-4.1-.6l4-.3.1.9zM282.3 261.4c-.7.7-1.2 1.6-1.6 1.5-.6 0-1.5-.8-1.5-1.3s.7-1.3 1.3-1.5c.3-.1 1 .7 1.8 1.3zM168.5 216.4l-1.5-2.6 2.2-.4.3 3h-1zM203 304.8l-1.1 3c-.7-.5-1.4-.8-1.6-1.2-.4-1.8.8-1.7 2.7-1.8zM144.5 269.3c1.5.9 2.2 1.2 2.7 1.7.2.4-.1 1.1-.2 1.7-.5-.2-1.3-.1-1.5-.5-.4-.5-.5-1.3-1-3zM279.7 258.2c-2 .5-2.7-.1-2.6-1.5 0-.3.5-.5.7-.7l2 2.2zM240.5 415.4c-.6-.8-1-1.3-1.3-2 0 0 .7-.9.9-.8.6.3 1.1.8 1.7 1.2l-1.3 1.6zM273.9 259.5l3 4c-3-.5-3-.5-3-4zM236.8 295.3l1.2 2.5-.5.4-2-2.1 1.3-.8zM157.1 264.5c2.3-.4 2.4.4 1.8 2.4l-1.8-2.4zM165.4 240.6c2.2-.2 2.4.7 2.3 2.5-.7-.3-1.3-.4-1.5-.7-.4-.4-.5-1-.8-1.8zM170 200c-1.1-.5-2.4-1-1.7-2.7 2.8-.2 1.5 1.6 1.6 2.8zM170.1 224c-.6.5-1 1-1.2 1-.4 0-.8-.5-1.1-.8.2-.3.5-.8.8-.9.4 0 .8.3 1.5.7zM137.3 265.3l.3 1.9-1.3-.3 1-1.5v-.1zM351.4 465.4c-1.9 3.2-1.7 6.6-1.7 9.7 0 3.2-1 6.7 1 9.2-1.6 5-3 9.4-4.3 14-.6 1.7-1 3.4-1.8 5-1.4 3.3-4.5 4.7-7.5 3.6a6.4 6.4 0 0 1-3.8-7.5c.6-2.3 2-4.4 3-6.5 4.1 1.5 4.4 2.1 3.1 5.6-.3.8-.5 1.8-.3 2.8 2.4-3.9 3.2-8.3 4.6-13.2l-2.4 1c-1.5.6-2.6 0-3.1-1.3s-.3-2.6 1.2-3.2l5-2c0-1.7 0-3.5.2-5.2.2-3.9.4-7.7.8-11.6.4-3 2.6-4.7 5-6 1.4-.7 2.7.3 3.7 1.4 2.1 2.7 2.6 5.9 2.6 9.1 0 1.8-.4 3.6-1 5.3-.2.6-1.2 1.2-2 1.3-.3 0-1.3-1-1.3-1.5-.1-1.6 0-3.3.2-5 .3-1.6.4-3.2-1.2-5zM399.8 515.1c3.2-1.7 5.9-3 8.5-4.5.5-.3.8-1 1-1.6l.2-2.3c.2-1.3.6-2.6 2.3-2.5 1.4 0 2.5 1.8 2.3 3.5l-.8 5.2 3.3-1c4.6-1 8.7 3.4 7 7.8-1 2.4-1.2 4.7-1 7.1 0 .4.2.9 0 1.2-.3.8-.7 2-1.4 2.3-1.4.6-2.2-.7-2.3-1.8-.4-2.3-.6-4.6-.6-6.9 0-1.4.3-2.8.5-4.6a9.8 9.8 0 0 0-5 5.7c-1 2.2-1.5 4.6-2.2 6.8-2 .5-2.9-.5-3.2-2-.3-1.8-.3-3.6-.3-5.4 0-1.5.2-3 .4-5-1.1.3-2 .2-2.7.7-3 2.5-6.4 4.8-5.5 9.7.3 1.3 0 2.7 0 4-2.2.7-3-.5-3.3-1.9-.4-1-.4-2.3-.5-3.4l-.8-12V510c3.9-.3 3.9 2.4 4.1 5.1zM379.6 528.3l-3.3 2.6c-2.5 1.7-5 1-6.2-1.9-1.6-4-1.3-8.1 0-12 1-2.7 2.5-5 3.7-7.5 4 1.3 4.7 2.8 3.9 8-1.2.7-3 1-3.4 2-.9 1.6-.9 3.6-1.3 6 4-1.3 7.1-2.3 8.3-6.5.6-2 2.1-4 3.5-5.9 1-1.4 2.6-1.6 4.1-.5 5.4 3.6 8.9 10.3 3.3 16.7-1.9 2.1-4.3 2.9-6.9 1.8-1.8-.7-3.4-1.6-5.7-2.8zm7.9-2.6c4.2-3.4 4.4-5.7 1-9.4l-2.6 1.8c4 2 .3 5 1.6 7.6zM394 481.2l3.7-4.3c1-1.2 1.9-2.5 3-3.6 1-1 2.6-1.2 3.8-.2 1.2 1 1 2.4.3 3.5-1.8 2.7-3.8 5.2-5.7 7.7l-2.2 2.6c1.1 2.7 3.6 3.5 5.5 4.9 1 .8 2 1.8 3 2.9.2.3.2 1.3 0 1.7-.4.4-1.2.6-1.7.5-.9-.2-1.6-.8-2.4-1.2l-7.2-3.4.8 5.4c.3 2.2.7 4.3.9 6.5 0 .7-.7 1.9-1.3 2-.7.2-1.7-.4-2.3-1-.5-.6-.7-1.6-1-2.4-.9-4.1-.7-8.4-2.2-12.5-.5-1.5.5-3.5.4-5.2-.2-5.4-.6-10.8-1-16.2l-.1-3.8c2.6.2 3.5.9 4 3.2.4 1.9.4 3.9.6 5.8l1.1 7.1zM439.1 506c-.6.1-1 .4-1.5.4-2.2-.1-4 .6-4.6 2.7-.6 2.4-1 4.7 1 6.9 1.7 1.9 3.3 4 4.5 6.2 3 5.5 1 9-3.2 13.3-.5.6-2 .6-2.8.4-4.4-1.7-6.9-5.2-8-9.6-.2-.5 0-1.6.4-1.7.6-.2 1.7-.2 2 .2 1.1 1.2 2 2.6 3 3.9.6.8 1.5 2.2 2.2 2.2.8 0 1.8-1.2 2.4-2.1 1.5-2.4 1.5-4.9-.6-7l-3-3.5c-3.6-3.4-3.5-7.7-2.3-11.8 1.2-4.1 7.7-5.3 10.1-2.1.3.3.3 1 .4 1.5zM344 530.7c.3 3.4-.5 4.3-3 3.2-2.2-.9-4-2.4-6.4-4l-1.6 2.4c-.8 1.4-1.8 1.6-3.2 1a5.3 5.3 0 0 1-3.2-3 43.4 43.4 0 0 1-2.3-14c3 .4 3.5.7 4 3.2.5 2.2.7 4.4 1.2 7.6.6-1.4 1-1.9 1-2.4l1-4.1c.4-1.3.5-3.1 2.2-3.3 2-.1 2.5 1.6 3.1 3 .5 1 .9 2.1 1 3.3.7 3.7 2.2 6.5 6.2 7zM357.4 479c3.3 1.2 3.6 1.6 3.2 4-.3 1.4-.4 2.7-.6 4.4 2.1-.5 2.3-1.9 2.4-3.3 0-1.3-.2-2.5-.1-3.8.1-1.5.7-2.8 2.4-3 1.3-.2 3 1.3 3 3 .1 2.4.2 4.8 0 7.2-.3 2.7-.6 5.2 2.4 6.6.5.2.8 1.4.5 2-.2.5-1.2 1.2-1.6 1.1-1.3-.3-2.7-.9-3.8-1.6-.9-.7-1.5-1.7-2.3-2.8-.6.5-1 .9-1.6 1.2-2.5 1-4 .5-4.8-2-1.1-4.4-.8-8.6 1-13zM384.5 486.5c2.5.6 2.8 2 2.1 4-1.1 3-6.5 5.5-9.5 4.6-2.6-.9-5-4.2-4.8-7.7a23 23 0 0 1 6-14c4.3 1.8 4.9 3.8 3.3 10-.9 0-1.8 0-3-.2-1 2-2 4-1 6.6 2.8 0 4.7-2 7-3.3zM352.9 524.2l-3.6 4.9c-1.4 2-2.7 2-4-.2-.2-.5-.5-1-.5-1.4l-2-14c2.9-.7 3-.7 4 2l1.8 5.1c1.3-1.2 2.2-2.2 3.2-3 2.2-2 4-1.5 5 1.2.4.9.6 2 .9 3l2 7.3.3 2.9c-3.2 0-4-.5-4.7-3l-1.4-4.7h-1zM361.8 520.2c1.6-.9 2.7-.4 3.2.7a18.8 18.8 0 0 1 1.6 9.7c0 .7-.6 1.5-1 2.2-.7-.4-1.9-.6-2.1-1.2-.8-1.9-1.4-3.9-1.6-5.9-.3-1.8 0-3.8 0-5.5zM362.1 505.8c3.4.1 3.9.8 3.2 4.1-3-.3-3-.3-3.2-4.1zM173.3 133.6l2.6 2-3.5 6.2c-2.9-2.2-2.7-3.6.9-8.2zM105.3 98.4c-.8-.9-1.8-1.6-1.7-1.8.5-1 1.2-1.7 1.9-2.5.6.6 1.6 1.3 1.5 1.9 0 .7-1 1.4-1.7 2.4zM340.7 382.8c2 1 4.5-.4 6.3 1.6.1 1.3.1 3-1.5 3-1.4 0-2.9-.9-4-1.7-.6-.5-.6-2-.8-2.9zM355.2 386.7c3.6.6 2.1 3.6 2.8 5.6-1 1-2 1.4-3 .4-1.5-1.5-1.4-3.2.2-6zM376.7 412.6l3.6-4c.5.4 1.3.9 1.4 1.4.3 1.8-1.2 4-2.4 3.7-.8-.1-1.4-.6-2.6-1zM314.5 353.7c-1 .8-1.6 1.6-2.3 1.8-1.2.4-1.9-.5-2-1.7-.2-1.2.4-2.1 1.6-2 .8.2 1.5 1 2.7 1.9z"/>
</svg>
