<svg xmlns="http://www.w3.org/2000/svg" viewBox="0 0 595.3 338">
  <title>Illustration d'interface responsive</title>
  <path d="M546.8 298.2c1.4 0 2.8.1 4.1.3 4.2.8 8.5 1.3 12.6 2.5 2.8.7 5.5 2.2 7.4 4.6 2 2.7 1.7 8.5-.8 10.9-.2.2-.6.3-.7.5-.8 2.2-2.6 2.2-4.4 2.3-2.7 0-5.2.4-7.8 1.3-1.6.6-3.4.8-5 .8h-11.8l-2.7-.2h-4.3l-8 .2c-2.6 0-5.3.3-8 .2-4.6 0-9.1-.3-13.6-.5h-6.6l-6.8-.2-16.5-1-23.7-1.6c-7.2-.6-14.4-1.2-21.6-1-3.4.1-6.7-.1-10-.2l-14.7-.7c-5.2-.2-10.4-.2-15.6-.6-2.8-.2-5.5-.2-8.3 0l-4.5-.3c-5.1-.2-10.3-.2-15.4-.6-4-.3-8 0-12 .2l-5.3-.3c-2.7-.1-5.4-.8-8.1 0l-1.4-.2c-1.7-.3-3.4-.5-5.1 0h-3c-6-.1-12-.5-18-.5-5.8 0-11.5.3-17.2.4-.9 0-1.8 0-2.5-.2-2.1-.7-4.2-.3-6.3-.2l-11.2.7c-.8 0-1.7 0-2.2-.3-1.4-.8-2.7-.6-4.2-.5-2.5.2-5.1.3-7.7.2l-21.9-1.4H231c-3.2.7-6.5.7-9.7.3-4.2-.5-8.4-.3-12.6 0-2 .3-4.3 0-5.6-1.3-2.6-2.6-6-4.5-7.5-8L194 299c-.4-1.4 1-4.5 2.2-5.3.2-.1.5-.2.6-.4 1.6-2.6 4.2-2.8 6.9-3.2l3.5-.4.3-1c0-3.8.3-7.7-.2-11.6-.2-1.9 0-3.8 0-5.7l-.2-10.1c0-4.7.2-9.4.3-14l.1-8.3c.2-3 .7-6 1-9v-2c0-1.4 0-2.8-.2-4.2-.4-5.1.9-10 1.5-15l.4-3.9.8-11 .5-9 .7-14.7.7-17.6c.2-5.6.6-11.2 1-16.7.3-3.7.8-7.3 1-11 .5-5.5.7-11 1-16.5l.9-7c1.3-6.8 1.5-13.7 1.4-20.7 0-5.2-.2-10.5-.1-15.8 0-2.2.7-4.3.8-6.5.1-3.4.7-6.7 1-10 .2-5.4 2.7-9.3 7-12.2 3-2 6.3-3.7 9.7-4.9l4.4-1.6c.4-.2.9-.4 1.3-.4 3.7.1 7.2-1.5 11-1.3 1.7.1 3.6-.8 5.5-1l19.9-2.1 18.1-2.4 3.4-.3h.6c1.4 2 3.3.7 5 .9.5 0 1.4.1 1.5-.1 1.1-1.6 2.7-1.2 4.2-1.4a89 89 0 0 1 5.2-.2h7.4l12.6-.4 10.9-.5h21l21 .5 24.7.4c2.5 0 4.9.3 7.3.4h17.7l13.1.8c3.3.2 6.5.2 9.7.5a2861.2 2861.2 0 0 1 36.9 3.2c1.4.2 2.7.8 4.2 1 3 .5 6.2 1 9.4 1.2 2.4.3 4.8.5 6.9 1.9l1.2.6c5.1 1.2 8.3 5.3 12.1 8.4 1.7 1.4 2.7 3.4 3.3 5.6.9 3 2 5.8 2.7 8.8.6 2.5.7 5 1 7.6.5 8 0 16-.3 24a96 96 0 0 0 .2 10.9c.4 7 1 14 1.6 21l.5 4.2c.4 4.8.6 9.6.9 14.5l.1 5.6.3 12-.2 3.5.2 16.3.1 12.5c.2 5.3.3 10.7.6 16l1.5 25.8c.2 4.4 0 8.7.1 13.1l.8 18-.1 7.3.1 4.5.3 14.5c0 3.5 0 7 .2 10.6 0 .7 0 1.5.2 2.5zm-9.7-1.3l.2-2.4-.2-16.1V260l-.5-13.8c0-5.5.2-11 0-16.5l-1.4-29.4c-.3-6.9-.6-13.7-.6-20.6-.2-10.7-.1-21.4-.1-32.1 0-9.8.1-19.5-.7-29.2l-1.2-16.2a141 141 0 0 1-.4-24.9 99 99 0 0 0-1-24.6c-.5-3-1.4-6-4.6-7.5-1-.5-1.7-1.5-2.6-2.2-.5-.4-.9-.9-1.4-1-4.2-1.9-8.4-3.8-13.1-4.1-2.2-.2-4.5-.7-6.7-1l-11-2-3.4-.4-16.9-1.2-20-1.5c-6.3-.4-12.6-.6-18.8-.7-6.7-.2-13.5-.2-20.2-.3-7.6 0-15.2-.2-22.8-.4l-21.4-.6h-25c-8 .2-15.9.8-23.9.7-9.6-.2-19 1-28.6 2l-1.3.1-9.7 1.4c-5 .5-10.2.8-15.3 1.4L249 37.8c-6.1.9-12 2.6-17 6.1-2 1.4-3.5 3-4 5.4a117 117 0 0 0-1 8.2c-.3 3.5-.3 7-.8 10.5-.7 4.3 0 8.5-.1 12.7-.1 1.6.3 3.2.3 4.8 0 2-.2 4-.3 5.9 0 1.4 0 2.8-.2 4.3l-1.6 13c-.1 1.3 0 2.7-.2 4l-.8 10.1c-.1 1.7 0 3.5-.2 5.1-1 5.4-1.2 10.8-1.6 16.2l-.3 7.2-1 12-.6 11.7-.5 14.4-.5 7.7-1 9a506.4 506.4 0 0 0-1.7 23.2l-.4 9.4c-.2 4.5-1 9-.7 13.5.3 5-.1 9.8-.2 14.7v13c0 2.7.2 5.3-.5 7.9-.4 1.2.4 2 1.8 2.2l3.6.2 16.7-.5h19.5c.8 0 1.6-.3 2.5-.3l10.6-.2 4.3.2c12.6-.5 25.2-.5 37.8.2l11.8.3 15.4.3 22.6.7 27.4.7 28.1.7 20.1.7c7.3.3 14.5.8 21.7 1 7.6.4 15.1.6 22.7.8h1.3c2.7 0 5.4-.2 8.2-.1l7 .3 25.3.8c4.1.2 8.3.8 12.4 1.1h2.3zM202.5 300c1.7 2.2 3.2 3.7 6 3.5 2.4-.2 5 0 7.4.1 2.1.1 4.2.6 6.3.6 3.8 0 7.6-.4 11.5-.5 2.8 0 5.7 0 8.6.2 4.4.4 8.8.7 13.3.6 3-.1 6 0 9 .5 3 .6 6 .5 9 .4l10.4-.5 5.4.2c4.8-.2 9.5-.8 14.2-.3 2.5.3 5-.1 7.5 0l19.7.5h6.5l7-.2c5.2 0 10.4-.2 15.6 0 4.6 0 9.2 0 13.7.6 3.1.4 6 .3 9 .1 1.8-.1 3.7-.4 5.2.2 2.8 1 5.5.7 8.2.4 2.3-.3 4.5-.3 6.8 0 .7.2 1.5.3 2.2.3h7.7c5.6 0 11.2-.3 16.8.4 1.4.2 3 .2 4.4.2 2.8 0 5.6-.4 8.4-.2 4.4.2 8.7.8 13 1.1l17 1.4c4.6.4 9.3.5 14 .8l9.7.4 16.5.4c3.4.1 6.9.5 10.3 0 2.7-.5 5.5-.4 8.2-.4l6 .3 5.5.5h8c3.4 0 6.4-1 9.7-1.8-2.3-.6-4.5-1.1-6.8-1.5l-3.6-.4-13.3-1.5-9.5-.8c-1.4-.1-2.8-.6-4.2-.6-3.5-.1-7 0-10.6-.2l-28-.8c-2.7 0-5.3-.2-8-.3l-8.1-.2-2.5-.1h-8.3l-9.7-.5-14.3-.6c-5.2-.3-10.4-.6-15.5-.7l-18.6-.3c-6-.1-11.9-.4-17.8-.6h-4.1c-3.6-.3-7.2-.6-10.8-.7-4-.2-8-.1-12-.2-2.2 0-4.4-.3-6.6-.4l-16.2-.5-2.8-.2h-15L302 298c-3.4-.1-6.8-.3-10.2-.2l-13.5.3-4.3.1-10.7.2-16.4.2h-.3c-2.3-1-4.7 0-7-.2-2.8-.2-5.6 0-8.4 0l-11 .3c-1.9 0-3.7.4-5.5 0-3.3-.6-6.6-.1-9.9.3-.7 0-1.4.5-2.4 1zM334.6 22zm-13.8.7l-1.9-.2 1.9.2zm74.3-.1l-1-.1h1zm-7.2-.1h-.7.7zm-21.5-.4l-.1-.3h-.8l.9.3zM24.8 290.4l1-7.2c.3-3.4 1-6.7.8-10-.1-2.6 0-5.2.2-7.8l.8-10.8.4-14.9c.2-5.5.6-11 .5-16.5 0-6.5 1-12.9 1.8-19.3.5-3.4.5-6.8.8-10.2l1-11a243 243 0 0 0 1.8-19.4l1-19.2.5-5.9c.4-4.2 1-8.5 1.3-12.8l.9-10.8-.1-3.4v-6.7c-.3-6.2.8-12.2 1.6-18.2.6-4.3 1.3-8.5 2.4-12.7.3-1.2.7-2.4 1.9-3.2A110.3 110.3 0 0 1 54.6 64c4.6-2.3 9.3-4.3 14.6-4.5 1 0 2-.2 3-.5a68.8 68.8 0 0 1 16-2.3c5.7 0 11.4-.9 17.1-1.2 4.3-.2 8.6-.1 12.9 0 5.2.2 10.4-.2 15.6-.4 6.6-.2 13.2.2 19.7 2 5 1.4 9.7 3.6 14.4 5.8 3.8 2 5.3 4.8 5.7 8.7l.1 1c.5 6.6 1 13.3.2 20-.4 3.6-.3 7.3-.4 11l-.3 5.4-1 20.8c-.4 7.4-1 14.8-1.2 22.2-.3 7.1-.3 14.3-.5 21.4-.1 5.5-.5 11-.7 16.5l-.7 24-.7 17.8c-.3 5-.4 9.8-.9 14.7-.4 4 .4 8 .1 11.9-.1 2.2-.3 4.5-.6 6.7-.6 5.4-.9 10.8-.8 16.2l-.2 7.7-.2 10.2c0 .7.2 1.5.5 2.1a7.7 7.7 0 0 1-.5 8.3c-.8 1-1.6 2-2.2 3.2-1 2-2.7 2.7-4.7 3-3.6.4-7.2.9-10.8 1.1-5 .4-10 .8-15 .8-3.3 0-6.5.9-9.8.9-5.6 0-11.3.3-17 .3l-24-.1c-5.6 0-11.3-.3-17-.4l-6.2.2c-1.6 0-3.2 0-4.8-.2l-12.8-1.4c-3.9-.3-6.9-2.6-10.1-4.3l-3-1.8c-2-1.2-2.8-3.2-3.2-5.4-.5-3.7-1-7.4-.5-11l.3-3.9h-.2zM163 89.8c0-2.8.3-5.5.2-8.3 0-3.6-.4-7.1-.6-10.6 0-1.1-.6-2-1.6-2.3-1.6-.6-3.1-1.3-4.7-1.7-7.2-2-14.6-2.2-22-1.8-3.7.2-7.5.2-11.3 0-5.9-.2-11.7-.1-17.6.4-2.2.2-4.4 0-6.5.1l-2.3.2-4.7.2c-1 0-2.1-.1-3.2 0l-8.6 1.2c-.6.1-1.2.2-1.7.5-1.9 1.2-4 1.3-6.1 1.3-2.7.1-5.2.8-7.7 1.9-2.4 1-4.9 1.7-7.3 2.8-1.8.8-3.7 1.7-4.4 3.7-.9 2.3-1.5 4.9-1.9 7.4-.8 5-1.4 10.1-2.1 15.2-.1 1-.2 2-.1 2.9.3 3 .5 5.8-1.1 8.5a3 3 0 0 0-.4 1.7l.8 5.9c0 1 .4 1.9.4 2.8L48 130c-.1 2 0 4.2-.4 6.3-1 3.8-1 7.6-1.2 11.4-.3 7.2.4 14.5-1.5 21.6v4.7c0 1.2-.4 2.5-.2 3.8.2 2.6-.4 5-1 7.5-.9 3-1.2 6.3-1.4 9.6-.3 2.5 0 5-.2 7.6l-1.7 13.8a89 89 0 0 0-.6 8v11.8c0 4.6-.2 9.3-.4 14 0 2.5 0 5-.2 7.6-.3 4.5-1 9-1 13.3 0 3.2-.2 6.3-.7 9.5a231.6 231.6 0 0 0-1.5 16c-.2 3.1-.6 6.4 2.4 8.8.7.6 1.3 1.5 2.2 1.9 1.3.5 2.6 1.2 4 1.4a279 279 0 0 0 16.9 1.7c3.6.2 7.4-.2 11-.2l20 .2c1.8 0 3.6-.3 5.4-.2 8.2.4 16.4.1 24.6-.2l13-.6 11.6-.8c1.8-.2 3.6-.1 5.4-.4 1.8-.3 2.1-.8 2.2-2.5l.1-5.4.2-14.7V271l.9-15.4c.1-3.7-.2-7.4 0-11 .3-9.4.9-18.8 1.3-28.1l.9-17.2.6-20.8 1-22.7c.1-5 0-10 .3-14.9.3-7.7.8-15.5 1.3-23.3l1.7-27.8z"/>
  <path d="M236.2 64.5a241.4 241.4 0 0 1 18.5 1c5.2.5 10.4.4 15.6-.2 3.5-.3 7.1-.3 10.7-.4l17.2-.1c3 0 6-.6 9-.7l12.4-.4c6.6-.3 13.1-.8 19.6-1.2l10.8-.7 20.1-1c3.2 0 6.3-.3 9.5-.4 3.3-.2 6.6-.1 10-.2l9.2-.4 7.9-.1 12.8-.4h8.4c8.6 0 17.2.3 25.8-.2 6.8-.4 13.7-.4 20.5-.6 3.3 0 6.5.2 9.7.3l14 .5c2.7.2 5.5.4 8.1.9a61.3 61.3 0 0 0 13.7.8c1.2 0 1.8.6 2 1.7l.8 4.5c.4 3.9.8 7.8 1 11.7.2 3 0 6 0 9l.2 6 .5 13.6.5 9.4v8.6l.1 9.4c.1 4.2.3 8.4.2 12.6-.2 6.1-.8 12.1-1.2 18.2-.2 2.8 0 5.6 0 8.3l-.6 11.6v3.8c.2 5-.5 10-.9 15-.3 4.7-.3 9.4-.5 14-.1 3.2-.4 6.5-.4 9.7 0 4.7.4 9.5.3 14.2 0 4.3 1.1 8.5 1.2 12.8 0 1.5-.3 3.1-.5 4.7-.3 1.4-.8 1.7-2.1 1.7l-15.6-.5h-7l-2.9-.2-.9-.1c-2.2 0-4.5 0-6.7.2-2 .1-3.9.6-5.8.7h-9.7c-.7 0-1.5.2-2.2.1l-14.3-.1-9.9.3c-5.4 0-10.8-.2-16.3-.4-6.4-.1-12.9-.4-19.4 0-2.2.2-4.5 0-6.7 0l-7.2.2-5.9-.2-18.7-.4c-1.4 0-2.7-.3-4-.3h-20l-2.5-.1c-.7 0-1.5-.2-2.2 0-5.7 1.4-11.6.3-17.3 1.1-2 .3-4 0-6 0-.8 0-1.5 0-2.3.2-3.4.6-6.8.8-10.3.8-3.1 0-6.3.5-9.5.6l-9-.3c-.4 0-.9-.2-1.3-.1-3.2 1-6.4 0-9.6.2-2.1 0-4.2.3-6.3.4h-1.3c-2-1-4-.6-6-.3-3 .5-6 .7-9 .3-1.2-.1-2.5-.2-3.7.5-.4.3-1 .3-1.6.3l-14.9-.1c-.4 0-.8-.2-1.1 0-.7.2-1.5.7-2 0-.7-.8-1.4-1.6-1.6-2.5-.3-1.9-.5-3.8-.5-5.6.2-7.5.6-15 .7-22.4V220c.1-7.3.4-14.7.7-22l.4-10.6 1-13.5c.3-3.3.5-6.7 1-10 1.3-8 1.2-16 1.8-24 .4-6.5.5-12.9.7-19.3.3-5.9.6-11.7.7-17.6 0-3.8-.2-7.5-.4-11.3l-.4-12.2c0-3.5.1-7 .3-10.4 0-1.6.4-3.2.6-4.6zM519.7 258l-.5-5-1-9.4c-.1-1.7-.5-3.4-.2-5 .8-4.6 0-9.3.3-14l.5-11c.4-5.4 1-10.7 1.2-16.1.4-8 .5-16 .8-24 .1-4.2-.1-8.5.4-12.6.8-6.3.6-12.7.8-19 0-3-.3-6-.4-9l-.2-19.2-.6-21.4-.4-10.8v-3.6c-.2-2.4-.7-4.8-.6-7.2.1-2.3-.4-4.3-1.5-6.6l-9.3-.7c-4.2-.4-8.3-1-12.5-1.3l-12.4-.5-15.1-.2h-6.6c-4.6 0-9.3.6-14 .2h-1c-3.4.7-6.8.2-10.2.3-3.5.1-7-.2-10.6-.2l-9.2.2c-.5 0-1 0-1.6.2-1.3.4-2.6.4-4 .1h-1.5l-8.3.5c-4.1.2-8.3.5-12.4.3-3 0-6.1.4-9.2.3-4 0-8.1.2-12.1.4l-13.8.4c-4 .2-8.1.9-12.3.8-3.3 0-6.6.4-9.9.6-2.8.3-5.5.7-8.3.8l-15.5.5c-1.8 0-3.6.5-5.4.5-4.8.1-9.6 0-14.4.2-7 .1-14 0-21 .8h-2l-3.9.3-2.7.1c-4.2 0-8.4-1.2-12.7-.6-1.6.3-3.3.2-5 .4-.6 0-1.4.4-1.7.8-1 1.4-1.9 3-1.5 4.8l.1 1.8.1 14.6c.1 5.3 1 10.6.3 15.9l-.2 2.2-.3 16.7a1172.8 1172.8 0 0 1-1.8 34.3c-.3 3.9-.8 7.7-1.2 11.5l-1.3 12v3.2l-.4 11.8c-.2 3.6-.6 7.2-.7 10.8-.2 4.2-.2 8.5-.2 12.7v26.6l-.3 9.3c0 2.1.3 2.6 2.4 2.6 4.2.2 8.3.4 12.5 0a416.4 416.4 0 0 1 38.7-.4c8 .4 16-.3 24.2-.6 4-.1 8-.6 12.2-.7a1896.5 1896.5 0 0 1 56.6-.8c3.7 0 7.4.4 11 .5 5.2 0 10.3.4 15.4.1 10.6-.5 21.2 0 31.7.3 5.2 0 10.5.4 15.6.1 4.5-.2 9-.4 13.4-.2 4.6.2 9.3 0 14-.1 3.6-.2 7.2-.8 10.9-.8 7.3 0 14.7.3 22.1.5h6.7zM375.5 38.2c2.5.8 3.3 2.6 3.4 4.8.2 2.2-2 4.4-4.2 4.2-.8 0-1.6-.2-2.3-.6-.6-.2-1.2-.7-1.5-1.3-1-1.6.2-6.2 2.9-6.7l1.7-.4zM140.1 255.3h-1.5c-1 0-1.9.2-2.7 0-2.3-.5-4.4-.2-6.7.1-3 .4-6.1.5-9.2.7l-6.2.5-9.7.2c-1 0-2-.2-3-.1-3.9.1-7.8.4-11.7.4-2 0-4.1-.6-6.2-1l-1.1-.2c-4.2.5-8.4-.5-12.6-.6-2.7-.1-5.5.2-8.3.2-3.8-.1-7.7.2-11.4-.9l-1.4-.2c-2.2-.1-3.5-1.5-3.5-3.7v-.9c.9-6 .8-12 1.1-18 .5-8.5 1-17 1.7-25.3.6-6.3 1.6-12.4 2.3-18.7.8-6.7 1.6-13.5 2.2-20.2.3-3.3.1-6.5.2-9.7.3-6.7.5-13.3 1-20 0-2.6.5-5.2.8-7.8l1-9.2.3-2a35 35 0 0 0 1.4-11.4c0-2.8-.2-5.7-.1-8.6 0-1.2.3-2.5.6-3.7.2-1 .9-1 1.7-1.1l10.4-.8L81.2 92c2.3-.2 4.6-.2 7-.3l12.6-.7 12.4-.6 14.4-.6 7.4-.6 16-.1c1.5 0 3 .3 4.5.6 1.3.3 1.4.9.7 2a4 4 0 0 0-.4 1.3l-.9 6-.2 1.6-.1 9.7-.3 10.8v14.5c-.2 4-.2 8.1-.5 12.2-.1 3-.6 6.1-.8 9.2-.2 2-.1 4.2-.3 6.3l-1 9.4-.8 8.3c-.3 2.7-.8 5.3-1 7.9l-1.2 21c-.1 2 .2 4 .2 6v4.8c-.3 4.6-.5 9.2-1 13.8-.3 2.8-1.1 5.6-1.6 8.4-.7 3.6-1.3 7.3-1.8 11a12 12 0 0 1-3.2 6.5l-3 2.7c-.3.3-1 .4-1.2.2-.3-.3-.6-1-.4-1.3.3-1 1-1.7 1.4-2.6l2.4-3.7-.4-.5zm13-162.3c-1.9-.3-3.5-.8-5.2-1H136.5c-1.8 0-3.5.3-5.2.4-4.9.2-9.8.3-14.6.6-1.8 0-3.7 0-5.4.4-2.3.5-4.6.7-7 .4h-2.6c-1.2.1-2.3.4-3.4.4l-10.6.3H85l-7.8 1c-1.5.3-3 .6-4.5.7-1.8.2-3.6 0-5.4.2a82 82 0 0 0-5.6.6c-1.8.2-2.6 1-2.4 2.4.7 3 .3 6.1.3 9.2a66 66 0 0 1-1.2 11.2c-1 5.5-1.6 11.1-2.2 16.7-.4 3.4-.5 6.8-.6 10.2-.2 6.5-.2 13-.6 19.6-.6 8.3-1.6 16.5-2.5 24.7l-1.8 15.3c-.5 4.5-.8 9.1-1.1 13.7-.3 3.4-.8 6.8-.9 10.1-.1 6.2.1 12.4-.6 18.5-.2 1.3.2 1.8 1.5 2 1.2.3 2.4.3 3.6.4l13.4.4 11.5.6c3.7.2 7.3.6 11 .9h7c2.6 0 5.3-.4 7.9-.2 6.5.4 13-.2 19.6-.5L137 251l4.5-.2.4-1.5c.8-4.2 1.7-8.5 2.4-12.8.5-2.5.7-5.1 1-7.6l.4-7.7.2-8.1v-5l1.8-25.5 1.3-12 .8-5.5 1.4-19.2c.2-4 .1-8 .2-12.2l.3-16.7c.1-7.4-.3-14.9 1.3-22.3l.1-1.8zM76.2 288.2c.1-.7 0-1.5.2-2.2a19 19 0 0 1 7.2-11.4l.7-.6c1.3-2 3.5-2.6 5.7-3.3l3.6-1.2c1.4-.3 2.8-.4 4.2.4l6.6 3.4c1.9 1 3.3 2.3 4.3 4.2 1 2 1.9 3.8 2.3 6 .9 5-.8 9.4-2.3 13.9-.2.5-.7 1-1.1 1.4l-2 2.1c-.2.4-.6.8-1 .9-3 1.2-6 2.8-9.5 2.3-1.6-.2-3.2 0-4.9-.3-1.4-.2-2.8-.5-4-1-1.8-.8-3.3-2-5.3-2.2-.4-.1-.9-.4-1.1-.7-1.3-2-3-3.6-3.2-6l-.7-5.6h.3zm18 12v.2h1.1c6.5.2 11.1-2 13-9 1.2-4.4.8-8.5-1.6-12.3-.6-1-1.7-1.7-2.7-2.3-1-.7-2.3-1-3.2-1.6-2.5-2-5.6-1.4-8.3-2H92c-2 .7-4 1.2-5.7 2.7-1.5 1.4-2.8 3-4.3 4.6-2.2 2.2-2.7 5-2.9 8v1.4c-.9 2.9 1.2 6.2 3.6 7.3l3 1.5c2.1 1 4.2 2.1 6.7 1.6.6-.2 1.2 0 1.8 0zM110.3 76.2v.7c-.4 2.2-2 3.7-3.7 3.4-2.3-.4-3.8-2.5-3.3-4.7l1.2-3c1-1.5 2.6-1.9 4.2-.9 1.5 1 2 2.3 1.6 4.5zm-2 .2c-1-1.4-1.8-1.8-2.4-1.2-.3.2-.4.8-.3 1.2.3.8 1.1.9 2.7 0z"/>
  <path d="M505 137.6c-1 1-1.8 2-2.5 3-1 1.4-1.5 1.8-2.7 1.2-1.4-.8-2.9-.7-4.4-.6h-4.7l-3 .6c-1.1 0-2.1 0-3.2-.2l.8-.3v-.2h-2.7l-2.2-.3-2.9.1H476c-1 0-2 .2-3.1.1-1.7 0-3.3-.3-5-.4a161 161 0 0 0-6.7-.2l-1.3.3c-1.5.5-3 .9-4.6.3h-.7c-3 .6-6 0-9-.2-2.4-.1-4.8-.7-7.3.1-3.4-.8-6.7.3-10 .3-2.8 0-5.5-.3-8.2-.5-1.9-.1-3.7 0-5.5.8-1 .4-1.8.4-2.8-.2-.5-.3-1.2-.4-1.9-.4l-11 .3-1.8.1c-1 0-1.4.6-1.4 1.8-7.3 0-14.7-.5-22.3 1.1.8-1.9.2-3.7 1.9-5l-2.5-.2-.1-.4 4.5-2.6.2-1.2 11.3-.8h1c3 1 6.2 0 9.3 0l12.9-.6c5.5-.2 11-.2 16.6-.2l3.2.1 5.6-.1 3.1.2c1.8 0 3.6 0 5.4-.2 1.3-.2 2.6-.3 4 0 1.2.4 2.6.2 4 .2 3.9 0 7.9.5 11.7 0 9.8-1.1 19.6 0 29.4-.4 2 0 4.2 0 6.3.3 1 .1 2 .7 2.8 1.3.3.1.7 1 .6 1-.7 1 .2 1.5.3 2zM253.5 134.6c2 1.8 1.4 4 .7 5.6a50.1 50.1 0 0 0-3.2 17.5c-.2 3.3-.7 6.6-.7 9.9-.2 6.2 0 12.5-.1 18.7l-.2 16.5v9.8c0 2 .2 4.1.4 6.3h1.8l13.3-.7c8-.4 16-.9 24-1.1 4.6-.2 9.2 0 13.8 0l9.3-.2c4 0 8.1.1 12.2-.3 5-.5 10.2-1 15.3-.5 1.7.2 3.4-.3 5.2-.4 0-3.3 0-6.4.2-9.4.3-5.4.4-10.8 1.5-16.2.6-3.2.6-6.5 1-9.8 0-1.4.4-2.7.5-4l.5-10.9.7-6 1.1-12.6.7-5.6.4-4.3-2.4-.3h-2.3l-18.7-.6c-6.6-.2-13.3-.4-19.9-.2-7.4.3-14.8.1-22.1 1-4.8.6-9.6.6-14.5.9-2.2.1-4.4.5-6.7.6-2.8.2-5.7.3-8.5.3-.4 0-1-.5-1-.9-.2-.5 0-1.1.2-1.8h2.3c6 .3 12-.4 18-.9 4-.3 8-.3 12-.7 5.2-.5 10.3-.5 15.4-.5l23.5-.2c3.7 0 7.5.5 11.3.3 3.7-.3 7.3.4 11 .6l2.5-.2c.8 0 1.7-.2 2.5 0 .5 0 1.2.4 1.3.8.2.4-.1 1.3-.5 1.6-1 .6-1 1.7-1.2 2.7l-2.4 21.8c-.3 3.2-.2 6.5-.4 9.7-.1 2.9-.4 5.7-.6 8.6-.8 9-1.8 17.9-2.5 26.8-.2 2.3 0 4.7-.1 7 0 1.1 0 2.7-.8 3.2-1.1.8-2.2 1.9-4 2.1-3.2.5-6.4-.2-9.6-.1-1.3 0-2.6-.1-3.8.1-5.5 1.1-11 .8-16.5.8h-6.8l-8.8.2c-3.9 0-7.7 0-11.6.2a986.4 986.4 0 0 0-33.8 1.8c-1 .1-2 .7-3.3.1-.9-.5-1.4-1-1.5-2a89 89 0 0 1-.2-14v-2.9l.2-9.7-.2-17c0-2.2.3-4.6.4-6.9v-.4c-.2-4.8.2-9.5 1-14.1v-.7c-1-3 .2-6 .8-8.9l2-8.3c.2-1.1.8-1.7 2-2.2zM430.8 226.6l.6-6.3c0-1.2.4-1.8 2-2 1.8-.4 3.6-.3 5.5-.4l13.3-.4h3c6.3 0 12.6 0 19-.3 4.8-.1 9.7-.5 14.6-.8 2 0 3 .9 3 2.8l-.3 7.5.3 4.5.8 7.1c.2 2.1-.5 2.7-2.6 2.5-4.7-.4-9.4-.6-14.2-.1-4.9.4-9.9.2-14.9.4-3.4 0-6.9.3-10.3.5l-8.5.4-6.4.2h-.9c-3.3-.3-3.6.2-3.8-3.2-.2-2.5-.4-5-.4-7.4 0-1.7.3-3.3.4-5h-.2zm3.2-6l-.4 1-.8 12.2c-.1 1.4.1 2.7.3 4 0 1 .6 1.5 1.6 1.5 3.7 0 7.4.2 11.1.1l16.5-.9 25.6-1 2.1-.3c0-1.4 0-2.5-.2-3.7-.2-2-.6-3.9-.7-5.8l.2-6.3-.2-2.3-55.1 1.5zM423 155.1l-2.2.8-.3 1.6-2.4.3c-2.3 0-4.7-.5-7-.2s-4.6-.4-6.9 0c-4 .6-8.2-.4-12.1.5-2.6.5-5 1-7.7.5-.4-.1-1 0-1.5.3-1.4 1-3 1-4.8 1l-.6-1.4-2-.5c.1-.7.2-1.3.5-1.8.7-1.5.8-1.5-.5-2.6 1.8-1.8 3.7-3 6.4-3 5.3 0 10.6-.7 15.8-.7 6.7 0 13.3.2 20 .4 1 0 2 .4 3 .8.4.2 1 .9 1 1-.7 1.4.7 1.9 1.2 3zM373.5 175.3c-.7-2.3-.3-2.7 1.6-2.8 5.3-.1 10.6-.5 16-.5 5.8 0 11.5-1.1 17.3-1.2l13.6-.1 17.4-.6 9.2.3c2.7 0 5.3-.2 8-.3l9.2.1c1 0 2 .3 2.9.5l1 .2c6.6-.7 13 .1 19.5.5.9 0 1.8.5 2.7 1 .3.1.4.9.3 1.3 0 .3-.7.5-1 .5-2.2 0-4.4-.3-6.6-.4l-6-.5-9-.2-14.8-.2-7.9-.2h-13.5c-2.8.1-5.6.5-8.4.5h-10l-16.8 1c-1.7 0-3.4.1-5 .3-4.6.2-9.2.9-13.8.5-1-.1-2 .2-3.1.3h-2.8zM281.6 84.2l8-8.4c.5-.4.8-1 1.3-1.3.4-.2 1.1-.2 1.4 0 .3.3.2 1 .2 1.4 0 .3-.4.5-.6.7a46 46 0 0 1-8.8 9l1.8 2.6c2 2.5 3.3 5.3 2.5 8.6-.7 2.7-1.8 5-4.3 6.8-1.6 1.3-3.4 2.1-5.2 2.9-3.2 1.3-6.5.7-9.8 0-.7 0-1.3-.3-2-.5-2 1.6-3.8 3.2-5.6 5-1 1-1.8 2.5-2.9 3.7-.9 1-2 1.8-3 2.6-.2.3-.9.3-1.2.1-.5-.3-.8-.9-.2-1.5.7-.9 1.4-1.9 2.2-2.7 1.3-1 2.4-2.2 3.3-3.7.8-1.3 2.3-2.3 3.5-3.4l1-1.1-.3-.7c-4.1-2.2-4.1-7.4-3.1-10.7.1-.6.6-1.2 1-1.7 2-2.7 4.4-5.2 7.3-7 1.5-1 3-2.4 5.1-1.5l.9-.1c2.4-1.7 4.6-.6 6.7.6l.8.3zm-2 2.1l-1-.7a10 10 0 0 0-7 .4 21 21 0 0 0-9.6 8.8c-1.5 2.3-.6 5.8 1.6 7.2 1.4.8 1.7.8 2.9-.4l4.2-4.6c3-3 5.8-6 8.2-9.5.3-.3.4-.7.7-1.2zm2.3 1.5l-3.2 3.7c-1 1.3-1.8 2.7-3.1 3.8-2 1.9-3.9 4-5.8 6-.3.3-.8.5-1 1-.2.4-.5 1-.4 1.5 0 .3.8.6 1.3.6 2.5.3 5 .3 7.5-.4 3.7-1.1 6.2-3.1 7.7-6.7.6-1.7.7-3.3.3-5-.4-2-1.8-3-3.3-4.5zM428.3 197.7l4.3-.4 8.5-.2h4.5c2.3 0 4.7 0 7 .2 4.1.6 8.3 0 12.4.3 4 .2 8.1.5 12.2.5 2.9 0 5.7-.3 8.6-.3h6.3c1.5.1 1.8.7 1.7 2.1-.2 1-.7 1.4-1.6 1.1-3.2-1-6.4-.5-9.6-.3-3.8.2-7.7-.2-11.6-.3l-12.4-.3c-3.3 0-6.6-.5-10-.6h-14.8l-18.6.3c-6.3.1-12.7 0-19 .3-5.7.2-11.4.5-17 .9-1.3 0-2.4.3-3.6.5-1.2.2-1.8-.2-2-1.2-.3-1 .2-1.6 1.3-2h1.6c11.6-.6 23-1 34.6-.9 4 .1 8 0 12-.1l5.2.2v.2zM492.4 187.7h-3.5l-17.9.2c-1.4 0-2.8-.4-4.3-.4l-18 .2-12.4-.2h-8.8c-2.8 0-5.6-.4-8.4-.4a236.3 236.3 0 0 0-29.3 1c-4 .2-8 .6-12.1 1-1.5 0-2 0-2.1-1-.1-1 .3-1.6 1.6-1.8 1-.2 2.1-.2 3.1-.3l14.5-.4c2.7-.1 5.4-.5 8-.7 4.3-.4 8.5-.9 12.7-.3 1.4.2 2.8-.1 4.2 0 4.5 0 9 .2 13.4.3 5 0 10 .2 15 0 5.5-.1 11 .2 16.3.3 5.1 0 10.2.5 15.4 0 3.1-.2 6.3-.2 9.4-.3.7 0 1.4.1 2 .3 1.3.3 1.5.6 1.2 2.5z"/>
  <path d="M325.6 191c-1.6-.4-2.4-1.5-3.3-2.5-1-1.1-2.2-1.7-3.5-2.4-1.7-.9-3.7-1.2-5.1-2.6-.4-.4-1.4-.5-2.1-.4-1.7.2-3.5.5-5.1 1-1.8.5-3.5 1.3-5.2 2.1-1.4.7-2 .6-2.6-.8a63.7 63.7 0 0 0-4.6-8c-1.1-1.5-1.8-3.4-2.6-5.2-1-2.2-2.2-4.2-4.4-5.5-1-.7-1.8-.6-2.6.3l-1.8 2c-3.8 4-7.8 7.9-11.6 12-2.4 2.7-4.7 5.5-7 8.4-.4.3-.6.9-.6 1.4-.1.8-.4 1.3-1.3 1.1-.9-.2-1.5-1.4-1.2-2.1 0-.2.2-.4.4-.6 2.7-3.7 5.4-7.4 8.6-10.7 4-4 7.6-8.1 11.4-12.2l3.6-3.5c.6-.6 1.4-.6 2 0 1.4 1.4 3 2.7 4.2 4.4 1.5 2.3 2.7 4.8 4 7.3 1.2 2.2 2.3 4.4 3.6 6.5 1.1 1.9 1.2 1.8 3.3 1.3l9.6-2.4c1.1-.2 2 0 3 .7 1.5 1 3.3 1.8 5 2.7a17 17 0 0 1 5.8 4.5c.8 1 1.1 2 0 3.2zM323.1 224.4l.5 1.1c.3 1-.1 1.6-1.2 1.6-2.9.1-5.8.4-8.6.3-5.4 0-10.8.5-16.2 1-6.6.5-13.3.5-19.9.8-2.3 0-4.5.3-6.7.5-1.4.1-2.2-.2-2.3-1.2 0-1 .7-1.8 1.9-1.8l9-.3a4210.5 4210.5 0 0 0 36.8-1.4l6.7-.6zM334.4 159.6c.2 6-7.3 11-12.5 8.4-1-.5-2.1-1-3-1.8-1.8-1.5-1.7-3.6-1.7-5.6 0-2 .5-3.8 1.8-5.2 1.2-1.3 2.7-2.4 4-3.6.5-.3 1-.6 1.3-1 2.7-2.7 6.3-2.3 8.3 1.1 1.4 2.5 2 5.2 1.8 7.7zm-15 1c-.3 3.3 1 4.9 4.1 5.5 2.4.4 4.3-.5 6.3-1.7 4-2.5 4.4-9.7-.6-12-1.6-.8-2-.8-3.4.3L323 155c-1.7 1.6-3.8 3-3.6 5.7zM498.7 89.8l-5.4.2-4.3-.1c-.2 0-.5 0-.6-.2-.5-.3-.8-.8-1.2-1.2.4-.3.8-.8 1.2-.8 1.5-.2 3-.2 4.5-.2h7.7c.7 0 1.4-.2 1.6.7.3 1-.3 1.4-1.1 1.5l-2.4.3v-.2zM467.8 87.9c-.2 1.6-1.1 1.8-1.9 2l-12.4 1.5c-1 .1-2 0-3-.3-.2-.1-.5-.7-.6-1 0-.3.5-.6.8-.8h.6l8.6-.4c1.5-.1 3-.5 4.6-.7l3.3-.3zM420.1 93.9l-2.3.4c-2 .4-4 .8-6 1-2 .3-4.1.4-6.2.5-.9.1-1.6-.1-1.7-1 0-1 .5-1.3 1.4-1.3 1.7 0 3.3-.3 5-.4l6.4-.3c1.2 0 2.3.2 3.4.3v.8zM427.8 142l3.3-.2v.5l-3.3.2v-.5zM417.2 142.3h1.4v.3l-1.5.2v-.5zM399 142.9h-1.4v-.4l1.3-.2v.6zM87 155.2l1 1-8.9.6v-.4l2.3-.5v-.2l-15.8.6-.8-2.4 2.2-1.2-2.2-2c2-.3 3.9-.6 5.5-1.6.8-.4 2-.5 2.9-.6l19.3-1.8c3.7-.4 7.3-.4 10.9-.8 4.2-.4 8.3-1.2 12.5-1.7 2.7-.3 5.5-.4 8.3-.6a335.7 335.7 0 0 1 12-.2c2.6.2 2.6.2 4.2 2.6l-1.4 1.9c-.5.5-.8 1-.7 1.8.1 1.3-.3 2-1.6 2.2-1.7.3-3.5.4-5.2.4-3.3.2-6.6.2-10 .5l-10.3 1.1c-1.2.1-2.5.6-3.6-.5-.3-.2-1 0-1.3 0-3.3 1-6.6.5-9.9.9l-9.3.9zm-2.3.6v-.3h-1v.2h1zM136.4 159c-.5.9-1.1 1.5-1.5 2.3-.4.6-.6 1.2-.3 2 .4 1.3-.2 1.9-1.4 2-4.2.5-8.4 1-12.6 1.3-1.6.1-3.3-.2-5-.2-2 0-4-.4-6 0-2.4.7-4.9.2-7.3.6-2.4.3-4.8.2-7.2.4l-10.4.8-3 .9c-.1 0-.3.2-.5.1-3.6-.6-7.2 0-10.7.3-1.5 0-3-.3-4.2-.4-1.3-1.9.8-2.5 1-4l-2.6-.6c.5-2 2-2.3 3.4-2.5l8.8-.8c7.8-.7 15.5-1.5 23.3-2 6-.4 12-1 18-1.2l7.4-.4 3.8-.6c3.8-.6 3.8-.6 7 2zM110.6 106.2c2-2.3 3.6-5.2 6.7-6.3.7 1.2.7 2-.5 2.5-1.7.8-2.8 2.2-4 3.5-1.2 1.2-1.6 2.5-.8 4.1 1.2 2.6 1.1 5.4.8 8.2-.3 3.9-3 5.4-6.1 6.7-2 .8-4.2 1.2-6.4.4-1-.4-1.8 0-2.6 1.1-1.9 2.6-3.8 5-5 8-.2.5-.7.8-1 1.1-1.2-1-.5-1.9-.2-2.7 1.2-2.7 2.7-5.2 4.6-7.5l.8-1c-3.4-3.3-5.4-7.4-4-12 1-2.9 2.7-5.8 6-7 1 1.2 1 1.6 0 2-2.8 1-3.7 3.7-4.8 6-.4 1-.4 2.6 0 3.7.8 2 1.8 4.2 4.2 5.3a54 54 0 0 0 10-14.2 8.2 8.2 0 0 0-4.8-1.8l-1.8-.1c-.3-.1-.8-.6-.7-1 0-.4.3-1.1.6-1.1 1.2-.2 2.5-.3 3.6 0 1.8.5 3.5 1.3 5.4 2zm-10 16.3c2.9 1.5 7.7.6 9.7-1.8 2.1-2.6 2-7.4-.3-10.4-1.5.8-2.6 2-3 3.6-.5 1.7-1.4 3-2.6 4.2l-2.6 2.8-1.2 1.6zM132.3 184.5v.9c-1.5.6-3 1.6-4.4 1.7-1.8.2-3.6-.5-5.4-.6l-8.5-.1c-1.4 0-2.8-.2-4.2 0l-13.5 1c-2 .2-4 .4-6 .3-5-.3-10-.2-15 .4-2.5.3-5 .3-7.6.3-.4 0-1.2-.4-1.3-.7 0-.5 0-1.3.4-1.6.5-.4 1.3-.6 2-.6 6.4-.2 12.9-.6 19.3-.5 5.1 0 10.1.2 15.2-.5 6-.8 12-.9 18-.5 2.9.2 5.7.1 8.6.2l2.4.3zM132.6 210.5c0 2 0 2-1.6 2.1l-8.8.5h-1.1c-4.7-1.5-9.5-.4-14.2-.8-3.7-.3-7.5 0-11.2 0-1.9 0-3.8-.4-5.6-.6-3.2-.2-6.5-.6-9.7-.7-3 0-6.2 0-9.2.2-1.4 0-2.8.4-4.2.7-.8.1-1.6.3-1.9-.7-.2-.8.3-1.7 1.2-2l2.3-.1c8.2-.4 16.4-.4 24.6.3 5.8.5 11.6 1 17.4.5h1.6c6 .7 12.2.3 18.3.2l1.6.1c.2 0 .4.2.5.3zM63.5 199.2c1-.6 1.4-1.2 2-1.3 1.4-.2 3-.2 4.4-.2 2.7 0 5.4.4 8.2.4 4 0 8.1-.2 12.2-.4 3-.1 6-.4 9-.4l13.8.1c3.6.1 7.2.3 10.8-.4a18 18 0 0 1 4.1 0c.4 0 .8.4 1.3.7-.3.4-.6 1-1 1.3-.6.3-1.4.4-2.1.5-.6 0-1.3-.3-1.8-.1-4.3 1-8.6 0-12.9 0-4 .1-8.1.5-12.1.2-5.6-.4-11.1 1-16.7.6-3.8-.2-7.6.3-11.5.4l-2-.3-5.7-1.1zM143.3 230.7c-1.3 1.3-2.8 1.7-4.7 1.5-4.3-.5-8.6-1.5-13-.5a3 3 0 0 1-.6 0c-3.9 0-7.7.3-11.5-.1-2.9-.4-5.6 0-8.4.1-2.7.2-5.4-.2-8-.4-2.6-.1-5.1-.3-7.7-.3h-7.8l-4 .1h-1c-1.2-.8-2.5-.5-3.9-.1l-1.7.2c-.5 0-.9-.4-1.3-.6.3-.4.5-1.1.9-1.2 1.4-.3 2.9-.9 4.2-.6 3.2.7 6.4.1 9.7.2 6.6.2 13.2.5 19.9.5l30.3-.1 7.4.1c.7 0 1 .4 1.2 1.2zM130 244.5c-.8-.2-1.3-.4-2-.4l-3.2-.2c-.9 0-1.7.2-2.5 0-.5 0-.8-.6-1.3-1 .4-.4.8-1 1.3-1.3.5-.3 1.1-.3 1.7-.4l7.2-.3c1.2 0 2.4.4 3.5.6 1 .2 1.3.8 1.2 1.6-.2.8-.8.8-1.4.8l-2.5.3c-.7 0-1.4.2-2 .3zM132.6 236.4c1 0 2 0 3 .2.7.2 1.5.5 1.2 1.3-.1.5-1 1-1.5 1-2.1 0-4.3-.2-6.4-.1-1.7 0-3.3.2-5 .3h-1.7c-.7 0-1.3-.4-1.4-1.2 0-.9.5-1.4 1.3-1.6l2-.1 8.5.2zM50 231.6c.2-2.1.3-2.1 1.7-2.2l10.2-.3c1.2 0 2.5 0 3.8.3.3 0 .8.6.9 1 0 .2-.5.8-.8.9-.6.2-1.4.5-2 .4-3.6-.8-7.1.3-10.7.1l-3-.2zM121.6 248.4c-.5-2.1-.2-2.5 1.4-2.5l10 .4c.8 0 1.5.1 2 .4.4.1.7.7.6 1 0 .4-.6.9-.9.8-3.1-.6-6.1.4-9.2.4-1.3 0-2.6-.3-4-.5zM444 229.9c-.6-2.5-.2-3 2-3l11.8.1c5.7.2 11.4-.5 17-1.1l5-.3c1 0 1.6.4 1.6 1.5.1 1-.3 1.5-1.2 1.4-6-.7-12 1-18 1l-15.1.2-3 .2z"/>
</svg>
