<svg xmlns="http://www.w3.org/2000/svg" viewBox="0 0 595.3 375">
  <title>Illustration de voyage en voiture</title>
  <path d="M74.1 260.6c.5-1 1-1.6 1.3-2.4l5.2-14.3-.8-.4c-3.5.1-6.6-1.2-9.8-2.5-1.2-.5-1.8-1-1.8-2.4-.1-2 .2-3.7.8-5.6l3.7-12c1.6-5 3.5-10 4.9-15 1-4.3 2.5-8.4 4.2-12.3.9-2.2 1-4.7 2.8-6.4.4-.4.7-1.1.6-1.7-.1-2 1.1-3.7 1.8-5.5l2-5.2c.9-1.9 1.5-2.2 3.4-2.2.8 0 1.6-.7 2.8-1.2 1.5 1.3 3.6 2.6 4.6 5.1.9 2.4 2.4 4.5 3.6 6.8 1.2 2.4 3 4.7 3.6 7.3.7 3.2 2.7 5.5 4 8.2a35 35 0 0 1 3.4 10.7c.2 2 1.3 3.8 1.5 5.8.3 2.8 2 4.7 3 7.1l3 7.7 1.2 4c.5 2.2-1.4 5.4-3.6 6-1.3.4-2.6.6-3.9 1.1-.9.4-1.6 1.2-2.6 1.9l3.2 8.5c.3 1 .4 2.2.8 3.2l2.7 7c.4 1.3.5 2.7 1 4 .8 1.5 1.9 3 2.5 4.7 1 2.4 1.6 5 2.3 7.5a7 7 0 0 0 1.3 3 4 4 0 0 1 1 2.3c0 2.2 1 4 1.5 6.1.5 2 1 4.2-.2 6-2.6.8-5 1.7-7.4 2.3-2.8.6-5.7.8-8.6 1.2-1.5.2-3 .3-4.5.7-2.3.6-4.5-.2-5.4-2.3 1-.3 2-.7 2.9-.8 3-.3 6-.4 9-.9 3-.4 6-1.1 9-2 1.6-.3 2-1 1.7-2.9-.5-2.7-1-5.4-1.9-8-1.7-5.2-3.4-10.4-5.9-15.3-1-2-1.4-4.3-2.1-6.5l-1.5-3.6c-1.5-4.5-3-9-4.7-13.6-.3-1-.9-2-1.4-3 3.1-1 6-2 8.8-3.1 2.1-.7 2.6-2.3 1.1-4.1l-.9 1c-3-.6-4.3-2.9-5-5.7-.5-1.8-1-3.7-1.9-5.3-1.8-3.2-2.8-6.7-3.9-10.3-.8-2.6-2-5-2.8-7.6-.8-2.6-1.6-5-3.3-7.2-.6-.7-.9-1.7-1.3-2.5l-1-2.5h-.6v2.5l.9 14.3c0 1.4.5 2.7.5 4 0 2.7 0 5.4-.3 8-.5 3 .2 6 0 9-.3 2.7 0 5.5.4 8.3.4 3.3 0 6.8.2 10.2l.3 7.4v8.2c0 .7.3 1.5.2 2.3-1.1 6.1.3 12.2 0 18.4a253 253 0 0 0-.4 11.5c0 4.4.2 8.9 0 13.3-.2 2.7-.4 5.3-.3 8 0 5-.4 10-.5 15 0 4.6 0 9.2.2 13.8 0 3-.5 6-3 8.5 3.2 0 6.1-.3 9 0 4.6.5 9 0 13.5-.6 3-.3 6.2-.2 9.3-.4l6.4-.7c.5-2.9.4-5.6.2-8.3l-.3-2.8c.3-5.2.8-10.3 1-15.4l.8-19.5c0-.9 0-1.7-.3-2.6-.3-2-.2-3.8 0-5.8.3-3.3.2-6.5.3-9.8 0-3.2 0-6.5.2-9.7l.8-13.3c.2-2.6.2-5.2.5-7.8 1.3-12.8 1.3-25.6 1.7-38.5l1.4-35.7c.2-5.3 0-10.6.1-16 .1-5 .5-9.9.8-14.8 0-1.5.3-3 .3-4.4v-22.6c0-1.2 0-2.4-.2-3.7l-.8 1.4-4.1 10.3c-2 4.7-4.2 9.3-6 14-1.7 4.6-3 9.3-4.6 13.8-.5 1.5-1.3 2.8-1.8 4.3-1.3 4.3-2.5 8.7-3.9 13-.8 2.7-1.9 5.3-2.7 8-.5 1.6-.8 3.4-1.2 5.3-1.5 0-3.1.2-4.2-1.5l-1 .6c-.5.6-1.2.7-1.7 0-.3-.4-.7-1.2-.5-1.7.7-2.5 1.4-5 2.3-7.3 1.5-4.2 3.5-8.2 4.3-12.6.4-2.1 1.4-4.1 2.1-6.2 1.7-4.9 3.3-9.9 5.2-14.7 2.3-6 5-11.6 7.4-17.5 2.2-5.2 4.1-10.5 6.4-15.7 1.3-2.8 3.1-5.4 4.8-8 .2-.5 1-1.1 1.4-1 1.6.4 2.7-.6 3.9-1.3 1.5 1.1 3 2 4.4 3.2.6.5 1 1.4 1.2 2.2l3 11.7c.4 1.3 1 2.7 1.7 4 1.7 2.8 1.9 6 2.5 9 .4 2.5.8 5 1.5 7.3 1.4 4.3 2 8.7 2 13.2-.2 5.2.9 10.2 1.7 15.3.8 5 1.3 10 1.9 15 0 .8 0 1.6.3 2.3 1.6 4.3 1.7 9 2.4 13.4.2 1.4 0 3.2-.7 4.4-.7 1-2 2.1-3.6 2.5-2.8.6-5.5 1.4-8.3 1-.3 0-.6.3-1 .4 0 2.2.7 4.2 1.7 6 1.6 2.7 2.2 5.6 2.7 8.6.2 1 .3 2 .8 3 1.6 3 2 6.1 2.5 9.4.5 3.2 0 6.8 2.7 9.5.4.4.4 1.3.5 2 .1 1 0 2 .3 3 .3 1.3 1.3 2.5 1.2 4.1 0 .4.2 1 .4 1.2 2.2 2.3 2.2 5 2 7.9v1l2 5.4c.5 1.2.7 2.5 1 3.7.1.4 0 .7.2 1 1.1 4.6 2.4 9.1 3.4 13.7.6 2.6 1 5.3 1.3 8 0 .4-.2 1.1-.6 1.3-3 1.5-6 3-9.5 3.1-4.2.1-8.4.1-12.5-.1-3.2-.2-6.3-1-9.4-1.3-1.3-.2-2.7-.2-4-.3v5l-.7-.8-.7 11.4h.4l.3-1.5h.2v5.9c0 .2-.4.5-.6.8-.2.3-.6.7-.6 1 .7 1.7-.2 3.5.5 5.5s.1 4.3-.1 6.6l-.4-2c-.9 3.5.6 6.6-.6 9.8-1.1 2.9.4 6.4-1.5 9.8 1 .3 1.6.7 2.4.8 1.2.2 2.4.2 3.6.2h17.3c1.3 0 1.8-.9 1.5-1.9-1.3-4-.5-8 0-12 .8-5.9 2.1-11.8 3-17.7.3-2.9.6-5.8 1.8-8.5l1.1-2.3c.5-1 1.3-1.2 2.4-.9.9.3 1.3 1 1.2 2l-.6 4.8c-1 7.1-3 14-3.5 21.3-.2 3.3-.4 6.8-1.6 10-.5 1.4-.3 3-.4 4.5 1.5 1.6 3.2.8 4.8.6 2.3-.3 4.5-.6 6.7.2h1.3l7.3-1.2c.6 0 1.7.4 2 .9.4.9 0 2-1 2.3-1 .3-2.1.5-3 .4-1.9-.2-3.6 0-5.4.4-1.5.3-3.2.2-4.8.4l-2.2.3-3.6.2-3 .1-1 .2c-3.1-.3-6.2 0-9.4-.7-1.7-.4-3.7-.7-5.4.3-.3.2-.5.3-.8.2-2.2-.2-4.3-.6-6.5-.7l-8.4.2c-2.7 0-5.4 1.1-8.1 0h-.5c-2 1.2-4.1 1-6.2.8h-.5c-2.9 2.3-6 .7-9 .8-4.2.2-8.5-.4-12.8.4-2.4.5-5 0-7.4-.1h-7l-4.5.3c-1.3 0-2.7.3-4 .4-3.2 0-6.3.1-9.5.3-1 0-2 .4-3 .6-.3 0-.7.4-1.1.4-2 0-4-.2-6 0-2.2 0-4.3.5-6.4 1-2.7.5-5.4 1.1-8.2.3-.4-.1-.8-.2-1.2-.1l-9.7 1c-2.6.2-3-.2-2.2-3.2l14-.7c2 0 4.2-.4 6.3-.6l6.8-.8 3.5-.2c-.7-6-1-11.5-.9-17.2l-.3-12.5-7.4 1.2c-2.7.5-5.3.4-7.6-1.3A5.7 5.7 0 0 1 39 323l2.5-9.4 1.7-8-1.5-.5c-3-.6-4.3-2.8-5-5.3-.5-1.7-.4-3.7.2-5.4 1.6-4.8 1.7-9.9 2.6-14.9.1-1 .7-2 1-3l1-3.5 2.7-14.1c.5-2.6.7-5.3 1.3-7.9.5-2.6 1.3-5.1 1.9-7.7l1.1-6.5c.3-1.4.5-2.8 1-4a4 4 0 0 1 3.5-2.5c3-.3 4.7.7 6.6 2.8 2 2.4 3.4 5 4.8 7.8l3.1 5.8c1.4 2.4 2.8 4.8 4 7.2.4.7.6 1.6.7 2.5.3 1.9.2 1.9 1.8 4.1zm8.5 40.2c0 1.5-1 2-2.2 2.3l-8.3 1.6c-2.3.4-4.5-.4-6.5-1.4-1.5-.8-2.7-2.3-2.4-3.9.6-3.2.5-6.6 2-9.7 1-1.7 1.3-3.8 1.9-5.6l1.6-5 3.2-8.3c.4-1.1 1-2.4.2-3.8-2 .5-4 1.2-5.4-1h-.3c-2.2-1-3.7-2.6-3.8-5-.1-2.3-1.4-4.1-2.2-6.1-.2-.5-.7-.8-1.1-1.4l-1.2 6.3.1.8c.7 3 1.7 6 2 9.2.3 3.4-.3 6.8.5 10.1 0 .1 0 .4-.2.5-.7.8-.1 1.6 0 2.4l.7 1.8c-2.3 1.3-3 1-3.7-1l-.2-1.3c-.2-3-.5-6.1-.6-9.2-.2-3.2-.2-6.3-1.1-9.4a13 13 0 0 1-.4-4.6c.3-4-1-7.8-1.5-11.7l-.4-.5c-.3.5-.8 1-1 1.5l-1.6 8.5c-.4 2.6-.8 5.2-1.4 7.8L47 275.2c0 .4-.2.9-.1 1.3.8 5.8-.2 11.5-1.4 17.3l-.3 2.6 7.3 3.4c.4.2.7.7.9 1.2.8 1.6 0 3.2-.4 4.7l-3.3 11.4-1 4.1c1.6.2 2.9.2 4 .6 1.2.3 2 1.8 3.6 1.1l.2-2.5v-5.6a10 10 0 0 1 2.1-6.4c.2-.2.5-.2.7-.3l.8 2 2-2.5c2.4 2.4 2.7 5.3 2.7 8.4l.3 22c0 2.5-.2 5 .9 7.4a3 3 0 0 1 0 2c-1.1 3-.2 5.8 1.1 8.6.6 1.3 1.3 1.7 2.5 1.5 1.7-.2 3.3-.5 4.9-.5 3.2 0 6.4.2 9.6-.7 1.7-.4 3.5-.8 5.4-.3.9.3 2 0 3.1 0l.3-14.5c0-.8.2-1.6.3-2.3.2-2.7.6-5.3.6-8 0-7-.4-14-.4-21v-26.7c0-9.6.3-19.2.2-28.8 0-6.7-.5-13.4-.7-20 0-1.3-.4-2.5-.4-3.6 0-3.3.2-6.5.3-9.8 0-.8-.2-1.7-.4-2.5l-.5-2.7-1.2-16.5c-.1-2.3-.4-4.6-.7-7-.8 1.1-1 2.2-1.4 3.2-.6 1.7-1.5 3.4-2 5.1l-2.7 9.9-.4 1c-1.4 1.6-1.8 3.8-2.5 5.7l-4 11-2.6 6.7 2.8.7c1.8.2 3.6.1 5.4.4 2.3.3 4.9.2 6 2.6l-2.8 8.4-1.6 6.5c-.6 2-1.7 4-2.3 6.1-1 3.1-1.7 6.3-2.6 9.4l-2.2 7.3-3.7 11.2c-1 3-2.3 5.9-2.4 9.2 1.8.7 3.6.5 5.4.3l9.4-.6c.4 0 .8 0 1 .3.4.3 1 .8 1 1.3 0 .4-.5 1-.9 1.3-1.3.5-2.6.7-4.2 1.2zm66.9-161.6h-.6v2.1l-1 23.9-.2 7.8-.1 11v.5l-1.6 8.7c-.4 1.8-.9 3.6-.9 5.5s-.8 3.8.2 5.7l-.1.5c-.4 2.8-1 5.5-1.1 8.3-.4 9.2-.5 18.3-.7 27.5-.1 7.5-.3 15-1.4 22.6-.3 2.2 0 4.6-.1 6.9-.2 2.7 1 5.4.4 8.2-.6 3.6-1 7.3-.3 11l-.3 1.2c-.5 2.7-1 5.4-.8 8.2h3.2a5.5 5.5 0 0 1 5.5-3.5c5.1 0 10.3-.3 15.4-.5 1.8-.1 3.5-.4 5-2-1.9-1.2-2-3.1-2.2-5-.5-4.4-1.8-8.5-3.4-12.6-.8-1.9-1-4-1.5-6l-.8-3.1c-.5-1.6-1.2-3-1.6-4.6a2001.3 2001.3 0 0 1-5.5-22.7l-1.6-7.5c-.3-1.2-.8-2.3-1-3.4l-3.1-13.6c-1-3.7-.6-4.9 2.5-6.9 1.2-.8 2.5-1.3 3.8-2l3.3-1.7-.8-6.5c-.6-5.2-1.1-10.5-2-15.7a184 184 0 0 1-3.3-26.2c-.2-5.7-2.4-10.7-3.3-16zM141 280.8h-.1v3.4h.1v-3.4zM72 304v-.3l-1.4.1v.2H72zM546 347.5c1 .8 1.6 1.2 2.1 1.8 1 1.2.2 3.2-1.3 3.2-3.4.1-7 .6-10.2-.2-3.2-.8-6.4-.5-9.6-.7-2.2 0-2.2.1-3.9 1.7-.3-.2-.8-.3-1-.6-.5-.9-1.2-1-2.1-1-6-.3-11.8-.8-17.7-1-2.4-.1-4.8.1-7.1.2h-14.8c-3.5 0-7-.4-10.4-.1a38 38 0 0 1-11-.4c-3.2-.7-6.6-.2-9.9-.1h-5l-6.6.2c-2.8 0-5.6.7-8.3-.7-.6-.4-1.5-.2-2.3-.2h-11.7c-.7 0-1.5-.3-2.2-.4l-3.8-.4c-.7-1.8-1.8-4-2.3-6.2-.5-2-.3-4.1-.5-6.1l-1.2-6.3c0-.3-.2-.7-.1-1 .4-5.3-1.5-10.3-1.4-15.6l-.1-.7c-.4-2.2-.6-2.5-2.8-2.4l-4.4.2H395c-.6-.2-1-.8-1.6-1a3 3 0 0 0-1.4.2c-.6.1-1.1.4-1.7.6-1.2-.9-1.5-2-1.1-3.2 1-2.7 1.8-5.5 3-8.1l10.4-20.2 4.4-8.1 4-7.8 9.8-18c2.3-4.4 6.4-4.7 11-2.9V240l-2.6-21.4c-.3-2.6-1-5.2-1.5-7.8l-1.8-12.5c-.4-2.8-1.1-5.5-1.6-8.3a55 55 0 0 1-.6-5.6c-.2-2.6-.2-5.3-.3-8 0-.6 0-1.3-.3-2-1.3-4.9-1.3-10-1.5-15l-.6-7.9c-.2-2.5.3-4.8 2.4-6.4l.4-.4c1.5-2.8 4.1-3.7 7-4.2 1.2-.2 2.3-.6 3.5-1h.4c2.6-.3 5.2-.2 7.6-.9 2.4-.6 4.7-1.6 7.3-1.5 1 0 2-.2 3-.4 3.4-.5 6.9-1.2 10.3-1.4 5.2-.4 10.3-.3 15.4-.7 4-.3 7.7.4 11.4 1.4 1.5.4 3 .4 4.6.4 1.7 0 2.7.5 3.8 2.2 1.4 2.4 2.3 5 3.1 7.5l1.9 5.8c1 2.7.5 5.6.7 8.4.1.8 0 1.8.3 2.5 1.5 3.2.9 6.5 1 9.9l.3 10 .4 7.7.9 15c.2 4 .1 8.1.5 12.1.5 5.4 1.3 10.9 2 16.3.1.7.4 1.4.8 2.6l2.4-2.5 11.4-15c1-1.4 2-3 3.2-4.5.8-1 1.8-2 2.8-2.7 2.5-2 4.6-2 7.2-.1.6.3 1.1.9 1.7 1 2.3.6 3.4 2.2 4.3 4.2.5 1.4.9 3 2.5 3.7.4.1.5.8.7 1.3l7.2 15c1 2.2 1.7 4.4 2.4 6.6 1.9 5.8 5 11 8.2 16.2l4.2 6.4c1.2 1.9.7 3-1.6 3.4-.2 0-.6.1-.6.3-.9 1.9-2.7 1.8-4.3 2.1l-2.2.6c-1.7-1.3-4.1-1.4-5.6 0-.4.4-.7 1.2-.7 1.8-.2 1.3-.4 2.6-.2 3.8.5 4.1-.6 8-1.1 12-.7 5.3-1.7 10.6-1.7 16 0 3.3-1 6.5-1 9.7.2 7-1.6 13.6-2.2 20.4l-.9 11.4zm-50 0V346v-15.4l-.3-10.8c0-.9 0-1.7-1-2.2-2.5-1.1-5-1.1-7.6-.4-.5.1-1 .9-1.1 1.5-.6 2.2-1 4.5-1.7 6.7-.9 2.7-1.3 5.4-1 8.3 0 .8.2 1.6 0 2.3-.8 2.8-1.3 5.6-.6 8.6.2.4-.3 1.3-.7 1.4-.5.2-1.3 0-1.7-.4-.5-.5-1-1.3-1-2-.1-1.2 0-2.4.1-3.6.2-2.8.7-5.6.6-8.4 0-2.7.5-5.1 1.3-7.6.5-1.5.6-3.2 1-4.7a55 55 0 0 1 1.3-4.2c.4-1.3 1.4-1.7 2.8-1.5 3.2.2 6.5.6 9.6 1.3 2.8.7 3.3 1 3.3 4l-.3 4.8.1 12.7c0 3.2.3 6.4.5 9.5 0 .4.3.8.4 1.1h3.5l14.3.8c.6 0 1.1-.2 2-.4l-3.2-17.9-3.6-21-1.1-6c-.7-4.3-1.2-8.5-2-12.7-.6-3.7-1.5-7.4-2.2-11-.3-1.5-.2-3.1-.5-4.6l-2.5-12.9-2.3-13.1-1.3-10-1-5.3-1.8-15.8c-.6-4.5-1.2-9-1.6-13.6l-.9-14.9c-.4-10-.8-20-1.4-30-.2-2.5-.7-5.1-1.6-7.5-.8-2.3-2.3-4.3-3.4-6.5-.5-1-1.2-1.3-2.1-1.6-3.1-1-6.2-1.3-9.4-1-5.8.3-11.5.4-17.2.8l-10 1.2c-1.5.2-3.1 0-4.5.5-2.3 1-4.6 1-7 1.1-1.8.1-3.6.5-5.2 1.1-3.2 1.2-4.7 3.5-4.2 7 .4 3-.5 6 1 8.8v11.6c.2 2.7.8 5.4 1.3 8 .4 2.4 1 4.6 1.3 6.9.8 9 2 17.9 4 26.6.6 2.2 1.2 4.3 1.6 6.5.8 5.2 1.2 10.4 2.3 15.5 1.2 5.2.9 10.5 2 15.7v.5c-1 2.5-.3 5 0 7.5.3 2.8.8 5.6 1 8.4.4 3.6.2 7.2.8 10.7.8 5 2.1 10 3.2 15l2.5 13.2 1 5.3c-1-.5-1.4-1-1.8-1-.9.1-1.8.4-2.4 1-.4.3-.3 1.2-.4 1.9v1c0 1.8-.3 2.4-1.5 2.4s-1.4-.4-1.5-2.4c0-.7-.1-1.4-.3-2l-1.4-4.7-5.2-26c-1.2-5.6-2.7-11.3-2.7-17.2l.1-6.6c0-1 0-2-.5-2.8-1.3-2-2.7-4-5.3-4.7l-2.4 3.6c-.8 1.1-1.8 2.2-2.5 3.4-2.1 3.6-3.7 7.5-6.5 10.7l-.8 1.3c-1.6 3-2.8 6.1-4.8 9-2.6 4-4.3 8.5-6.5 12.7-.5 1.1-1 2.4-1.8 3.4a10 10 0 0 0-2.2 4.6c2.5 1.9 5-.4 7.6.2.3 3.3 3.2 1 4.9 2.2.1 1 .3 2.2.3 3.4l.9 12.8 1 11.5c.3 4.8 1 9.5 2.7 14 3 1.1 6 .5 9.1.2.5 0 1.1-.8 1.3-1.3 1-3 1.7-6 1.6-9.2-2 0-4-1-6 .2-1.2.6-2 .2-2.8-.5-.9-.8-1-1.8-.7-2.8l.8-2.7c.6-2.6 1.2-5.3 2-8 .8-2 1-2.1 3.3-1.7 2.3.4 4.7.6 7 .4 2.9-.1 5.7-.2 8.5 0 3 .2 5.8.4 8.7-.4 1.7-.5 3.5-.6 5.3 0 1 .3 2.2 0 3.3 0l2-.5c2.6-.5 4.1 1.1 3.6 3.6l-.6 2.2c-.5 3-1.9 5.7-.8 8.8.3.9-.3 1.5-1.1 1.6-.8.2-1.7.1-2.6.1h-3c-1.2 3.6-2 7-2.3 10.9 4 .3 7.5.8 11 .9h19.8l9.7.1zm39.5.5l.4-2 1.9-18c0-.7-.2-2 .2-2.1 1-.7.7-1.4.5-2.2-.2-.6 0-1.2 0-1.8l.5-5.9 1-9.6c.2-.7.7-1.4 1-2 .2-.4.6-.7.6-1.1.2-1 0-2 .2-3 .1-1 .4-1.9.6-2.8-1.3 1.3-.5 3.2-1.4 5.1-.6-2.4-.5-4.4.4-6 .9-1.6 1.2-3 .7-4.7l1.3-.8c-.8-1.5-1.4-3 0-4.5l.2-.4v-4.6c.1-.8 0-1.9.5-2.2 1.5-1 1.2-2.4 1.3-3.7l.7-6.4c.1-1 .4-2 1.6-2.5l5.2-1.8 1.3-.7c-.1-.5-.2-.8-.4-1l-6.2-10.8c-.8-1.4-1.6-3-2-4.6-1.1-3.5-2.3-6.8-4.3-9.9-.3-.5-.4-1-.6-1.6-.3-1-.5-2.2-1-3.2l-4.7-8c-.6-1-1.2-2-2-3l-1.4 1c-2.2 2.5-4.6 5-6.3 8-.5 1-1.2 2-2 2.9l-5.6 6.2-3 3.7c-.3.5-.9 1-1.4 1.3-2.1 1.2-2.2 1.4-2 3.8.3 2.2.7 4.4.5 6.7-.3 2.5-.2 5.1.3 7.6 1.4 7.2 2 14.4 3.3 21.5.6 3.4.7 6.9 2.5 10 .2.3.4.8.3 1.2-.3 1.5.1 3 .5 4.4 1.2 5.5 2.4 11 3.4 16.6.7 3.6 2 7 .9 10.9-.5 1.7 0 2.4.9 3.5l.3-1.3c.3 1 .7 2 .8 2.9l1.5 9.9.8 3.7c.3.8.8 1.3 1.7 1.3h6.5zM435 335.4l-.4 2.5-1.2 6c-.4 2.6.1 3.2 2.6 3.2l7.4-.2 8.3-.2c.4-3.8 1.8-7.1 2-11-6.4 0-12.5-.9-18.7-.3zm-9.3-3.5h9l-.6-3.2c-2.4-.4-2 1.7-2.7 2.7-2.5-1-3.1-2.4-2.4-4.8.5-2 .3-2.8-1-3.7-2 2.5-2.6 5.4-2.3 9zm28.2.3c-1-4.8-.7-5.6 2-7.9 2-1.8 3.7-.3 5.7.7l.4-2.6c-3 .5-5.6-.7-8.3.2-.3 3.2-2.3 6-2 9.6h2.2zm-16.4-5.4v5h9.3c-1.4-.7-2.3-1.6-3.2-1.6-2.4 0-4.2-1.1-6-3.4zm102.3-6.5c1.4-2.4 1-5 .4-7.4l-.4 7.4zm-94.8 7h.3l.7-4-2.5.5 1.5 3.4zm-10.3-1.7c0-.7.2-1.4 0-1.6-.5-.4-1.2-.7-1.7-.6-.4 0-.7.7-1 1 .3.4.7.7 1.2 1l1.5.2zm24.7 1.8c-1.9-.5-2.4-.1-3 2.3 1.6-.2 2.4-1 3-2.3zm-9.5-3.5a12.6 12.6 0 0 0-1.4 7.4l1.4-7.4zm88 12.4h-.5v6.8c-.1-2.3 1.1-4.5.6-6.8zM438 322.7c-.4 1.2-.7 2 .2 2.7.6-.9 1.2-1.6-.2-2.7zm86.3 12.8l.4-.1-.3-1.4h-.4l.3 1.5zM447 113.4c1.4-.3 2.2-.3 3-.7 1.1-.5 2.3-1.3 3.5-2 .8-.4 1.7-1.1 2.5-1 .6 0 1.2 1 1.8 1.5 1.2 1 2.3 2 4 2 2.9 0 3.2-.4 3.4-2.8a6 6 0 0 1 2.5-4.3c2-1.5 4-3 6.1-4.3 5.2-3 8.8-1.3 12.1 2.3 1.3 1.4 2 3 2.7 4.8 1.1 2.9-.9 5.4-4 6.2l-3.6.8c-.5 2.4 0 3.1 2.2 3.3 3.8.3 6.2 3.2 5.8 6.9-.2 1.5-.4 1.5-2 1.4-2-.2-4-1.3-6.1-.2-1.3.6-2.7.2-4-.5-2.7-1.3-5.2-1.5-7.6.8l-2-1.3c-2.5 1.8-2.3 2-3.7-1.3-1.2-.1-2.6-.3-4-.3l-13 .7H445c-6 0-12.2-.3-18.4-.1-6.1 0-12.3.4-18.4.8-3.4.2-6.8.8-10.2.9h-11.8l-12.5.2c-2.6 0-5.3-.2-8 0-3.8 0-7.8-.5-11.7.4-1 .2-2 .6-3 1-2.6-2.5-3-5.9-.6-8.2 1.2-1.2 2.8-2.2 4.5-2.9 1-.4 2.5 0 3.4 1.2l1.4 1.8 2.4-2c1.6-1.3 2.6-1.5 4-.1 1.1 1 2 .8 3 .3 1.3-.5 1.4-1.5 1.3-2.5-.2-1.4-.4-2.7-.9-4-.5-1.4-1.3-2.8-2-4.1a11 11 0 0 1 .4-10.3c.4-.8 1-1.4 2-1.3.4.1 1 0 1.2-.2 3.3-2.3 6.4-1 9.4.6 1.7 1 3.1 2 5.2 1.9 1 0 2.2 1.2 3.6 2l-.7-1.7-3.4-4.5c-.3-.4-.7-1-1-1-3.4-.8-5.1-3.4-7-5.8-1-1.4-2-2.9-2.6-4.4a117 117 0 0 1-3.5-8c-1-2.4-.8-5-.3-7.4.3-1.4.5-2.7-.2-4-.2-.4-.2-.9-.2-1.3.4-3.3.6-6.7 1.4-10a19 19 0 0 1 2.9-6c2.6-3.8 5.4-7.6 8.2-11.4 2.4-3.3 5.8-5.6 9.4-7.5 1.5-.8 3.4-1 5-1.6l3.8-1 5-1.8c4.9-1.4 9.6 0 14.3.3 3.1.2 5.9 1.4 8.5 2.8.6.3 1.2.7 1.7 1.2 1 1.2 2 2.2 2.6 2.5-1 .7-1 .7-3 .8 2.6 1.5 5 3 7.5 4.2a32 32 0 0 1 11.2 9.1c.6.8.9 1.9 1.2 2.8 1.7 5 1.1 10.2-.1 15.2A115.7 115.7 0 0 1 436.3 93l-3.2 4 .3.5c1 .5 2.4.7 2.8 1.5.7 1.6 1.2 3.5 1.3 5.4.1 1.2-.6 2.6-1 4l3.4 1.5c2.4.9 2.7 1.2 2.2 3.6l-.1 1.3c3 1 3.1 1 5-1.4zm-14.5-1.5c-1-1.4-.2-2.3.5-3.2 1.2-1.5 2-3.1 2.3-5 .2-1.7-.5-2.7-2.2-2.8-1.1-.2-2.3 0-3.4 0-1.7 0-2-.4-1.6-2 .6-2.2 2.2-3.5 3.6-5 1.7-2 3.7-4 5-6.2 4-7.3 7.7-14.7 10-22.7 1.5-4.8 2.3-9.7 2-14.7a5 5 0 0 0-1.1-2.8 36 36 0 0 0-5.4-5.4c-2.6-2-5.5-3.5-8.3-5.1a34.3 34.3 0 0 0-12.2-4.6c-3.8-.6-7.6-.8-11.4-1.3-2.5-.4-4.7.3-6.9 1.3l-6 3c-2.3 1.2-4.7 2.4-6.9 3.8-5.8 3.9-8.5 10.1-11.5 16-.2.6-.1 1.3-.3 1.8-1.7 5-1.5 9.8.6 14.6 1 2.1 1.4 4.6 2.4 6.7 3.5 7 7 14 12 20 1.6 1.8 1.5 4 1.4 6.1 0 1.1-1 2-2.2 2-2 0-4.2-.3-6.3-.5-.3 1-1.1 1.4-2.4 1.2a7.7 7.7 0 0 0-9.6-4.8c-1.7.5-2.3 2.4-1.3 4.5 1.4 3 2.8 6 4.1 9.2 1.3 3.2 1.1 3.8-1.7 5.7-1 .6-1.8 1-2.9.3-1.7-1-3.3-.7-4.6.7l-1.2.8-1.5-1.4c-1.6-1.6-2-1.6-3.3.2l-.7 1.4 9 .6c1.7 0 3.5-.4 5.3-.4 5.2 0 10.4-.1 15.7.1 4.6.2 9.1.1 13.7-.3 6.1-.7 12.2-2 18.4-1h1.3c2.3-.2 4.7-.3 7.1-.3 1.5 0 3 .3 4.6.3 2.5 0 5.1-.4 7.6-.2 3.6.4 7-.3 10.5-.3 4 0 8-.4 12-.4 1 0 2.2 0 2.7.6 1 1 1.8 1 2.8.5 1.5-.8 3.1-.7 4.4.1 3 2 5.9.6 9.2.6-1.1-1.7-2.4-1.6-3.8-1.4-2 .3-3-.5-3.4-2.5l-.6-2.8-1.2.4c-1 .2-2 .7-2.7-.3-.5-.7.4-2.4 1.6-2.9a7 7 0 0 1 1.4-.5l4.8-1 3.7-1c1.3-.7 1.5-1.6.6-2.8-.9-1.2-1.8-2.5-3-3.5-2.7-2.3-6.1-3.5-9.2-.8-1.1 1-2.3 2-3.6 2.7a5.5 5.5 0 0 0-2.7 3c-.7 1.4-1.1 3-1.8 4.5-.2.5-.6 1.1-1 1.2-2.2.5-4.3 1.3-6.4-.4l-2-1.4c-1-.9-1.9-1.2-3-.3l-4.7 3c-.8 0-1.4 0-2.1.2l-4.8 1c-1.6.2-2.1-.3-2.2-2l.1-3c-2.3-1.5-4.7-1.5-7.3-1.1zm-81 12.1l6.7-.8-2.5-3c-1.4 1.4-4 1-4.1 3.8z"/>
  <path d="M188.5 199.2l-21.3 40c-2.4 0-2.9-.8-2-3l1.7-3.7c-1.1-2-3.2 1-4.3-1.4.4-1 .9-2.5 1.6-3.9 3.3-6.3 6.6-12.8 10.1-19 3.3-6 6.8-11.7 10.4-17.4 2.5-4 5.4-7.8 8.1-11.6a5.3 5.3 0 0 1 5.5-2.4h.5c.5.4 1 .8 1.3 1.3.6 1.8 3.8 2 2.8 4.9-.2.6-.2 1.5-.1 2.2l.7 9.5c.3 3.1.9 6.3.8 9.4 0 4.6 1 9 1.1 13.5l-.1 15.1c0 1.7 0 3.3.2 5l1.6 18.3v2.5l-13.4-.7 2 10.2c.6 2.9 1.6 5.5 1.4 8.6-.1 2.5 1 5.1 1.6 7.7l2.7 15a735.7 735.7 0 0 1 4.7 29.8c0 1.6-.3 1.9-2 2.2-1.5.2-2.4 1-2.8 2.4h-6.1l1.2.7v.3l-1.7-.1-10-2.6c-2-.4-4-.2-6-.7-1.7-.4-3.3-1.3-4.9-2.1-.3-.2-.6-.9-.5-1.2 0-.4.7-.8 1.1-.8h2.2c.7-.8 1.2-2 2-2.3.9-.3 2 .1 3.1.3l7.5 1.4c1.3.3 2.6.4 3.8.8 1.3.4 1.8 0 2.6-1.2a5.3 5.3 0 0 0 .5-5.4l-.6 1.6c0-3.1-.2-6-.3-8.8v-1l-1.6-15.1c-.2-1.2-.2-2.4-.6-3.5-1.2-3.5-1.4-7-1.8-10.7l-.1-1c-1.6-1.7-.6-3.6-.6-5.5-.1-3.8-.6-7.5-1-11.3-.4-2.6-1-5.3-1.2-8-.3-2.5.3-3 2.7-3.8 2.2-.7 4.4-1.6 7-2.6l-.4-7-.6-12c0-5.1.2-10.2 0-15.2-.2-6-.7-11.8-1.1-17.7l-.3-7.3c-1.7 1.6-1.8 3.4-2.3 5-2.1 6.6-3.2 13.4-5.4 20-.5 1.6-.8 3.3-1 5-.5 2.7-1.4 5.4-2.1 8-1.2 4.3-2 8.6-2.8 12.8l-1 4.3-.4 2.4v.8l-2.3 7.4c-1.2 0-2-.6-1.9-2l.8-5.4-2 .1c-.1-1-.4-1.9-.2-2.7.7-4 1.6-8 2.5-11.8.1-.8.7-1.6 1-2.4.7-1.9 1.2-3.8 1.5-5.9.3-2 1.2-4 1.7-6.1l1.3-5c.5-1.5.3-3.3 1.9-4.5.6-.5.5-1.8.8-2.6l3.2-8.4c.2-.4.2-1 .3-1.4l-.7-.3zm-21.2 31.3l.4.2.5-.9-.3-.2-.6.9zm33.9-45.7h.2v-1.2h-.2v1.2zM309.9 330.3c.3.4.8.8 1 1.4.5.8 2 1.5.5 2.7l.2.7c1.3 3-.3 5.5-1.4 8-.2.5-.7 1-1.1 1.1l-6.8 3c-.3.1-.8.1-1 .3-2.4 2.7-5 1.7-7.7.7-1-.4-1.8-1-2.8-1.3 1.2 1.6 3 2.1 4.7 3.2l-3-.4c-.7 2.3-2.8 2.3-4.7 2.4H280l-11 .4-9-.3-4.3.2-5.8-.2c-.7 0-1.3.2-2 .3-.5-1-.2-1.8.7-2.2a5 5 0 0 1 2-.6h14.8l6.6-.2 12-.2 7.3-.2c-2-2-2.2-4.3-4.1-5.7-.7-.4-1-1.6-1.2-2.5-.2-1.1-.2-2.3-.3-3.9l-4.4 1.3-2.5.5-7.4 1c-2.2.2-3.8-.8-3.5-2.9.4-3.6-.4-7.3 1-10.8.7-2 1.8-3.7 4-4.4l.6-.2 7.4-.9c1.2-.2 1.8-.8 2-2.2.6-5.7 0-11.4.3-17.2.1-3.7.3-7.5.3-11.3 0-2.7 1-5 1.9-7.4.7-1.8 2.5-2.8 4.2-3.5l8.2-2.8h.3c1.9-2.8 5.3-2 7.8-3.4 2.9-1.7 6-2 9.1-1.1.6.1 1.2.2 1.6.5 3.2 1.7 6 4 7.9 7.1 3.2 5.3 6.3 10.6 9.2 16 3 5.3 5.6 10.8 8.4 16.2.6 1.2 1.6 1.9 2.9 2 4.3.2 8.4 2 12.9 1.9.6 0 1.4.5 1.9 1 1.9 2.2 4 4.2 5 7 .8 2.5 2.2 4.7 3.4 7 .7 1.2.8 2.3 0 3.6-.4.9-1 1.2-2 1.3l-13 .8c-1 0-1.6-.4-1.8-1.3-.5-1.6.5-3 2.2-3.4 2-.6 3.1-2.5 2.5-4.5l-.2-.5c-.9-3-2.4-5-6-5.2-3-.1-6.2-1-9.3-1.6-3.2-.7-5.4-2.9-7-5.6-4-6.2-7-13-10.3-19.5a81 81 0 0 0-9-14.4c-1.5-2-3.1-2.2-5.3-1.3-3.2 1.2-6.5 2.2-9.7 3.3l-.4.3c-1.5 2.3-4.4 2.6-6.4 4.2-.9.7-1.3 1.4-1.3 2.5v19c0 1.7.4 3.3.1 5-.4 2.4-1 4.9-.8 7.5 0 .7-.8 1.8-1.4 2.2-2.2 1.4-4.4 2.6-6.7 3.8-.6.3-1.2.7-1.9.8-2.5.2-4.6 1.5-6.7 3.2v3.7c2.2.8 4.4.7 6.6.3 1.6-.3 3.2-.8 4.7-1.3a4 4 0 0 0 1.7-1l3.5-4.5c2.4-2.6 5.3-4.3 9-3.2 1.5.4 3 .6 4.6.9 2.8.6 4.3 3 6 5l-2.4-.8 2 3.6.5-.1-.2-3zm-6.2 9.2l-1.7 1.4c-1.4.9-3 .8-4.1 0-1.2-1-1.5-2.8-1.2-4.3.4-1.2 1.5-1 2.2-1.5 1.8-1.4 1.8-1.4 3.5 0l.8.4.4-.3-1.8-2.7c-.5-.8-1.2-1.4-2.3-1.2-.7.2-1.4-.2-2 0-.9.1-2 .4-2.5 1a8.4 8.4 0 0 0-1.8 5.8c.1 1.4.7 2.3 2 2.8 1.4.6 2.7 1.2 4 2 1.7 1.1 3.6.5 4.1-1.5l.4-2c.1-.7.7-1.5-.3-2.2l.3 2.3zm24-51.3c.6-1.2.2-2-1.1-2.1l1 2.1zm-40.4 49.2c-.2 2.1-.2 2.1 1 3l-1-3zm36.1-56l.3-.2-.6-1-.3.3.6.9zM232.3 78.2l-.3-.6c-2.4-1-3.5-3.6-5.8-4.8-2.2-1.2-4.6-2.3-6.8-3.6-1.8-1.2-3.5-2.6-5.3-4-.3-.2-.5-.7-.6-1-.4-5.1-.9-10.2 3-14.4.7-.8 1.2-1.8 2-2.7 2.4-3.2 5.5-5.6 9-7.8 2.3-1.5 4.3-3.6 6.5-5.5l2.8-2.5c2-1.8 4-2.9 6.7-2.7h.6c3-1.2 5.7-.2 8.4 1 2.8 1.3 5.7 2.4 8.2 4.2 4.3 3 6.2 7.7 7.1 12.7.6 3 1 6.2.3 9.4s-2 6.1-4.4 8.5l-7.5 7.4 3.5 1.4c2.7 1 4.4 1.2 4.3 5.3 0 1.6.8 3.2 1.5 4.7.5 1.1 1.9 1.2 3.5.6l1.6-.8 1.3-.7c1.9 1 4.6 1.1 6.8.5l-.1-2c-.2-2.4.3-4.6 1.8-6.5 3.8-4.8 9-7.5 14.7-9.2 2.3-.7 4.2.3 5.9 1.8a14 14 0 0 1 3.8 6.9c.5 2 .9 4 .4 6-.4 2.1-1 2.8-3 3.3-.8.2-1.7.5-2.4 1-.4.2-.8 1-.7 1.3.2.4 1.1.9 1.4.7 2.6-1.5 4.7.4 7 1 1.4.3 1.8 1 1.6 2 0 .7-.3 1.3-.6 1.8l-2.2 3.2-3.8.4h-1.3c-5-1.7-10.2-.8-15.3-.9-1.7 0-3.5 0-5.3-.3-3.4-.4-6.7-.5-10.1 0-3.5.7-7 1-10.4 1.3l-3.9-.1c-2.4 0-5-.3-7.4.2-2.4.6-4.8.2-7-.2-1.8-.4-3.4-.1-5-.3-1.4 0-2.8 0-4 .5-3.8 1.2-7.5.7-11.3.4-2.3-.3-4.7-.1-7.1-.1-.7 0-1.4-.3-2-.2-.7 0-1.3.3-2 .6-1.4-.7-1.9-2.8-3.9-2.2-1.6-2.6-.6-5 .2-7.3.3-.8 1.5-1.5 2.4-1.8 2.2-.6 4.5-1 6.8-1.3 1.3-.2 2.6 0 3.5 1.5.5 1 2 .8 2.4-.3.5-1 .7-2.3 1-3.6 2.3-.6 4.4-2.3 7.2-1.6.6.2 1.4-.3 2.3-.6zM261 59.6c-.6-2.3-.7-4.3-.3-6.3.2-.8.2-1.7 0-2.4-1-3.3-2-6.6-3.3-9.7a7 7 0 0 0-2.6-3.4 21.8 21.8 0 0 0-6.9-2.7c-2-.4-4.4-.2-6.1.7-1.9 1-3.6 2.9-4.6 4.7-1.6 2.8-4 4.3-6.7 5.3a15.9 15.9 0 0 0-7.4 6c-1.6 2.3-3 4.7-4.6 7.3.6.7 1.1 1.7 1.8 2.5.7.7 1.8 1.2 2.2 2.1 1 1.9 2.7 2.7 4.2 4 3 2.3 5.8 4.8 8.5 7.3 1.2 1 2 2.7 1.1 4-.6 1-1.2 3-3.3 2.6-.3 0-.7.4-1.1.5-3.9 1.4-7.2 3.8-10.7 5.8-1 .6-1.7.6-2.5-.2l-1.9-1.5c0 1.3-.1 2.1-1.3 2.2-1 0-2 .3-3 .5l-2.1.9v.6c.6.3 1.2.9 2 1a174 174 0 0 0 12.8.8c2 0 4.3 0 6.5-.3 3.2-.5 6.4-.9 9.7-.5 1.7.2 3.4.6 5 .6 4.5-.2 8.9-.8 13.4-.1 1 .1 2.2-.2 3.3-.3 3.5-.4 7-1 10.7-1.3 2-.2 3.9.1 5.9.2l6 .3c2.1 0 4.2-.3 6.2-.3 2.1 0 4.2.3 6.3.4.8 0 1.6-.3 2.4-.4-1.5-.6-3.1-.6-3.3-2.5a3.4 3.4 0 0 0-1.6-2.5c-1-.7-1.1-1.8-.4-2.7.6-.7 1.4-1.2 2.3-1.6.9-.4 2-.5 2.9-.9 2-.7 3-2.2 2.3-4.3-.4-1.6-1-3.1-1.7-4.6-1.2-2.4-5.6-4.5-8.3-2.6-1.5 1-3.2 1.5-4.8 2.4-4.9 2.5-8.1 6.1-7.6 12.1 0 .8-.2 1.7-.5 2.5-.4 1.4-2 2-3.2 1.3l-1.6-1.2c-2.3 1.1-2.3 1.1-4.3 0l-3.2 1.1c-2.1.7-2.5.5-3.4-1.3-1.1-2.3-1.1-2.3-3.4-2.4-.7-1.8-.7-1.8.2-3.5 1.2-2.5.6-3.7-2-4.2-2-.4-4-.4-5.9.8-1.3-1.5-1-3-.5-4.4 1.3-3.3 4-5.4 6.5-7.5 2-1.7 3.6-3.7 5.1-5.8.5-.6.7-1.6 1-2.4l-.6-.3-3.6 3.6zm43.5 30c-1.2-.7-1.8-.6-2.7.1l1.2.6c.4 0 .7-.3 1.5-.6zM367.1 135.7c1.4 1.4 1.8 2.3 1 3.4-1.3 2-2.8 3.8-4.2 5.8-.2.2-.4.6-.7.6-3 1-4.7 3.5-7.1 5-1.6 1-3.3 1.8-5 2.6-1.4.7-2.9 1.2-4.3 1.8l-1.7.4c-3.8 1.1-7.8 1-11.7 1.3-3.7.4-7.6.3-11.4.4-.6 0-1.2.1-1.7.3-3.6 1.3-7.3 1-11 1.2-4.2.2-8-1.2-11.7-2.6a86 86 0 0 1-22.5-11.8 35.5 35.5 0 0 1-13.4-22.8c-1-6-.5-11.9 1.2-17.7.3-1.2 1-2.2 1.5-3.2l2.7-4.3c.6.9.3 2.2 1.8 2.1.3 0 1.2 1.2 1 1.7-.3 1.9-.6 3.4 0 5.4.6 1.6-.3 3.7-.6 5.5-.4 2.3-.4 4.6-.3 7 .1 3.4 1.3 6.5 2.6 9.5 2.7 6 7.4 10 13 13.4 7.6 4.4 16 6.8 23.8 10.3 2.7 1.2 5.5 1 8.4.3l4.7-.7c1.6-.2 2.8.5 3.7 1.7.5.8 1.2 1 2 .9 4.8-.3 9.6-.3 14.4-1 3.5-.4 7-1.6 10.3-2.8 1.6-.5 3-1.7 4.4-2.6l4.5-3.4c2.4-1.6 4.7-3.2 5.3-6.3.1-.5.7-.9 1-1.4z"/>
  <path d="M324.8 327.6c1.4-2.5 3.2-4.6 6.3-5 .3-.1.6-.3.8-.2 3.5 1 7.5.4 10.8 2.5 1.1.7 2.3 1.2 3.5 1.7 2.4 1.2 4 4.4 3.5 7.4l-1-1.4c-.4 1.3-1 2.4-1.1 3.6-.4 2.3-1.8 3.7-3.4 5.1-2.3 2.1-4.5 4.2-7.6 5.4.5.4.7.6.9.6l15.6-.2 10.8.3c3 .1 6 .3 9 1.4 1.3.5 2.9.3 4.3.3l8-.5c.9 1 .6 2.1 0 3-.6 1.2-1.6.7-2.6.7-3.7.3-7.3-.2-11-.6-7.1-1-14.4-.7-21.6-.8-2.3 0-4.7 0-7 .2-1.3.2-2.7-.2-4-.2h-14.3l-9.2.2c-.8 0-1.7-.3-2.6-.5 0-1.3.6-1.8 1.6-2 1 0 2-.4 3-.5 1.7-.3 3.4-.6 5.2-.7h4.2l-1.1-1.5a5.1 5.1 0 0 1-1.9-4.3c0-2-.2-4-.5-6.1-.5-2.8.2-5.4 1.4-7.9zm15 6.5c1.2-2.4.7-4.2-1.6-4.6-2.6-.5-5.4-1.7-7.9.8-.8 1-1.5 1.7-1.9 3-.5 1.4.5 2.5.8 3.8a3 3 0 0 0 2.3 2.4l5.4 1.5c.5-3.3.5-3.3-2.8-4.3-1-.3-1.5-1-1.3-2.1a6.7 6.7 0 0 1 3-4.4c.8-.6 1.7-.5 2.3.6l1.7 3.3zM368.3 61.7c-1.3 0-1.9-.7-2-1.8l-.3-2.8c-.1-1.3-.3-2.5-1-3.6-.6-.8-.6-2-.8-3-.4-1.7-.7-3.5-1.2-5.2a7 7 0 0 0-3-3.8c-1.1-.7-2.1-1.8-3.1-2.9-.9-1-1.7-1.4-2.9-.6-1.5 1-3.1.7-4.7.3-2.8-.5-5.5-1.3-8.3-1.6-2.4-.2-4.8.2-7.2.4-1.4 0-2.9.3-4.3.5-2.2.2-4.4.2-6.5 1.2-1 .5-2.4.5-3.5.6-2 .1-4 .3-5.6 1.6-1 .6-2.2 1-3.3 1.3-5.4 1.4-9 5.4-13 8.8-2.3 2-4 4.4-6.8 5.8-.6.3-.9 1.2-1.3 1.8a4.8 4.8 0 0 1-5.5 2c.4-2.8 1.8-5 3.4-7 1.4-1.8 3.2-3.3 4.4-5.1 3.4-5 8-8.5 13.1-11.2 3.6-1.9 7.4-3.6 11.3-4.3 4.2-.7 8.3-2.5 12.8-2 1.5 0 3.1-.8 4.7-1.3a7 7 0 0 1 4-.3c.8.2 1.6-.2 2.4-.1 2 .2 4 .3 5.9.7 2.4.5 4.8 1.6 7.3 1.8 2 .2 3 1.4 4.2 2.5 1.5 1.5 3 3 4.5 4.2 1.3 1.1 2.2 2.3 2.7 4 1 3.2 2.2 6.2 3.1 9.4a39 39 0 0 1 1.2 6.8c0 1-.4 2-.7 3zM228.1 340c-1.2.5-1.5-.3-1.8-1-.8-1.2-1.8-1.8-3.4-1.6l-1 1.3c-.6 1-.4 1.7.4 2.5a6 6 0 0 1 1.3 1.9c.4.7.3 1.6-.6 1.9-.4.1-1.4-.2-1.7-.7-1.6-2.5-2.8-5.2-1.2-8.1.8-1.7.5-3-.5-4.4-1-1.4-1.4-3-1.6-4.7a19 19 0 0 1 4.7-15.4l2-2.3c2.2-2 4.7-2.9 7.7-3 4.6-.2 7.3 2 9.6 5.8a18 18 0 0 1 2.4 12c-.2 1.8 0 3 1.4 4.3 1.4 1.3 2 3.4 3.2 5.5 2.4.6 5.3 1.2 5.2 5l3.7 1.2c1.7-1.4 3.4-3.7 6-2 2 1 2.2 3.8 1 6.2-1.6-.3-2-3.4-4.5-1.9-.7 1 .2 3-2 3.3-1-.9-1.3-2.6-3.4-2.5-1.4.1-2.9-.4-4.1.4-1.7-1.6-1.7-1.6-.2-5-1.9-1.2-2-1.2-3.4.2-.6.7-1.2 1.5-2 .8-.6-.5-1.1-1.5-1-2.2.3-1.4 1-2.8 1.5-4.4-1.1-1.8-1.8-2-4.2-.8-1.6-1.1-1.8-2-1-3.5 2.3-5.3 2-10.5-.9-15.5-.3-.5-.8-1-1.2-1.2-2.8-1.6-5.5-2.8-8.6-.9l-.2.1c-3-.4-4.3 2.2-5.9 4-1 1-1.4 3-2.2 4.4a11 11 0 0 0-1.4 6.4 5 5 0 0 0 1.6 3.7c1.1 1 2 2.2 3.3 3 2.6 1.9 3.1 4.3 3 7.1zM314.4 305.3c1 .8 2.2 1.6 3 2.6 1.4 1.5 2.5 3.2 3.7 4.9 1 1.3 2.3 2 4 2.3l1.4-4.9c1.3.7 1.7 1.7 1.6 2.8-.2 2.3-.5 4.6-1 6.9 0 .4-.5.8-.9 1.2-.4-.3-1-.6-1.1-1-.2-1.3-.8-1.8-2-2l-1.5-.3c-1.4-.1-2.1-.9-2.7-2-.6-1.2-1.4-2.4-2.2-3.5-.5-.7-1.2-1.3-2-2a9.4 9.4 0 0 0-.7 6c.2 1.5 0 2.6-1.6 3.3-.8-.4-1.2-1.1-1.2-2 .1-2.2.2-4.5.5-6.7.2-1.3.7-2.6 1-3.9.3-.9.8-1.6 1.8-1.7z"/>
  <path d="M314.5 305.4l-.8-1a9.3 9.3 0 0 1-.2-13.8c1.2-1.2 2.1-1.2 3.3 0a9 9 0 0 1 2.7 5.4c.2 2.2.2 4.4.1 6.6 0 .6-.7 1.4-1.3 1.6-1.2.6-2.6.7-3.9 1v.2zm-.4-11.5c-.8 2-1.7 3.9-.8 5.8.4.7 1.3 1.4 2 1.6 1 .1 2-.3 2.3-1.4.7-2.1-1-5.2-3.5-6zM207.1 351.9h16.2c2.4 0 4.7-.2 7.1-.3h3.1c.3.1.9.6.9.8 0 .4-.4 1-.7 1.2l-5.2.8-4.8.3-.7.1-14.1.2c-3 0-3.3-.4-1.8-3.1zM256.8 114c1.2 1.9 1.2 2.4-.8 3-2.2.6-4.5.8-6.8 1-1.8.2-3.6.4-5.3 1.4-1 .7-2.4 1-3.7.5-1.5-.6-3-.5-4.4.2-.7.3-1.3.5-1.7-.4-.3-1 .4-1.3 1-1.5.9-.2 1.8-.6 2.6-.5a20 20 0 0 0 8-1.2c2-.7 4.2-.8 6.2-1.3l5-1.2zM225.9 201.6c4.5-5.5 9.3-10.6 15-15.2.8 1 .7 1.8.2 2.5-.8 1-1.6 2-2.6 2.8-1.4 1.2-3 2.2-4.5 3.3-.4.3-.6.8-.8 1.2-1.3 2.8-3.8 4.1-6 5.9h-1l-.3-.5zM400 153.2c-3-1.6-6-2.7-8.1-5.5-.8-1.1-.8-2 .1-2.7l6.6 4.4c1.3 1 1.7 2.1 1.3 3.8zM304.5 180c-.4 4.5-2.3 8-2.9 12.1-2.1-1.1-2.7-2.5-1.7-4 1.1-1.8 2-3.5 2-5.7 0-1.2 1-1.7 2.6-2.4zM368.2 191.1a8.2 8.2 0 0 1-3.5-5.6c-.3-1.5-1.1-2.9-1.7-4.3-.4-1-1-2 0-3.3 3.1 4 3.4 9 5.2 13.2zM214.2 217c-1.6-1.6-1.8-1.9-.6-2.9 1.5-1.3 2.8-2.6 3.5-4.5.1-.4.4-.8.7-1.3 1.8 2.2.4 3.8 0 5.4-.5 1.9-2.6 2-3.6 3.4zM371.4 197c.7 1.8.2 3.9.8 5.7.6 1.8 1.6 3.5 2.4 5.2-.8.8-1.4.3-1.9-.3-1.5-2.2-2-4.7-2.2-7.2 0-1.2.2-2.3.4-3.4h.5zM308 167.6c-.7-2.4 0-4.4 2-6 1 .3 1.5 1 1 1.7-.6 1.6-1.6 3-2.4 4.6l-.6-.3zM382.9 223.7c-2.8-2-3.8-5.8-2.9-9.1 1.4 1.2.7 3 1.2 4.3l1.7 4.8zM306.6 171c1.8 2.3.8 4.9-2.3 6-.7-1.5.6-2.1 1.1-3 .6-1 .8-2 1.2-3zM358 163.7c1 1.8 2.5 3 2.1 5.2-2.5-.6-3.4-2.7-2.1-5.2zM258.3 166.3c.1.4.6 1 .4 1.3-.3.7-.8 1.4-1.4 2-.3.3-1.1.6-1.3.4-.3-.3-.6-1-.5-1.5.1-1.1 1.5-2.3 2.8-2.2zM273.4 150.6c1 2 .5 3.4-1 4-.3 0-1 0-1.1-.2-.2-.4-.3-1 0-1.4.5-.8 1.2-1.5 2-2.4zM204.8 127.3c-.4-.9-.3-1.4.8-1.6 2.2-.4 2.5-.3 3.2 1.6h-4zM279.6 340c-1.6 1.6-3.6.8-5.4 1 1.6-1.5 3.5-.7 5.4-1zM221.7 123.1c-1.1.7-1.9 1.2-2.7 1.5-.2.1-.7-.1-.8-.3-.1-.3-.2-.8 0-1 .8-.7 1.7-1.4 3.5-.2zM308 349.2c.6 1.4-.5 2-1 2.8-1.4-1.5-1.4-1.5 1-2.8zM246.9 179c-.6-1.4-.4-2.2.7-2.9 1.4 1.3.2 1.9-.7 3zM324.8 327.6l-1.3.8c.3-1 .3-1 1.3-.7v-.1zM141.5 325.1v0zM463.7 193c1.7.1 2.9-.1 4-1.1.4-.4 1.3-.6 1.9-.5l4.2 1c1 .2 2 .5 3 .5 1.6 0 2.5.7 2.7 2.4l1 12c.3 3 .5 6.2 1.9 9 .2.5 0 1.1 0 1.7-.6 0-1.3.2-1.8 0-.8-.4-1.5-.8-2.4-.4-2.3 1.2-4.5.2-6.7-.4a14 14 0 0 0-3.6-.3c-2.6-.9-3-3-3.2-5.5l-1.1-13c0-.4-.2-.8 0-1 1-1.3.4-2.6.1-4.3zm14.8 21l-.2-2.1-1.7-12.5c-.5-4.1-.4-4.1-4.4-5.2-2.5-.7-3.7 0-4.3 2.6a44 44 0 0 0 0 14.3c.3 2.6 1.8 3.6 3.8 4.4 2.6 1 4.6-.6 6.8-1.5zM458.6 186.6v.7c0 3 0 3.1-3.2 3.5-2.2.3-4.4.8-6.6 1-3 .2-4.4-.9-4.8-3.9l-.8-9.2c-.1-1.6 0-3.2-1-4.7-.9-1.5 0-2.7 1.7-2.2a11.1 11.1 0 0 0 7.2-.5c4-.5 5.4-1.2 5.5 4.3 0 2.1 1 4.3 1.4 6.4l.8 4.5h-.2zm-11.4 2.7h2.4l3.3-.5c2.7-.4 3.1-.8 2.7-3.5-.6-3.4-1.5-6.8-2.3-10.2-.1-.4-.8-1-1.2-1l-5.1.9c-.5.1-.9.8-1.1 1 .2 1.3.6 2.5.4 3.5-.7 3.3.5 6.3 1 9.8zM503.2 268.5l-4 .4-2.7.3c-.8.2-1.8.7-2.4.4-1-.5-2.1-1.4-2.4-2.4-.6-2-.9-4.2-1-6.3-.2-2 .1-4 0-6 0-1.3 0-2.8-1.3-3.9-.4-.2-.6-1-.4-1.3 0-.3.8-.5 1.2-.5 2.5 0 5 .2 7.4.4.9 0 1.8.3 2.4.7.8.5 1.4 1.3 1 2.4-.8 3.3-.1 6.4.8 9.6l1.4 6.2zm-4-2.4c0-1.2-.2-2.3-.3-3.5-.4-3.4-2.5-6.6-1.2-10.6l-4.2.3.5 13.4c1.8.8 3.3 1.1 5.2.4z"/>
</svg>
