<svg xmlns="http://www.w3.org/2000/svg" viewBox="0 0 560 436">
  <title>Illustration d'interface web</title>
  <path d="M510 417.8l-19.3-.6c-3.7 0-7.4 0-11.1-.2-3.2-.3-6.4-1.2-9.6-1.6l-14.3-1.3c-2.2-.2-4.4-.6-6.7-.7-3.3-.2-6.7-.5-10-.3-3.6.1-7-.2-10.5-.5-3.1-.3-6.2-.1-9.4-.2-1.5 0-3-.3-4.7-.3l-9.6-.3c-1.6 0-3.2 0-4.4-1.7-.5-.7-2-1-3.2-1-14.7.1-29.4-1-44.1-2h-4l-21.8-.6c-4.7-.2-9.4-.7-14.1-.8-5.8-.2-11.6-.2-17.4 0-6 0-12 .5-18 .6l-22.6.4c-7.1.3-14.2 1-21.3 1.1-5.7.2-11.4-.1-17.1-.2-7.7 0-15.4 0-23.1.2-4.4 0-8.8.3-13.2.7-3.3.2-6.7.8-10 1-2.8.2-5.5 0-8.2.3-3.4.2-6.8.8-10.1.9-6.2.1-12.2 1.3-18.2 2-6.3.7-12.5 1-18.8 1.5l-15.6 1c-5.7.4-11.3 1-17 1.3-4.2.1-8.3 0-12.4-.5-7.2-.8-14.3-1.6-21.4-3-7.6-1.4-15-3.5-21.5-8a19.3 19.3 0 0 1-8.2-10.6c-.9-3.1-2-6.3-2.8-9.4-1.3-4.8-.6-9.6-.4-14.4l.1-5.9.6-8.7c.2-3 .4-6.2.8-9.4.2-2.4.5-4.9 1-7.3.9-5.4 1.7-10.8 3-16 1-5.1 2.5-10.1 3.8-15.2l4.2-16.8 4.4-15.7c.8-3.3 1.4-6.8 1.9-10.2 1-7.1 2-14.2 2.7-21.4.3-2.7 0-5.4 0-8.2l.2-12.8c0-2.8-.2-5.5-.3-8.2l-1-14.9-1-17.3-1.4-17.5c-.4-5.5-1.1-11-1.6-16.5l-2.1-26.7-1-9.9-.2-9.6.1-22.1c0-3.2.6-6.3.6-9.4-.2-6.9.7-13.8-.8-20.6-.2-.6-.2-1.3-.2-2v-9.1a22 22 0 0 1 7.1-16.6c1.7-1.4 3.5-2.2 5.5-2.8 5-1.6 10.2-2 15.5-2.2 3.6 0 7.2-.6 10.8-.8l10.6-.7c7.3-.5 14.6 0 21.8.6 2.5.2 5 0 7.5 0 5.5.1 11 .3 16.6.3l15.4-.3c7.4-.2 14.7.4 22 1.3 8 1 16.2 1.3 24.3 1.1 9.9-.2 19.7-.7 29.5 0l15.3 1.5 11 .3c9 .2 18 .5 27 .5 6.6.1 13.2-.2 19.9-.2l33.5.3h20.8c3.8.2 7.6.8 11.4 1 4.1.4 8.3.5 12.4.9 6.8.6 13.6 1.5 20.5 2.1 10.7 1 21.4 2 32.1 3.2 7.4.8 14.8 1.6 22.3 1.5 12-.2 24-.2 36 .5 5 .3 10.2 1 15.3 1.4 1.3.2 2.6.4 4 .4 5.3.4 10.4 1.6 15.4 3.6 1.8.7 3.9 1 5.4 2.2 3.3 2.3 6.9 4.3 9.7 7.2 3.8 3.8 6.9 8 9.6 12.6l.4.6c1.3 5.6 4.4 10.7 4.2 16.6-.1 2.1.6 4.2.8 6.4v6.8c.1 1.6.4 3.2.4 4.7l-.1 5.2v1.5l-.2 6.1c0 1.2-.3 2.4 0 3.5 1 4-.2 7.9-.3 11.8-.2 4.4-.6 8.7-.9 13l-1 16.2-.6 8.1c-.6 5.3-1.5 10.6-2.1 16-.5 4.1-.8 8.3-1.2 12.5l-.1 1.5c-1.4 5.8-1.3 11.6-1.4 17.5l-.3 7c0 2.7.3 5.3.6 8 .7 6.5.5 13.1.4 19.7 0 3.6.3 7.1.4 10.7l.3 18c0 3.4-.5 6.8.4 10.3.5 2 0 4.3 0 6.4.1 2.7.4 5.4.7 8.1.4 4.3 1 8.6 1.3 12.8.2 3.1.2 6.3.3 9.4l-.2 3.2.5 6 1 12.1.5 3.9-.1 1c-1 1.4-.4 3-.4 4.5l.4 11.6c0 2.7.6 5.3.7 7.9 0 1-.4 1.9-.5 2.8-.1 2-.3 4.1-.1 6.1.4 4.5 1.3 8.8 1.6 13.3.2 2.6-.4 5.2-.6 7.8a627.3 627.3 0 0 1-1.1 9.3c-.5 1.3-.8 2.7-1.4 4-.4.8-1 1.7-1.8 2.2-1 .9-2.3 1.5-3.6 2.2-1.2.6-2.5 1.4-3.8 1.6l-21 2.2v-.4zM40.4 83.7c.5 4.9-.2 9.8.1 14.8.3 5.1.6 10.2.2 15.3-.2 2.5.4 5.2.8 7.8.3 2.1 1 4.3 1 6.5.3 3.2.3 6.5.3 9.8 0 .4 0 .9.2 1.2 1.4 3.6 1.3 7.3 1.4 11 0 2.1 0 4.3.3 6.4.2 2.1.7 4.2 1 6.4l1.8 17.7c0 .6.2 1.2 0 1.7-.6 3.6.5 7 .8 10.6l.2 3.4c0 2.4-.4 5 .2 7.3 1 4 1.4 8 1.5 12v11c0 .7.1 1.6-.2 2.2-.9 1.6-.6 3.2-.1 4.8.4 1.4.8 2.8 0 4.3v1.4c.2.9.6 1.8.5 2.6L48 264.7c0 .3 0 .7-.2.9-1.8 1.8-1.5 4.3-2 6.5l-.7 3.6-3.9 14.1A511 511 0 0 0 29.1 347l-.7 9.4c-.2 1.8-.6 3.6-.7 5.4-.2 4.7 0 9.5-.4 14.2-.3 4.5.9 8.7 1.8 13 1.7 7.2 7.2 11 13.3 14l1.2.3c2.5.4 5 1 7.6 1.3l22.3 3.2c2.3.3 4.7.2 7 0 7.3-.3 14.7-1 22-1.4 10-.4 19.9-1 29.7-2.4 7.2-1 14.5-1.8 21.7-2.4 8.4-.7 16.9-1.1 25.3-1.8 13.4-1 26.8-1 40.2-.8 6.4 0 12.9 0 19.3-.3 7.8-.3 15.5-1 23.3-1.2 8.2-.3 16.4-.4 24.5-.5 7-.1 14-.4 21.1-.3 7.1 0 14.2.5 21.3.8l28.8 1 4.5.1 15.8 1c4.1 0 8.3-.4 12.4 0 4.3.4 8.5.5 12.8 1 5.4.7 11 .5 16.4.7l8.6.3c2 0 4 .3 5.9.4l1.2-.2c1.8 0 3.6-.3 5.4-.2 4.8.4 9.6 1 14.4 1.3 5.3.4 10.7.6 16 1.7 2.5.5 5 1 7.6 1 4.6.3 9.1.3 13.6.3 3.4 0 6.7-.2 10 .2 7.4.8 14.7.4 22-1 1.9-.5 3.8-1.7 5.4-2.8 1.5-1.1 2.3-2.8 2.2-4.8-.1-2 .1-4.1.6-6.2.5-1.8.8-3.8.5-5.6-.8-4.5-.8-9.1-1.5-13.7a96.5 96.5 0 0 1-1.5-16c0-3.8-.6-7.7-.4-11.4 0-3.1-.3-6.1-.5-9.2L528 317c-.2-3 0-6.2-.3-9.2l-1.1-11.6-1.2-21.8c-.2-5.5-.3-11-.7-16.5-.5-7.2-.2-14.4 0-21.6V229c-.2-4-.7-7.9-.8-11.8-.2-9.5 0-19 1.1-28.3l2.5-19.7c.2-2 0-4 .3-6 .5-4.3 1.2-8.6 1.6-13 .7-7.6 1-15.3 1-23 0-1 0-2.1.2-3.2 1-4.7 1.1-9.5 1.2-14.3l-.1-9.4c0-1.6-.4-2-2-2-.6 0-1.2-.2-1.8 0-2.6.8-5.2.1-7.8 0l-4.4-.2c-1.4 0-2.8 0-4.2-.2l-10.3-.9c-2.7-.2-5.5-.1-8.2-.5a52 52 0 0 0-11.2-.5l-4.4-.3c-1.9-.2-3.7-.7-5.6-.7-4-.2-8.1-.1-12.1-.3-2.6 0-5.1-.4-7.7-.5-4.8-.2-9.7-.2-14.5-.5-4.3-.2-8.6-.8-12.8-1l-11.9-.3c-4.7-.1-9.4.2-14-.5-2.2-.4-4.3-.5-6.4-.6-2.8-.1-5.6-.5-8.4-.1-2.3.2-4.6-.4-6.9-.6l-16.3-1c-2.6-.3-5.3-.5-7.9-.5-5.2 0-10.4.2-15.6 0-4.2-.1-8.3-.6-12.5-.5-6 .2-12-.2-18-.2l-15 .2c-5.9 0-11.8-.3-17.8-.4-3.1-.1-6.3-.5-9.4-.2-3.4.4-6.7-.2-10-.3-4.4 0-8.6-.3-13-.5l-.4.1c-2.4.2-4.8.5-7.2.4-5-.1-10-.8-15-.6-4.3.2-8.4-.8-12.6-.1-3.4.5-6.8.3-10.2.3h-8.9l-13.4-.7c-3.4-.1-6.9-.2-10.3-.5-5-.5-9.8-1.2-14.7-1.8l-5.7-.3c-3.5 0-7 0-10.4-.3-4.2-.2-8.4-.6-12.6-1-2 0-4.2 0-6.3-.7-1.3-.4-2.8-.3-4.1-.3-3.2 0-6.2.7-9.4.2-2.8-.5-5.7-.6-8.6-.6-2.6 0-5.1.3-7.7.4l-14.6.1H59c-3.7 0-7.4.2-11 1.1a8 8 0 0 1-3 .1c-1.5-.2-3-.2-4.5.7zm491 11l.3-2c-.3-6-.5-12-1.2-18-.3-3-1.6-5.8-2.3-8.8a35.3 35.3 0 0 0-7-13.7c-.6-.7-1.4-1.7-2-1.8-1.4 0-2-1-3-1.7-2.5-2-5-4.2-7.7-6.1a11 11 0 0 0-4.5-2l-14-1.5-15.4-.7c-5.4-.2-10.7-.5-16-.5l-18 .2c-2.8 0-5.7-.6-8.6-.9l-14.8-1.1c-4.3-.4-8.4-1-12.6-1.5-9-1-18-1.7-26.9-2.9-5.2-.7-10.5-1-15.7-1.3-4.5-.2-8.9-.5-13.3-1.2-2.3-.4-4.7-.5-7-.5s-4.5.4-6.7.4l-37-.5c-2.1 0-4.3.4-6.4.4h-8.4l-20.9.2c-3.5 0-7-.4-10.4-.6l-21.5-.7c-5.2-.3-10.4-1-15.6-1.1-12.8-.2-25.6-.2-38.5-.2a419 419 0 0 1-21.4-1.7c-4.6-.6-9.3-.7-14-.6-7 .1-14 .4-20.8.1-5.8-.2-11.6.2-17.4-.6-3.6-.5-7.2-.4-10.8-.3-8.4.3-16.7-.3-25 0-1 .1-2 0-2.7.5-1.3 1-2.6.8-4 .7-4.2-.3-8.5-.6-12.3 1.9-.3.2-.7.3-1.1.3-1.4.2-2.1 1-2.6 2a20.1 20.1 0 0 0-2.3 8.1c0 1 .2 2.2 0 3.2-.8 3.4-.2 6.7.1 10 .2 1 0 1.7-.8 2.2-1.2.7-1.5 2-1.2 3.2.7 2.7 1 5.4.8 8v16.5h6.8c3.4-.3 6.8-.8 10.1-1 5.2 0 10.5 0 15.6-.5 1.6-.2 3.2-.1 4.8-.1H87c3.1 0 6.3-.4 9.4 0 4.5.5 9 .6 13.6.2 1.7 0 3.4.3 5.1.5 1 0 2 .5 3 .4 5.3 0 10.5.6 15.8 1.1 4.8.4 9.6.2 14.4.5 2.5.1 5 .6 7.6.8 6.5.5 13 1.1 19.5 1.4 8.1.3 16.2.5 24.4.4 6.3 0 12.7-.5 19 0 5.3.4 10.6.6 16 .5 7.6-.2 15.2 0 22.8.3 10.7.4 21.5.4 32.2.5 6.3 0 12.6-.2 19-.1 10.7 0 21.4.3 32.2.6l28 1.1 9 .5c5.2.2 10.5.2 15.8.7 5.7.5 11.5 1 17.3.8 3.1 0 6.3-.2 9.4.2 10.9 1.3 21.8 1 32.7 1.6 7 .5 13.9.7 20.8 1 6.3.4 12.6 1 18.8 1.3l16.3 1 14.4.9h8z"/>
  <path d="M283 205.4l21.4-1 10.7-.4 25-1c6.1-.3 12.2-.3 18.3-.5l22.4-.4 6.4.3c4.7.2 9.4.6 14.1.6 5 0 10.1-.4 15.2-.4l19.8.1h4.5c6.7.4 13.5.5 20.2.3l12.2-.1c.7 0 1.5 0 2.2.2 1.7.4 2.3 1.9 1.6 3.5-.2.4-.3 1-.2 1.4 1 1.7.2 3.3 0 5-.2 1.9-1.6 2.6-3.6 2.2a20 20 0 0 0-6.8-.2c-1.5.2-3 .1-4.4.2-.8 0-1.6-.2-2.3 0-3 .5-5.8 0-8.8-.2a76 76 0 0 0-5.7 0c-2 .2-4 .3-6 0-1.4-.4-3-.5-4.4-.3-4 .6-8-.1-12.1 0-2.4 0-4.8-.4-7.1.7a1794.5 1794.5 0 0 1-13-.5c-1.9 0-3.7-.4-5.4.5-.4.2-1 .1-1.5 0-3.4-.1-7-.1-10.3-.7-4.2-.6-8.2.5-12.3.4h-8.5l-4.4.3c-5 0-10-.1-15 .3-4.4.3-8.8-.1-13.2 0-4 0-7.9.5-11.8.7h-8.7l-8.4.3-12.8.5c-2.3 0-4.5.2-6.7.4-2 .2-4 0-5.8-.8-2.7-1-3.6-3.3-2.5-6l.5-1.1c1.1-3.7 2-4.3 5.8-4.3h1.5zM245.1 200.9c1 1.2 1 2.4.7 3.6a42 42 0 0 0-1.1 9.8l-.8 21.6c-.1 2.7.2 5.4.3 8.2v7.9l.3 12.6 1.1 23.4c.2 4.6 0 9.2.1 13.8v3.2c0 1.8 0 3.4-1 5-.5 1.1-.6 2.4-1 3.6-.4 1.6-1 2-2.5 2l-7.8.5-8.5.5h-1c-4.2 1.6-8.6.3-12.8 1-4.8.6-9.7.6-14.6.8a8 8 0 0 1-2 0c-1.3-.3-2.5-.5-3.8.2-.4.2-1 .3-1.5.2-4-.7-8 .1-12 0-5.2-.3-10.3-.4-15.5-.5l-10.6.3-14.8.5c-1.5 0-3 .3-4.4.4-1.9.1-3.8.5-5.7.2-4.1-.7-8.2 0-12.3.5-3 .5-6.1 1.2-9.3.4-.4-.2-.8-.2-1.2-.1l-8.6.8c-3 .1-6 .2-9.1.1-1.7 0-2.3-.8-2.4-2.6-.1-1 .1-2-1.1-2.5-.4-.1-.5-1-.6-1.5l-.2-4.9c-.3-7.1-.6-14.2-.7-21.3-.1-6.8.1-13.6.1-20.3l-.3-7-.6-17.8-.3-19.1.3-9c0-.8 0-1.6-.2-2.4-.7-2.7 0-4 2.4-5.6 1.1-.7 2.1-1 3.4-1 3.2-.2 6.5 0 9.8-.2 5-.3 10 0 15-.3 4.8-.2 9.4-.7 14.1-1 2-.2 4.1 0 6.2-.1l3.6-.3H149l15.1-.9c8-.2 16-.2 23.8-.5 4.2-.2 8.4-.8 12.6-1l19.5-1 8.4-.3 13.4-.2 3.3.3zm-2.6 3.4c-1.4-.2-2.6-.6-3.9-.6-4.9 0-9.8-.2-14.7.2-6 .4-12-.4-18 1H198.3l-10 .9-14 .3c-5.2.2-10.5.7-15.8.8l-32.2.7c-3 0-6 .2-8.8.6-6.1 1-12.2 1.2-18.3 1.2H85.3c-1.9.1-2.3.5-2.4 2.4-.2 1.6-.4 3.3-.4 5l.2 18.7c0 3-.2 6-.1 8.9.2 5.2.7 10.5.8 15.8.2 6.7.2 13.5.3 20.3l.4 19.2.3 6.7v10.4c1.3.2 2.6.6 3.9.6 7.4.4 14.8-1.5 22.2-.7l1-.2c3.5-.4 7-1.3 10.6-1.1 4.5.2 9-.1 13.6-.5a84 84 0 0 1 6.4-.3c5 0 9.9.4 14.9-.1 3-.3 6.2-.2 9.3-.1 4.7.2 9.4.5 14.1.2 4-.2 8 0 12 0 3.2 0 6.5 0 9.7-.2l13.4-1c3.9-.2 7.9-.3 11.8-.6 3.9-.2 7.6-1.6 11.5-.8a3 3 0 0 0 1.7-.4c.4-.1.9-.6 1-1 .4-2.3 1-4.7 1.1-7 .2-3.9.1-7.8 0-11.7 0-3.1-.1-6.3-.3-9.4l-.8-20-.3-18.4-.2-9 .6-16 .3-6 .6-8.8zM274.5 235c1.1-1 1.5-2.1 1.4-3.5 0-1.4 1.5-3 3.2-3.3 3.4-.6 6.8-1 10.3-1.4 2.7-.3 5.4-.4 8.1-.5l6.7-.3 2.2-.3 3-.5c2.6-.2 5.2-.8 7.8-.6 3.2.1 6.4-.3 9.6-.5L351 223c2.4 0 5 .1 7.4.5 2 .3 2.1 1 2 3-.2 1.5 0 2.9.2 4.3.5 2.9-1.1 4.7-4 4.5a296 296 0 0 0-24.5.3l-11 .8c-2.2.2-4.5.2-6.8.3-2.2.1-4.3.2-6.4.5l-16 1.6-11.3 1c-2.2.2-3.5-1.4-5-2.7-.4-.5-.6-1.3-1.2-2.2zM381.6 338c.8.6 1.6.8 2.6.2a7 7 0 0 1 3.1-.8l20.1-1c8.3-.2 16.5-.2 24.8-.5l18.6-.8h7.1l5.4-.3c2 0 2.4.4 2.4 2.2l-.1 10.4c0 4.3-1.3 8.4-.5 12.6l.4 2.7c.7 2.1.4 2.8-2 3.2-.6.2-1.4.3-2.1.2-3.6-.5-7.1-1.2-10.8-1-1.6.2-3.3-1-5-.6l-.8-.1c-3.7.8-7.4.5-11 .7-4.3.3-8.6.3-13 .5-1.2 0-2.5.3-3.8.5a2016.2 2016.2 0 0 1-12.5 1.1c-3.4-.4-6.7.2-10 .5-2.8.2-5.6 0-8.4.2-.8 0-1.7.1-2.5.4-1.4.5-2.4.1-2.3-1.2.1-1.7-.5-3-.8-4.6-.4-2 0-4.1 0-6.2 0-5 .5-9.9-.5-14.8-.3-1.5 0-2.5 1.6-3.5zm80 .6l-.8-.3c-4.2.4-8.4 0-12.6.5-4.3.6-8.7.4-13 .6l-13 .4c-5.3.1-10.6 0-16 .2-3.9.1-7.8.1-11.6.5-3.7.4-7.6-.4-10.9 1.5v21.4l1 .3c4.8 0 9.6 0 14.4-.2 3.5-.1 7-.4 10.6-.7 1.2 0 2.3-.2 3.5-.3l8.6-.8c2.8-.2 5.6-.2 8.4-.5 8.8-.8 17.7-.7 26.5.3l4.5.2c-.3-8 2.3-15.5.5-23.1zM86.4 145.4c-.8-.9-1.4-1.7-2.1-2.3-4.4-3.2-5.9-7.9-6.4-13a18.5 18.5 0 0 1 3.3-13.3c2.7-4.3 5.3-8.6 10.4-10.6.6-.3 1-1 1.6-1.4 2.8-1.7 6-1.9 9-2.3 3.8 1.8 8.4.6 11.9 3.7l1.7-1.8 6-8.2L124 93l1.6-1.8c2.5 1 2.8 1.8 1.5 3.7-.7 1-1.6 1.8-2.4 2.8-2 2.6-4 5.2-5.8 7.9-1.6 2.2-1.5 2.3 0 4.4 3 4 6 8.3 5.2 13.7-.3 2.3-.5 4.5-1 6.7 0 1-.6 1.8-1 2.7l-1.3 3c-.4 1-.8 1.9-2 2.6-1.3.7-2.2 2.2-3.3 3.3-.2.3-.4.7-.8.9-2.6 1.2-5.4 2-7.8 3.6-2.4 1.6-5.3.6-7.7 2-.5.2-1.2 0-1.7-.2l-5.6-1c-1.9-.4-2.6 0-3.4 1.4-2.5 4.4-5 8.8-7.3 13.2l-2.4 4.8c-2.4-1.2-3-2.4-1.9-4.4l6.7-11.8 2.7-5.1zm25.6-36l-1.6-.6c-3-.8-6-1.3-9-2-1.8-.4-4-.5-5.5 1.3-.4.5-1.1.7-1.7 1a15.3 15.3 0 0 0-7.2 5c-1 1.5-2.4 3-3.2 4.7-1.5 3.1-3.6 6.1-2.3 10 .5 1.3-.1 2.9.3 4.1 1.4 3.7 3.6 6.8 7.2 9l23-32.4zm3.2 2.4c-3.5 3.7-6 7.8-8.5 11.8a93 93 0 0 1-4.3 6c-1.3 1.7-2.8 3.2-4.1 5-1.4 1.8-2.7 3.9-4 5.9-.5.7-.8 1.5-1.1 2.3 3.7 1.8 7.3 2 10.8.8 2.6-1 5-2.4 7.6-3.7 5.9-3 8.6-8.3 9.3-14.6.6-5.3-1.7-9.7-5.7-13.5zM284 279l30.7.3c4.7 0 9.4.4 14.2.3 5.3 0 10.7-.4 16-.6l17.7-.6c3.1-.1 6.2-.5 9.4-.6l17.8-.6 26.8-.6c4.5 0 9-.3 13.4-.3 7.4 0 14.9.3 22.3.5l15.6.4 1.7.1c1 0 1.6.5 1.7 1.5.2.9 0 1.6-1 2-.5.3-1.2.5-1.8.5-2.6 0-5.2-.3-7.8-.4l-8-.4-19.7-.5-7.6.2-10.2.1-23.8.6h-7.7c-4 0-7.9.3-11.9.5l-12.8.4-6.2.3-2.4-.2c-.3 0-.7-.2-1 0-2.3 1.3-4.7-.3-7 .1s-4.6.9-6.8 1l-18.9.1-10.4-.2-12 .1-7.2-.2-3.9.3c-1 .2-1.4-.2-1.7-1-.7-1.6.6-3.3 2.4-3zM450 260.1h-23a98 98 0 0 1-7.6-.3c-7.3-.7-14.6-.4-21.8-.2l-12.2-.2-29.8.5-11.8.5c-1.4 0-2.8-.3-4.2-.4-.8 0-1.6-.2-2.3 0-3.2.8-6.5.4-9.8-.2l-1.4.1-3.4.1c-1.1 0-2.3 0-3.4.4-3 1-5.9.5-8.8.2-1.8-.1-3.6 0-5.4.3-3.2.5-6.6 1-9.8.8-4.2-.3-8.4-.4-12.6.2-2.3.2-3.3-1.1-2.4-3.2.4-.9 1-1.1 2-1 3.3.1 6.7 0 10 .3 5.8.6 11.4-.6 17.1-.6l5 .2c3.3.3 6.5-.5 9.8-.6 1.6 0 3.3-.3 5 0 3.4.5 6.9.2 10.3 0l11.2-.3c9-.2 18-.2 27-.7 12-.6 23.9.1 35.8 0 5.8-.1 11.6.5 17.3.6l22.8-.3 10 .2 5.2-.1h2.2c1.4 0 2 .6 2 1.6s-.9 2-2 2.1l-3.2.1h-17.9zM219.8 327.4l-1.3-1-.9-.3c-2.1 0-4.2.3-6.3.2-2.7-.2-5.3.4-8 1-.5.1-1.2-.1-1.9-.1-5.6 0-11.3.1-17 .4-2.3 0-4.7.7-7 1-2.1.2-4.2.4-6.2.2a45 45 0 0 0-9.9.4c-1.8.2-3.7.7-5.6.7-1.4 0-2.8-.3-4.3-.2-4.4.2-8.9 0-13.3-.1l-1.2.1c-2.3.9-4.6.6-6.9.7l-13.6.6c-1 0-2 .7-2.9 1.2-.8.4-1.6.5-2.1-.4-.5-.8-1-1.7 0-2.5.4-.4 1-.9 1.6-1 3.1-.2 6.2-1 9.4-.4l2-.1c5.1-1.4 10.5-.8 15.8-1.2 4.7-.4 9.5.2 14.3.2 2.8 0 5.5-.4 8.3-.7a47 47 0 0 1 9.6-.2c1.8.2 3.7-.3 5.5-.5 4.2-.3 8.5-.8 12.8-1 6.8-.4 13.7-.1 20.5-1.3 1.7-.2 3.5 0 5.2 0l2.2-.1c1-.1 2.2-.7 2.7 1 .5 1.6.4 2-1.5 3.4zM290.1 306c7.6-.5 15.3-1 23-1.3 7-.2 14-.1 21-.2 1.2 0 2 .8 2 1.7.2 1-1 2.4-2 2.3-2.4 0-4.6-.3-7-.5h-1.6l-9.4.5c-2.8.2-5.6.5-8.3.5l-20.3.5c-1.5 0-3 .1-4.4.3-1.6.2-2.5-.2-2.6-1.4-.2-1.4.6-2.8 1.9-3l3.7.1 4 .2v.3zM342.4 128.5c1 3 .7 3.5-2 3.7l-5.5.1c-2.3.3-4.7.5-7 1.5-1.2.5-2.8.2-4.3 0-1.5 0-3-.4-4.6 0-1.4.4-2.8.3-4.2 0-3.6-.4-7.2-.3-10.9.2-.7-1.3-.8-2.5 0-4l8.3.4c1.5 0 3 .3 4.4 0 2.4-.4 4.6-.3 7 0h3l13.2-1.6 2.6-.3zM401.4 129v3.5l-3.4.3h-28.3c-1 0-1.9 0-2.7.2-.9.1-1.8.4-2.2-.5-.2-.6.2-1.4.4-2 0-.3.3-.6.6-1H383l12.9-.2 3.4-.3h2.1zM462.9 129c.6 1 1 2 .2 2.8-.4.4-1.2.8-1.6.7-1.9-.7-3.6-.2-5.4.1-.9.2-1.8.4-2.7.2-3.3-.7-6.5 0-9.7.3h-2.2l-7.9-.5h-2l-4.6.2c-.5 0-1.3.1-1.5-.1-.3-.5-.5-1.3-.3-1.8.3-1.2 1.2-1.9 2.6-1.8 3 .1 6 .3 9.1.3 4.6 0 9.3-.1 13.9.1 3.2.2 6.4 0 9.6-.4h2.5zM491.1 129.5h6.7c1.7 0 2.2.4 2.2 1.5-.1 1.4-1 2-2.5 2-4.8-.5-9.5-.7-14.3 0-.8 0-1.4-.1-1.6-1-.2-1.2.5-2.4 1.6-2.5h7.9zM93.6 47.9c0-1.2 0-2.4.3-3.4.4-1.1 1.3-2 2-3 .3-.2.8-.3 1.1-.6 5.2-5 11-4.3 17-1.7 1.6.7 2.4 2.2 3.3 3.6 1 1.5 2 3 2.8 4.6.3.8.5 1.8.4 2.6-.4 1.8-1 3.5-.5 5.5.3 1.4-.9 2.7-2 3.4-2 1-4 1.7-6 2.5l-1.6.6c-3.2 1.8-6.2 1-9-.9-1.7-1.2-3.2-2.6-4.8-4-2.1-2-2.3-4.8-2.8-7.5v-1.7h-.2zm11.1-4.5l-2.3 3.3c-1.3 1.8-1 3.5 0 5.3.7 1.7 1.4 2 3 1.3l4.8-2c.9-.6 1.7-1.4 2.4-2.1 1-1.2.9-2.2-.5-2.8-1-.5-2.2-.8-3.3-.9-1.5 0-2.9-.4-4.1-2.1zM154.6 57c0 2.2-2 4.5-5 5.2-2.5.6-5 1-7.6 1.2-1 0-2.2-.7-3.1-1.3-2.8-1.9-5-4.4-6.8-7.1a7 7 0 0 1-.7-6.9c1-2.5 2.6-4.7 5.3-5.9 1.4-.6 2.8-1.2 3.8-2.7.6-1 1.8-1.2 3-.6 2.9 1.2 5.6 2.5 8 4.5 1.4 1.1 2 2.6 2.3 4.2.4 3 .5 6 .8 9.3zm-7.2-8l-.4-.5c-4-2.3-4.4-2.1-6.9 1.6-.6 1-.8 1.8-.2 2.7.6 1 1.5 1.1 2.6 1 2.5-.6 4.2-2 4.9-4.8zM81.5 47l-.7 3.5c0 .3-.2.7 0 1 .9 1.2 0 2.2-.5 3.2-.8 1.5-1.8 2.9-2.8 4.3l-.4.3c-2.5 1.8-5.1 3.3-8.3 3-1-.2-2.2-.5-3-1.1a52.4 52.4 0 0 1-5-4c-.6-.4-1-1.2-1.1-1.9-.6-1.8-1-3.6-1.5-5.5-1.1-4 0-6.5 4-8a8 8 0 0 0 3.7-3 4 4 0 0 1 5-1.5c3.3 1.5 6.7 3 9.6 5.4.4.4.7 1.1.8 1.7V47h.2zm-13.4.1c-1.2.2-2 .2-2.6.6-.8.5-.4 1.2 0 2l.6 1.8c.7 1.6 1.6 2.2 3.1 1.4a33 33 0 0 0 5.3-3.6c1.6-1.3.9-3.5-1-4-2.3-.4-4.4-.1-5.4 1.8z"/>
  <path d="M203.5 276.5c-1-.6-2-1.2-2.8-2-3.4-3-7.1-5.5-11.2-7.4-2.6-1.2-5-2.5-7.6-3.6-1.3-.6-2.7-1.3-4.1-1.6-.8-.1-1.8.2-2.5.7a66.4 66.4 0 0 1-11.2 5.2c-1.6.6-3.6 1.2-4.1 3.4 0 .2-.4.3-.8.5l-1.3-1c-3.5-3.2-7.1-6.3-10.5-9.7-2.3-2.3-4.3-5-6.5-7.3-1.2-1.2-2.6-2.1-4.5-1.4l-1.3.7-4.3 3.2a3 3 0 0 0-.8 1c-1.7 3-4.4 5-7 7.2-2 1.5-4 3.2-5.3 5.5-1 1.6-2.6 2.9-4 4.3l-5.5 5.2-4 4.1c-1 .8-1.5 1.6-1.6 2.7 0 .9-.4 1.5-1.3 1.5s-1.2-.6-1.4-1.4c-.5-1.2-.4-2.2.5-3.2l4-4.1.8-.9c1.8-2 3.4-4.1 5.4-5.7 3-2.2 4.7-5.6 7.2-8.1 1.6-1.6 3.3-3 5-4.5 2-1.9 3.8-3.9 5.8-5.7l7.5-6.8c.9-.7 1.7-.6 2.5 0 1.4 1 3 2 4.1 3.2 2.4 2.5 4.5 5.3 6.9 7.8 2.5 2.6 5.2 5 8 7.3.4.4 1.6.4 2.2.1 2-.7 3.8-1.7 5.6-2.7 2.7-1.3 5.4-2.5 8-3.9 2.9-1.6 5.6-1.2 8.5 0a74.8 74.8 0 0 1 15 7.9c2 1.4 4.2 2.8 6.1 4.4 1.7 1.4 1.7 2.6.5 5.1zM194.8 242.8c.5-3.3 2.4-5.6 4.3-7.9.2-.3.7-.4 1-.4 2-.3 3.8-.7 5.7-.8 1.2 0 2.3.3 3 1.7.6 1.1 1.5 2.1 2.2 3.2 1 1.7.5 3.6-1 4.8-.5.4-1 .7-1.3 1.1-2 2.7-4.7 3.2-7.8 3-2 0-3.7-.4-4.8-2.2-.6-.7-.9-1.7-1.3-2.5zm3.7-3.5l-.5 1.1c-.6 2.4 0 3 2.4 3.5 2.5.3 4.6-.6 6.6-1.7 1.7-.9 1.6-3-.2-3.9-2-.8-4-1.2-6.1 0l-2.2 1zM396 353c-.5-1.8-.4-2.1 1-2.6.6-.2 1.3-.3 2-.3l7.6-.2 10.9.3c3.6.2 7.2.4 10.8-.3 2-.4 4-.3 6-.2 3.8 0 7.7.2 11.6.1 2 0 4-.4 6.1-.6 1.6-.1 2.2.4 2.2 1.6 0 1.2-1.4 2.8-2.3 2.3-1.7-.9-3.3-.2-4.9-.2a195.3 195.3 0 0 0-23.7.7c-2.5.2-4.9.3-7.4-.1a30 30 0 0 0-9.6-.1c-2 .3-4 0-6 0l-4.3-.3z"/>
</svg>
